<svg xmlns="http://www.w3.org/2000/svg" viewBox="0 0 264.5833 255.5875" height="966" width="1000">
  <path d="M153.3384 4.24c-1.8093 0-3.4894.3877-5.0403.9047 3.2956 2.197 5.105 5.105 6.0097 8.4005.0648.4523.1938.7755.2585 1.2278.0648.3877.1292.7754.1292 1.1631.2586 5.6866-1.4863 6.3974-2.714 9.7576-1.874 4.3295-1.357 8.9821.9046 12.73.1939.4524.4523.9693.7755 1.4217-2.4556-16.3488 11.1792-18.8043 13.6993-23.9093.1938-4.4587-3.4895-7.4312-6.3973-9.499-2.7787-1.6801-5.2989-2.1971-7.6252-2.1971zm20.549 3.6833c-.2585 1.4863-.0646 1.0985-.129 1.874-.0648.517-.0648 1.1631-.1292 1.68-.1291.517-.2586 1.034-.4524 1.551-.129.517-.323 1.0339-.5169 1.5508-.2586.517-.4523.9693-.7108 1.4863-.1939.2586-.3231.517-.517.7754-.1291.1939-.2585.3877-.3877.5816-.323.4523-.6462.9047-.9693 1.2924-.3877.3877-.7108.84-1.1632 1.1632v.0647c-.3877.323-.7754.7108-1.2277 1.0339-1.357 1.0339-2.9079 1.8093-4.3295 2.7786-.4523.323-.9047.5816-1.2924.9693-.4523.323-.84.6462-1.2278 1.0339-.4523.3877-.7754.7754-1.1631 1.2278-.3231.3877-.7108.84-.9693 1.2924-.3231.4523-.6462.9046-.9047 1.357-.2586.517-.4523.9693-.7108 1.4862-.1939.517-.3878.9693-.517 1.4863-.1938.5816-.323 1.0985-.4523 1.6155-.0647.2586-.0647.5815-.1292.84-.0648.2586-.0648.517-.129.7755 0 .517-.0648 1.0985-.0648 1.6154 0 .3878 0 .7755.0647 1.1632 0 .517.0647 1.0339.1939 1.6155.0647.517.1938 1.0339.323 1.5509.194.517.3232 1.0339.517 1.5508.1292.3231.3231.6462.4524.9047l-14.8625-5.7511c-2.5202-.7109-4.9757-1.357-7.496-1.9386l-4.071-.9693c-3.8771-.7755-7.8189-1.357-11.7607-1.7447-.1291 0-.1938-.0647-.323-.0647-3.8773-.3878-7.6898-.5816-11.567-.5816-2.8433 0-5.6865.1291-8.4652.323-3.9418.2587-7.8836.7755-11.8254 1.4217-.9693.1291-1.9386.3231-2.9079.517-2.0032.3877-3.9417.84-5.8157 1.2924-.9693.2586-1.9386.517-2.9079.7754-.9693.3877-1.874.84-2.7786 1.2278-.7109.323-1.4217.6462-2.1325.9693-.1291.0647-.2586.0647-.323.1291-.6463.3231-1.2279.5816-1.8094.9047-.1939.0647-.3231.1291-.4524.1938-.7108.3231-1.4216.7108-2.0032 1.034-.4523.1938-.9046.4523-1.2923.6462-.194.129-.4524.2585-.5816.323-.5816.3231-1.1632.6462-1.6801.9693-.5816.3231-1.0986.6462-1.551.9693-.4522.3231-.9046.5816-1.2923.9047-.0648.0647-.1292.0647-.1939.1291-.3877.2586-.84.5816-1.2277.9047l-.1292.1292-.9693.7754c-.1291.0647-.2586.1938-.3877.2586-.323.2585-.6462.5815-.9693.84-.0647.1292-.1938.1939-.2585.2586-.3878.3877-.7755.7108-1.1632 1.0985-.0647 0-.0647.0647-.1291.1292-.3878.323-.7755.7108-1.1632 1.0985-.0647.0647-.0647.1291-.1291.1291-.3231.3231-.6462.6463-.9693 1.034-.1292.129-.3231.2585-.4524.3877-.323.3877-.7108.7754-1.0985 1.1631-.0647.1292-.1939.1939-.2586.3231-.517.517-.9693 1.034-1.4862 1.5509l-.1939.1939c-1.034 1.0985-2.1325 2.197-3.2956 3.1663-1.1631 1.034-2.3909 2.0032-3.6187 2.8433-1.2924.9047-2.5201 1.68-3.8772 2.4555-1.2924.7108-2.6494 1.357-4.071 1.9386-1.357.5816-2.7786 1.0986-4.2003 1.5509-2.714.5815-5.4926 1.68-7.8836 1.874-.517 0-1.0985.129-1.6154.1938-.5816.1291-1.0986.2586-1.6155.3877l-1.551.5816c-.5169.1938-1.0338.4523-1.5508.7108-.4523.323-.9693.5816-1.4216.9047-.4523.323-.9047.7108-1.2924 1.0985-.4523.3231-.9047.7755-1.2924 1.1632-.3877.4523-.7754.84-1.0985 1.2923-.3231.517-.7108.9694-.9693 1.4863-.3231.4524-.6462.9693-.9047 1.4862-.2586.5816-.517 1.0986-.7108 1.6802-.1939.517-.3877 1.0985-.5816 1.68-.1291.517-.2586 1.034-.323 1.551 0 .0647-.0648.129-.0648.1938-.1291.5816-.1291 1.357-.1939 1.7448-.0647.4523-.1291.84-.1291 1.2924 0 .2585 0 .5815.0647.84.0647.4523.1292.84.2586 1.2278.1291.3877.2586.7754.4523 1.1631v.0647c.1939.3878.4524.7755.7108 1.1632.2586.3877.517.7754.8401 1.1632.323.323.7108.7107 1.0985 1.0339.3878.3877.7755.7108 1.2278 1.0339 1.5509 1.357 1.9386 1.8093 3.9418 2.8432.323.1939.6462.3231 1.034.517.0647 0 .129.0647.1938.0647 0 .1291 0 .1939.0647.3231.0647.517.1939 1.034.3231 1.5509.1291.5816.3231 1.0985.517 1.5509.1939.3877.323.7754.517 1.1631.0647.1292.129.2586.1938.3231.2586.517.517.9693.7754 1.4216l.9693 1.357c.3231.3878.7108.8401 1.0985 1.2278.3878.3877.7755.7108 1.2278 1.0985 0 0 .0648.0648.1292.0648.3877.3232.7754.6463 1.1631.9047.4524.3231.9047.5816 1.4217.84.4523.2586.9693.517 1.4862.7109.3877.1938.84.323 1.2924.4523.0647.0648.1291.0648.2586.1292.2586.0648.5815.1291.84.1938-.1938 3.4895-.2586 6.785.2586 7.9482.5816 1.2924 3.4248-2.6494 6.2681-7.1727-.3877 4.4587-.6462 9.6929 0 11.2438.7108 1.6154 4.588-3.4249 7.9482-8.9822 45.8153-10.5975 87.6242 21.066 92.0183 65.7828-.84-6.979-9.4345-10.8561-13.3762-9.8868-1.9387 4.7818-5.2342 10.9207-10.533 14.7332.4523-4.2649.2585-8.659-.6462-12.9239-1.4217 5.945-4.2003 11.5023-8.0129 16.2842-6.1388.4523-12.2777-2.5202-15.5087-6.979-.2586-.1938-.3231-.5815-.517-.84-.1938-.4524-.3877-.9047-.517-1.357-.1938-.4524-.323-.9047-.3876-1.357-.0648-.4524-.0648-.9047-.0648-1.4217v-.9692c.0648-.4524.1939-.9047.3231-1.357.1292-.4524.2586-.9048.4524-1.3571.2586-.4523.4523-.9047.7754-1.357 1.0986-3.1018 1.0986-5.6219-.9046-7.1081-.3878-.2586-.7755-.4524-1.2278-.6463-.2586-.0647-.5816-.1938-.84-.2585-.194-.0647-.3232-.1292-.517-.1939-.4524-.1291-.9047-.2586-1.357-.323-.4524-.1292-.9047-.194-1.357-.194-.4524-.0647-.9694-.129-1.4217-.129-.323 0-.6462.0646-.9693.0646-.517 0-.9693.0648-1.4216.1939-.4524.0648-.9047.1291-1.357.2585-.4524.1292-.9047.2586-1.357.4524-.4524.1939-.8401.3877-1.2924.5816-.3877.1939-.7755.4523-1.2278.6462-15.0564 9.8221-6.0742 32.8267 4.2003 39.4825-3.8772.7108-7.819 1.551-8.9175 2.391l-.1292.129c2.7787 1.6802 5.6866 3.1018 8.7237 4.3296 4.1356 1.357 8.5297 2.5848 10.4683 3.1017v.0647c5.3635 1.0986 10.7915 1.4863 16.2842 1.1632 28.6265-2.0032 52.0834-23.78 56.3483-52.4711.1291.5816.2586 1.0985.3877 1.6801.1939 1.1631.4523 2.391.5815 3.6187v.0648c.1292.5816.194 1.1631.2586 1.68v.2587c.0648.5816.1292 1.1631.1292 1.68.0647.7109.1291 1.4217.1291 2.1326v1.0339c0 .323.0647.7108.0647 1.0339 0 .3877-.0647.7754-.0647 1.1631v.9047c0 .4523-.0648.84-.0648 1.2924 0 .2585 0 .517-.0647.84 0 .4524-.0647.9047-.0647 1.4217-.0648.1938-.0648.3877-.0648.5816-.0647.517-.1291.9693-.1938 1.4862 0 .1939 0 .3877-.0647.5816-.0648.6462-.1939 1.2278-.2586 1.874v.1294c-.1291.5816-.2586 1.2278-.3877 1.8094v.1938l-.3878 1.7448c0 .0648-.0646.1938-.0646.2585-.1292.5816-.2586 1.1632-.4524 1.7448v.1938c-.1938.6462-.3877 1.2278-.517 1.8094-.0646.0647-.0646.1291-.0646.1291-.194.6462-.3878 1.2924-.5816 1.9386-.2586.6462-.4523 1.2278-.7108 1.874-.2586.6462-.4524 1.2924-.7108 1.874-.2586.6462-.517 1.2277-.7755 1.8739h-.0648c-.2586.5816-.517 1.2278-.84 1.8094-.0648.1938-.1292.323-.194.4523-.0646.0648-.0646.1291-.129.1939-4.2003 8.4651-10.4038 15.8964-18.1581 21.7121-.517.3231-1.034.7109-1.5509 1.0986-.1291.1291-.3231.1938-.4523.323-.4524.3231-.9047.6462-1.4217.9694l.1939.3877h.0647c.9047-.1292 1.8093-.2586 2.714-.3877h.0647c1.6801-.2586 3.3602-.5816 5.0404-.9047.4523-.0648.9693-.1939 1.4216-.3231.323-.0648.5816-.1292.9046-.1939.4524-.0648.9047-.1939 1.357-.2586.3878-.1291.7755-.1938 1.1632-.323 6.462-1.551 12.73-3.6834 18.7397-6.2036-10.2745 14.0225-24.0385 25.331-40.1288 32.7622 7.4313-.517 14.8625-1.7448 22.0353-3.8126 26.0417-7.6897 47.9477-25.2016 61.0655-48.7878-2.6494 14.9272-8.5944 29.1435-17.3826 41.5504 6.268-4.1357 12.0192-8.9175 17.2534-14.3455 14.4748-15.121 23.9739-34.313 27.2048-54.9267 2.197 10.21 2.8433 20.743 1.874 31.1467 46.6553-65.072 3.8772-132.5348-14.0225-150.3052-.0648-.1291-.1291-.1938-.1291-.323-.0648.0646-.0648.0646-.0648.129 0-.0646 0-.0646-.0647-.129 0 .7754-.0647 1.5508-.1291 2.3262-.194 1.4863-.3877 2.908-.6462 4.3296-.3231 1.4216-.7109 2.8432-1.0986 4.2648-.4523 1.357-.9692 2.7787-1.5508 4.1357-.5816 1.2924-1.2278 2.6494-1.9386 3.9418-.7108 1.2278-1.4863 2.5202-2.3263 3.6833-.84 1.2278-1.7448 2.391-2.6494 3.4894-.9694 1.1632-2.0032 2.1971-3.0372 3.231-.6461.5816-1.2277 1.0986-1.874 1.6155-.5169.4524-.9692.84-1.4862 1.2924-1.1631.9047-2.3263 1.7447-3.6187 2.5202-1.2277.7754-2.5201 1.5508-3.8125 2.197-1.357.6462-2.714 1.2278-4.071 1.8094-1.357.517-2.7787.9693-4.2004 1.357-1.4216.3877-2.9078.7108-4.3294.9693-1.4863.2586-2.9725.3877-4.3942.517-1.0339.0647-2.0678.1291-3.1017.1291-1.4863 0-2.9725-.1291-4.3941-.2586-1.4863-.1291-2.9725-.3231-4.3942-.6462-1.4862-.2586-2.9079-.6462-4.3295-1.0985h-.0647c1.4216-.1291 2.8433-.2586 4.265-.517 1.4861-.2586 2.9078-.5815 4.3294-.9693 1.4216-.3877 2.8433-.84 4.2003-1.357 1.4216-.517 2.7786-1.1631 4.071-1.8093 1.357-.6463 2.5848-1.357 3.8772-2.1325 1.2278-.84 2.4555-1.68 3.6187-2.5848a35.3328 35.3328 0 0 0 3.2956-2.9078c1.0985-.9694 2.0678-2.0679 3.0371-3.1664.9693-1.1631 1.874-2.3263 2.714-3.4895.1292-.1938.2586-.4523.3878-.6461.6461-1.034 1.2923-2.0679 1.8739-3.1018.7108-1.2924 1.357-2.5848 1.9386-3.9418.5816-1.357 1.0985-2.714 1.5509-4.1356.4523-1.357.7754-2.7787 1.0985-4.2003.2586-1.4863.517-2.908.6462-4.3295.1291-1.4863.2586-2.9725.2586-4.3941 0-1.034-.0648-2.0679-.1291-3.1018-.1292-1.4862-.3232-2.9079-.517-4.3295-.2586-1.4863-.5816-2.9079-.9693-4.3295-.4523-1.357-.9047-2.7787-1.4216-4.1356-.517-1.357-1.1632-2.714-1.8094-4.0065-.7108-1.2924-1.4216-2.5848-2.197-3.8125-.8401-1.2278-1.6802-2.391-2.5848-3.5541-.9693-1.0985-1.9386-2.197-2.9726-3.2956-.5169-.517-1.0985-1.0985-1.68-1.6155-2.908-2.2617-5.945-4.3941-8.9822-6.3327-.4523-.2586-.84-.4524-1.2924-.6462-2.1324-1.357-4.1356-2.0679-6.1388-2.714z" fill="#e0234e" fill-rule="evenodd"/>
</svg>
