<svg xmlns="http://www.w3.org/2000/svg" viewBox="0 0 959.09 292.07"><path d="M65.7,87.08l.71.06,2,.18.94.11c.6.07,1.19.16,1.78.25l1,.16,1.71.32,1,.22c.58.12,1.16.26,1.73.41l1,.24c.74.19,1.47.41,2.21.64l1.22.39c.58.19,1.17.39,1.75.6l1.24.48c.44.17.89.34,1.33.53s.87.37,1.31.57l1.23.56,1.32.64,1.21.63c.42.23.85.45,1.27.69s.87.5,1.31.76l1.11.67c.8.49,1.59,1,2.37,1.54a59.73,59.73,0,0,1,19.18,21.63c6.25,11.51,11.45,20.31,16.72,27.17h0l.3.37c13.72-17.27,28-21.7,61.92-26.19a60.55,60.55,0,0,0,27.24-10.16c64.51-48.05-1.12-141.22-68.61-98.79A59.84,59.84,0,0,0,134,33.33c-22.34,40.72-31.5,47.59-76,53.74L59.54,87l.61,0C62,86.93,63.85,87,65.7,87.08ZM171.31,37.73a28.85,28.85,0,0,1,39.9,7.3c20.35,32.11-24.64,62.35-47.27,32.23A28.27,28.27,0,0,1,171.31,37.73Z" transform="translate(-1 -0.96)" style="fill:#fc6719"/><path d="M222.21,184.26A61,61,0,0,0,195,173.93c-34.25-4.78-48.48-9.33-62.25-27l-.3-.37h0c-5.27-6.86-10.47-15.66-16.72-27.17A59.73,59.73,0,0,0,96.52,97.73c-.78-.54-1.57-1-2.37-1.54L93,95.52c-.44-.26-.87-.52-1.31-.76s-.85-.46-1.27-.69l-1.21-.63-1.32-.64-1.23-.56c-.44-.2-.87-.39-1.31-.57s-.89-.36-1.33-.53l-1.24-.48c-.58-.21-1.17-.41-1.75-.6l-1.22-.39c-.74-.23-1.47-.45-2.21-.64l-1-.24c-.57-.15-1.15-.29-1.73-.41l-1-.22-1.71-.32-1-.16c-.59-.09-1.18-.18-1.78-.25l-.94-.11-2-.18-.71-.06c-1.85-.12-3.7-.15-5.55-.1l-.61,0A60.84,60.84,0,0,0,12,112.39c-27,37.87-1.31,89.6,44.09,93.71h.13c45.79,6.54,54.89,13.17,77.19,54.29A59.7,59.7,0,0,0,152.59,282C219.58,324.72,286.67,232.9,222.21,184.26ZM85.28,162.84c-12.17,17.67-40.55,15.21-49.53-4.07-14.18-31,26.49-56,48.25-30,.38.46.74.94,1.09,1.42A27.9,27.9,0,0,1,85.28,162.84ZM211,249.36a29.09,29.09,0,0,1-40.07,6.95c-30.57-23.07,1.25-66.59,33-46.35A28,28,0,0,1,211,249.36Z" transform="translate(-1 -0.96)" style="fill:#01b2cc"/><path d="M349.68,125.75Q357,134,357,148.25V172.4q0,14.1-7.27,22.35T330,203q-9.3,0-15.3-4.58a18.15,18.15,0,0,1-7-12.67h-.15V201.5H294V92h13.5v24l-.3,18.75h.45a18.86,18.86,0,0,1,7.2-12.6q6-4.65,15.15-4.65Q342.4,117.5,349.68,125.75ZM343.45,149q0-9.45-4.72-14.63t-13.28-5.17q-8.4,0-13.2,5.25T307.45,149v22.5q0,9.3,4.8,14.55t13.2,5.25q8.55,0,13.28-5.18t4.72-14.62Z" transform="translate(-1 -0.96)" style="fill:#222"/><path d="M443.2,163.55H392.8v7.95q0,9.9,4.73,15t13.87,5.1q15.75,0,18-11.1h13.5a23,23,0,0,1-9.9,16.42Q424.45,203,411.4,203q-14.55,0-23.17-8.55T379.6,171.5V149q0-14.4,8.63-23t23.17-8.55q14.55,0,23.18,8.55t8.62,23Zm-50.4-10.2H430V149q0-9.9-4.72-15.08t-13.88-5.17q-9.15,0-13.87,5.17T392.8,149Z" transform="translate(-1 -0.96)" style="fill:#222"/><path d="M474.55,194.6q-8.7-8.4-8.7-23.1V122q0-14.7,8.7-23.1t23.7-8.4q14.7,0,23.4,8.47t8.7,23h-13.5q0-9.3-4.87-14.4t-13.73-5.1q-8.85,0-13.87,5.1t-5,14.25V171.5q0,9.3,4.95,14.4t13.95,5.1q8.85,0,13.73-5.1t4.87-14.4h13.5q0,14.55-8.7,23T498.25,203Q483.25,203,474.55,194.6Z" transform="translate(-1 -0.96)" style="fill:#222"/><path d="M566.05,228.5l12.15-32.1L547.9,119h15l18.45,51q1.5,4.35,3.45,12,1.8-7.65,3.3-12l17.25-51H619.9L580.45,228.5Z" transform="translate(-1 -0.96)" style="fill:#222"/><path d="M647.05,194.6q-8.7-8.4-8.7-23.1V149q0-14.7,8.7-23.1t23.7-8.4q14.25,0,23,7.65T702.85,146h-13.5q-.45-7.8-5.33-12.15t-13.27-4.35q-8.85,0-13.88,5.1t-5,14.25V171.5q0,9.3,4.95,14.4t14,5.1q8.4,0,13.27-4.35t5.33-12.15h13.5q-.45,13.2-9.15,20.85t-23,7.65Q655.75,203,647.05,194.6Z" transform="translate(-1 -0.96)" style="fill:#222"/><path d="M766.15,201.5q-10.95,0-17.48-6.38t-6.52-16.87V104.3H717.4V92h38.25v86.25a11,11,0,0,0,2.85,8,10.18,10.18,0,0,0,7.65,2.93H793.9v12.3Z" transform="translate(-1 -0.96)" style="fill:#222"/><path d="M874.45,163.55h-50.4v7.95q0,9.9,4.72,15t13.88,5.1q15.75,0,18-11.1h13.5a23,23,0,0,1-9.9,16.42Q855.7,203,842.65,203q-14.56,0-23.18-8.55t-8.62-22.95V149q0-14.4,8.62-23t23.18-8.55q14.54,0,23.17,8.55t8.63,23Zm-50.4-10.2h37.2V149q0-9.9-4.73-15.08t-13.87-5.17q-9.17,0-13.88,5.17T824.05,149Z" transform="translate(-1 -0.96)" style="fill:#222"/><path d="M946.59,92h13.5V201.5h-13.5V185.75h-.15a18.15,18.15,0,0,1-7.05,12.67q-6,4.59-15.3,4.58-12.45,0-19.72-8.25t-7.28-22.35V148.25q0-14.25,7.28-22.5t19.72-8.25q9.15,0,15.15,4.65a18.86,18.86,0,0,1,7.2,12.6h.45l-.3-18.75Zm0,57q0-9.3-4.8-14.55t-13.2-5.25q-8.55,0-13.27,5.17T910.59,149v22.5q0,9.45,4.73,14.62t13.27,5.18q8.4,0,13.2-5.25t4.8-14.55Z" transform="translate(-1 -0.96)" style="fill:#222"/></svg>