<svg id="graph-div" width="100%" xmlns="http://www.w3.org/2000/svg" xmlns:xlink="http://www.w3.org/1999/xlink" height="395.125" style="max-width: 601.0625px;" viewBox="-20 -20 601.0625 395.125"><style>#graph-div {font-family:"trebuchet ms",verdana,arial,sans-serif;font-size:16px;fill:#333;}#graph-div .error-icon{fill:#552222;}#graph-div .error-text{fill:#552222;stroke:#552222;}#graph-div .edge-thickness-normal{stroke-width:2px;}#graph-div .edge-thickness-thick{stroke-width:3.5px;}#graph-div .edge-pattern-solid{stroke-dasharray:0;}#graph-div .edge-pattern-dashed{stroke-dasharray:3;}#graph-div .edge-pattern-dotted{stroke-dasharray:2;}#graph-div .marker{fill:#333333;stroke:#333333;}#graph-div .marker.cross{stroke:#333333;}#graph-div svg{font-family:"trebuchet ms",verdana,arial,sans-serif;font-size:16px;}#graph-div g.classGroup text{fill:#9370DB;fill:#131300;stroke:none;font-family:"trebuchet ms",verdana,arial,sans-serif;font-size:10px;}#graph-div g.classGroup text .title{font-weight:bolder;}#graph-div .classTitle{font-weight:bolder;}#graph-div .node rect,#graph-div .node circle,#graph-div .node ellipse,#graph-div .node polygon,#graph-div .node path{fill:#ECECFF;stroke:#9370DB;stroke-width:1px;}#graph-div .divider{stroke:#9370DB;stroke:1;}#graph-div g.clickable{cursor:pointer;}#graph-div g.classGroup rect{fill:#ECECFF;stroke:#9370DB;}#graph-div g.classGroup line{stroke:#9370DB;stroke-width:1;}#graph-div .classLabel .box{stroke:none;stroke-width:0;fill:#ECECFF;opacity:0.5;}#graph-div .classLabel .label{fill:#9370DB;font-size:10px;}#graph-div .relation{stroke:#333333;stroke-width:1;fill:none;}#graph-div .dashed-line{stroke-dasharray:3;}#graph-div #compositionStart,#graph-div .composition{fill:#333333!important;stroke:#333333!important;stroke-width:1;}#graph-div #compositionEnd,#graph-div .composition{fill:#333333!important;stroke:#333333!important;stroke-width:1;}#graph-div #dependencyStart,#graph-div .dependency{fill:#333333!important;stroke:#333333!important;stroke-width:1;}#graph-div #dependencyStart,#graph-div .dependency{fill:#333333!important;stroke:#333333!important;stroke-width:1;}#graph-div #extensionStart,#graph-div .extension{fill:#333333!important;stroke:#333333!important;stroke-width:1;}#graph-div #extensionEnd,#graph-div .extension{fill:#333333!important;stroke:#333333!important;stroke-width:1;}#graph-div #aggregationStart,#graph-div .aggregation{fill:#ECECFF!important;stroke:#333333!important;stroke-width:1;}#graph-div #aggregationEnd,#graph-div .aggregation{fill:#ECECFF!important;stroke:#333333!important;stroke-width:1;}#graph-div .edgeTerminals{font-size:11px;}#graph-div :root{--mermaid-font-family:"trebuchet ms",verdana,arial,sans-serif;}</style><g></g><defs><marker id="extensionStart" class="extension" refX="0" refY="7" markerWidth="190" markerHeight="240" orient="auto"><path d="M 1,7 L18,13 V 1 Z"></path></marker></defs><defs><marker id="extensionEnd" refX="19" refY="7" markerWidth="20" markerHeight="28" orient="auto"><path d="M 1,1 V 13 L18,7 Z"></path></marker></defs><defs><marker id="compositionStart" class="extension" refX="0" refY="7" markerWidth="190" markerHeight="240" orient="auto"><path d="M 18,7 L9,13 L1,7 L9,1 Z"></path></marker></defs><defs><marker id="compositionEnd" refX="19" refY="7" markerWidth="20" markerHeight="28" orient="auto"><path d="M 18,7 L9,13 L1,7 L9,1 Z"></path></marker></defs><defs><marker id="aggregationStart" class="extension" refX="0" refY="7" markerWidth="190" markerHeight="240" orient="auto"><path d="M 18,7 L9,13 L1,7 L9,1 Z"></path></marker></defs><defs><marker id="aggregationEnd" refX="19" refY="7" markerWidth="20" markerHeight="28" orient="auto"><path d="M 18,7 L9,13 L1,7 L9,1 Z"></path></marker></defs><defs><marker id="dependencyStart" class="extension" refX="0" refY="7" markerWidth="190" markerHeight="240" orient="auto"><path d="M 5,7 L9,13 L1,7 L9,1 Z"></path></marker></defs><defs><marker id="dependencyEnd" refX="19" refY="7" markerWidth="20" markerHeight="28" orient="auto"><path d="M 18,7 L9,13 L14,7 L9,1 Z"></path></marker></defs><g id="classid-SchedulerLike-56" class="classGroup" transform="translate(237.48828125,0 )"><rect x="0" y="0" width="76.328125" height="31" class=" "></rect><text y="15" x="0"><tspan class="title" x="5">SchedulerLike</tspan></text><line x1="0" y1="21.5" y2="21.5" x2="76.328125"></line><text x="5" y="31.5" fill="white" class="classText"></text><line x1="0" y1="26.5" y2="26.5" x2="76.328125"></line><text x="5" y="41.5" fill="white" class="classText"></text></g><g id="classid-Scheduler-57" class="classGroup" transform="translate(247.35546875,81 )"><rect x="0" y="0" width="56.59375" height="31" class=" "></rect><text y="15" x="0"><tspan class="title" x="5">Scheduler</tspan></text><line x1="0" y1="21.5" y2="21.5" x2="56.59375"></line><text x="5" y="31.5" fill="white" class="classText"></text><line x1="0" y1="26.5" y2="26.5" x2="56.59375"></line><text x="5" y="41.5" fill="white" class="classText"></text></g><g id="classid-AsyncScheduler-58" class="classGroup" transform="translate(233.85546875,162 )"><rect x="0" y="0" width="83.59375" height="31.0625" class=" "></rect><text y="15" x="0"><tspan class="title" x="5">AsyncScheduler</tspan></text><line x1="0" y1="21.5625" y2="21.5625" x2="83.59375"></line><text x="5" y="31.5625" fill="white" class="classText"></text><line x1="0" y1="26.5625" y2="26.5625" x2="83.59375"></line><text x="5" y="41.5625" fill="white" class="classText"></text></g><g id="classid-AsapScheduler-59" class="classGroup" transform="translate(0,243.0625 )"><rect x="0" y="0" width="78.390625" height="31.0625" class=" "></rect><text y="15" x="0"><tspan class="title" x="5">AsapScheduler</tspan></text><line x1="0" y1="21.5625" y2="21.5625" x2="78.390625"></line><text x="5" y="31.5625" fill="white" class="classText"></text><line x1="0" y1="26.5625" y2="26.5625" x2="78.390625"></line><text x="5" y="41.5625" fill="white" class="classText"></text></g><g id="classid-AnimationFrameScheduler-60" class="classGroup" transform="translate(128.390625,243.09375 )"><rect x="0" y="0" width="134.015625" height="31" class=" "></rect><text y="15" x="0"><tspan class="title" x="5">AnimationFrameScheduler</tspan></text><line x1="0" y1="21.5" y2="21.5" x2="134.015625"></line><text x="5" y="31.5" fill="white" class="classText"></text><line x1="0" y1="26.5" y2="26.5" x2="134.015625"></line><text x="5" y="41.5" fill="white" class="classText"></text></g><g id="classid-QueueScheduler-61" class="classGroup" transform="translate(312.40625,243.09375 )"><rect x="0" y="0" width="87" height="31" class=" "></rect><text y="15" x="0"><tspan class="title" x="5">QueueScheduler</tspan></text><line x1="0" y1="21.5" y2="21.5" x2="87"></line><text x="5" y="31.5" fill="white" class="classText"></text><line x1="0" y1="26.5" y2="26.5" x2="87"></line><text x="5" y="41.5" fill="white" class="classText"></text></g><g id="classid-TestScheduler-62" class="classGroup" transform="translate(466.8671875,324.125 )"><rect x="0" y="0" width="76.734375" height="31" class=" "></rect><text y="15" x="0"><tspan class="title" x="5">TestScheduler</tspan></text><line x1="0" y1="21.5" y2="21.5" x2="76.734375"></line><text x="5" y="31.5" fill="white" class="classText"></text><line x1="0" y1="26.5" y2="26.5" x2="76.734375"></line><text x="5" y="41.5" fill="white" class="classText"></text></g><g id="classid-VirtualTimeScheduler-63" class="classGroup" transform="translate(449.40625,243.09375 )"><rect x="0" y="0" width="111.65625" height="31" class=" "></rect><text y="15" x="0"><tspan class="title" x="5">VirtualTimeScheduler</tspan></text><line x1="0" y1="21.5" y2="21.5" x2="111.65625"></line><text x="5" y="31.5" fill="white" class="classText"></text><line x1="0" y1="26.5" y2="26.5" x2="111.65625"></line><text x="5" y="41.5" fill="white" class="classText"></text></g><path d="M275.65234375,31L275.65234375,35.166666666666664C275.65234375,39.333333333333336,275.65234375,47.666666666666664,275.65234375,56C275.65234375,64.33333333333333,275.65234375,72.66666666666667,275.65234375,76.83333333333333L275.65234375,81" id="edge42" class="relation dashed-line" marker-start="url(#extensionStart)"></path><path d="M275.65234375,112L275.65234375,116.16666666666667C275.65234375,120.33333333333333,275.65234375,128.66666666666666,275.65234375,137C275.65234375,145.33333333333334,275.65234375,153.66666666666666,275.65234375,157.83333333333334L275.65234375,162" id="edge43" class="relation" marker-start="url(#extensionStart)"></path><path d="M233.85546875,184.69567890654685L201.412109375,190.2568157554557C168.96875,195.81795260436456,104.08203125,206.94022630218228,71.638671875,216.6680298177578C39.1953125,226.39583333333334,39.1953125,234.72916666666666,39.1953125,238.89583333333334L39.1953125,243.0625" id="edge44" class="relation" marker-start="url(#extensionStart)"></path><path d="M244.89969039128758,193.0625L236.649481576073,197.22916666666666C228.39927276085837,201.39583333333334,211.89885513042918,209.72916666666666,203.6486463152146,218.06770833333334C195.3984375,226.40625,195.3984375,234.75,195.3984375,238.921875L195.3984375,243.09375" id="edge45" class="relation" marker-start="url(#extensionStart)"></path><path d="M306.4049971087124,193.0625L314.655205923927,197.22916666666666C322.9054147391416,201.39583333333334,339.4058323695708,209.72916666666666,347.6560411847854,218.06770833333334C355.90625,226.40625,355.90625,234.75,355.90625,238.921875L355.90625,243.09375" id="edge46" class="relation" marker-start="url(#extensionStart)"></path><path d="M317.44921875,184.91022291273202L348.7467447916667,190.43560242727668C380.0442708333333,195.96098194182136,442.6393229166667,207.01174097091067,473.9368489583333,216.70899548545535C505.234375,226.40625,505.234375,234.75,505.234375,238.921875L505.234375,243.09375" id="edge47" class="relation" marker-start="url(#extensionStart)"></path><path d="M505.234375,274.09375L505.234375,278.265625C505.234375,282.4375,505.234375,290.78125,505.234375,299.1197916666667C505.234375,307.4583333333333,505.234375,315.7916666666667,505.234375,319.9583333333333L505.234375,324.125" id="edge48" class="relation" marker-start="url(#extensionStart)"></path></svg>