<?xml version="1.0" encoding="UTF-8"?>
<svg xmlns="http://www.w3.org/2000/svg" width="314" height="107" viewBox="0 0 314 107" fill="none">
    <path d="M31.7634 102.039C36.6141 102.039 40.5464 79.7067 40.5464 52.1589C40.5464 24.611 36.6141 2.27911 31.7634 2.27911C26.9128 2.27911 22.9805 24.611 22.9805 52.1589C22.9805 79.7067 26.9128 102.039 31.7634 102.039Z"
          fill="#FD393E"/>
    <path d="M20.6936 94.2428C23.7504 94.2428 26.2281 75.4003 26.2281 52.1567C26.2281 28.9132 23.7504 10.0707 20.6936 10.0707C17.637 10.0707 15.1592 28.9132 15.1592 52.1567C15.1592 75.4003 17.637 94.2428 20.6936 94.2428Z"
          fill="#FD393E"/>
    <path d="M13.7159 84.1737C16.0416 84.1737 17.927 69.8405 17.927 52.1595C17.927 34.4786 16.0416 20.1453 13.7159 20.1453C11.3902 20.1453 9.50488 34.4786 9.50488 52.1595C9.50488 69.8405 11.3902 84.1737 13.7159 84.1737Z"
          fill="#FD393E"/>
    <path d="M3.12825 76.2601C4.8559 76.2601 6.25642 65.4701 6.25642 52.1597C6.25642 38.8493 4.8559 28.059 3.12825 28.059C1.40059 28.059 0 38.8493 0 52.1597C0 65.4701 1.40059 76.2601 3.12825 76.2601Z"
          fill="#FD393E"/>
    <path d="M58.1122 2.27911C55.8261 14.9889 53.7806 26.1399 51.7354 38.37C52.4571 42.8064 53.2995 47.3626 54.1416 52.1589C53.2995 56.9549 52.5775 61.5113 51.7354 65.9477C53.7806 78.0579 55.8261 89.3288 58.1122 102.039C59.4356 94.9643 60.6387 88.3697 61.7215 81.775V22.6626C60.6387 16.068 59.4356 9.35341 58.1122 2.27911Z"
          fill="#FD393E"/>
    <path d="M51.7354 38.369C49.4493 25.4196 47.4041 13.4292 44.8775 0C41.6289 18.1054 38.8616 33.3331 35.7334 52.1579C38.8616 70.9828 41.6289 86.2105 44.8775 104.316C47.2837 90.7667 49.4493 78.8963 51.7354 65.9467C52.4572 61.5105 53.2996 56.9541 54.1417 52.1579C53.2996 47.3618 52.5776 42.8055 51.7354 38.369Z"
          fill="#FD393E"/>
    <path d="M66.8965 12.4677H77.7248V19.6619H78.0858C78.928 18.343 79.8906 17.2638 80.8531 16.1847C81.8155 15.1056 83.0187 14.2663 84.2218 13.4269C85.4251 12.7075 86.8689 12.108 88.5534 11.6284C90.1173 11.1488 92.0424 11.0289 94.0877 11.0289C97.2159 11.0289 100.224 11.7483 102.871 13.1871C105.638 14.6259 107.563 16.7842 108.646 19.6619C110.571 17.0241 112.857 14.8657 115.384 13.307C117.91 11.7483 121.159 11.0289 124.888 11.0289C130.423 11.0289 134.634 12.3478 137.762 14.9857C140.77 17.6235 142.334 22.1799 142.334 28.4148V64.1459H130.904V33.9303C130.904 31.8921 130.784 29.9735 130.664 28.2949C130.543 26.6162 130.182 25.1775 129.46 23.8586C128.859 22.6596 127.896 21.7002 126.573 20.9809C125.249 20.2614 123.565 20.0216 121.399 20.0216C117.549 20.0216 114.662 21.2207 112.977 23.6188C111.293 26.0168 110.33 29.3741 110.33 33.8104V64.1459H98.9004V30.813C98.9004 27.2158 98.2989 24.458 96.9755 22.6596C95.6518 20.861 93.2455 19.9017 89.7565 19.9017C88.3127 19.9017 86.8689 20.2614 85.4251 20.861C84.1017 21.4604 82.8983 22.2998 81.8155 23.4988C80.7327 24.5779 79.8906 26.0168 79.2889 27.6955C78.6875 29.3739 78.3265 31.2925 78.3265 33.4508V64.2658H66.8965V12.4677Z"
          fill="black"/>
    <path d="M153.283 41.366C153.283 43.4045 153.523 45.3228 154.125 47.1214C154.726 49.0399 155.569 50.5987 156.651 52.0375C157.734 53.4764 159.178 54.5555 160.983 55.3947C162.667 56.234 164.833 56.5937 167.239 56.5937C170.608 56.5937 173.255 55.8744 175.3 54.4356C177.346 52.9967 178.91 50.8383 179.872 47.9606H190.701C190.099 50.7184 189.016 53.2364 187.573 55.5146C186.129 57.6728 184.324 59.5913 182.278 61.0302C180.233 62.589 177.827 63.668 175.3 64.3876C172.774 65.1069 170.006 65.5866 167.239 65.5866C163.148 65.5866 159.539 64.8671 156.411 63.5481C153.283 62.2292 150.636 60.3107 148.47 57.9127C146.304 55.5146 144.62 52.6369 143.537 49.2796C142.454 45.9224 141.853 42.2055 141.853 38.2487C141.853 34.5315 142.454 31.0544 143.657 27.817C144.86 24.4596 146.545 21.5821 148.711 19.0641C150.876 16.5461 153.523 14.6276 156.651 13.0689C159.78 11.63 163.269 10.9106 167.119 10.9106C171.209 10.9106 174.819 11.7499 178.188 13.4286C181.436 15.1072 184.083 17.3854 186.249 20.1431C188.415 22.9008 189.979 26.1383 190.941 29.8554C191.904 33.4525 192.144 37.2893 191.663 41.1262H153.283V41.366ZM179.993 33.8122C179.872 32.0136 179.511 30.215 178.789 28.6562C178.188 26.9777 177.225 25.5387 176.143 24.3397C175.06 23.1407 173.736 22.0616 172.172 21.3423C170.608 20.6228 168.803 20.1431 166.878 20.1431C164.833 20.1431 163.028 20.5028 161.344 21.2224C159.659 21.9417 158.336 22.9008 157.133 24.0998C155.929 25.2991 154.967 26.7379 154.366 28.4166C153.644 30.0951 153.283 31.8937 153.162 33.8122H179.993Z"
          fill="black"/>
    <path d="M190.22 12.47H200.928V22.5418H201.168C201.529 21.103 202.131 19.7841 203.093 18.4652C204.055 17.1463 205.259 15.9472 206.583 14.7482C207.906 13.669 209.47 12.7098 211.156 12.1103C212.839 11.3908 214.523 11.1511 216.328 11.1511C217.652 11.1511 218.615 11.1511 219.095 11.271C219.577 11.3909 220.057 11.3908 220.659 11.5107V22.5418C219.818 22.4219 218.975 22.302 218.254 22.1821C217.411 22.0624 216.569 22.0624 215.847 22.0624C213.923 22.0624 212.118 22.4219 210.313 23.2614C208.627 23.9807 207.064 25.1797 205.86 26.6185C204.537 28.1773 203.575 29.9759 202.854 32.1341C202.131 34.2925 201.77 36.9303 201.77 39.808V64.508H190.34L190.22 12.47Z"
          fill="black"/>
    <path d="M263.612 61.5097C263.612 69.3035 261.446 75.1788 256.996 79.0157C252.543 82.8525 246.287 84.771 237.986 84.771C235.338 84.771 232.692 84.5312 230.044 83.9316C227.397 83.4521 224.992 82.4928 222.824 81.1738C220.659 79.8549 218.856 78.1764 217.292 76.138C215.848 74.0995 214.885 71.5816 214.644 68.4641H226.074C226.434 70.0228 227.036 71.3419 227.759 72.421C228.6 73.3802 229.562 74.2196 230.646 74.819C231.728 75.4186 232.931 75.7782 234.376 75.8981C235.698 76.018 237.143 76.138 238.587 76.138C243.16 76.138 246.648 75.0589 248.694 72.7806C250.86 70.5025 251.941 67.265 251.941 62.9487V55.035H251.7C250.136 57.9126 247.851 60.1909 245.084 61.7495C242.317 63.3083 239.308 64.1477 236.061 64.1477C231.849 64.1477 228.359 63.4282 225.472 61.9893C222.585 60.5505 220.179 58.6322 218.254 56.114C216.328 53.5961 215.005 50.7184 214.043 47.4812C213.2 44.2437 212.72 40.6467 212.72 36.9295C212.72 33.4524 213.2 30.0951 214.284 26.9777C215.365 23.8602 216.929 21.1024 218.856 18.7043C220.9 16.3062 223.307 14.3878 226.193 13.0689C229.082 11.63 232.451 10.9106 236.061 10.9106C239.308 10.9106 242.317 11.63 245.084 12.949C247.851 14.2679 249.897 16.4262 251.461 19.4237H251.7V12.3494H263.132V61.5097H263.612ZM238.105 55.2748C240.631 55.2748 242.797 54.7951 244.602 53.716C246.407 52.6369 247.851 51.318 248.933 49.6393C250.017 47.9606 250.86 46.0423 251.34 43.8839C251.822 41.7258 252.063 39.5674 252.063 37.2893C252.063 35.0112 251.822 32.9728 251.22 30.9345C250.738 28.8961 249.897 26.9777 248.814 25.419C247.732 23.8602 246.287 22.5413 244.482 21.5819C242.677 20.6227 240.631 20.1431 238.105 20.1431C235.579 20.1431 233.413 20.6227 231.728 21.7018C230.044 22.7809 228.6 24.0998 227.518 25.8985C226.434 27.5771 225.713 29.4957 225.231 31.6538C224.751 33.8122 224.51 35.9704 224.51 38.1286C224.51 40.2869 224.751 42.3252 225.353 44.3636C225.833 46.4019 226.676 48.2005 227.759 49.8792C228.841 51.4379 230.286 52.7569 231.969 53.8359C233.654 54.915 235.698 55.2748 238.105 55.2748Z"
          fill="black"/>
    <path d="M274.079 41.366C274.079 43.4045 274.32 45.3228 274.922 47.1214C275.523 49.0399 276.364 50.5987 277.448 52.0375C278.53 53.4764 279.974 54.5555 281.779 55.3947C283.465 56.234 285.63 56.5937 288.035 56.5937C291.404 56.5937 294.051 55.8744 296.097 54.4356C298.142 52.9967 299.705 50.8383 300.67 47.9606H311.498C310.896 50.7184 309.812 53.2364 308.37 55.5146C306.925 57.6728 305.12 59.5913 303.074 61.0302C301.03 62.589 298.624 63.668 296.097 64.3876C293.569 65.1069 290.802 65.5866 288.035 65.5866C283.945 65.5866 280.335 64.8671 277.207 63.5481C274.079 62.2292 271.431 60.3107 269.266 57.9127C267.1 55.5146 265.417 52.6369 264.333 49.2796C263.251 45.9224 262.649 42.2055 262.649 38.2487C262.649 34.5315 263.251 31.0544 264.454 27.817C265.658 24.4596 267.341 21.5821 269.507 19.0641C271.672 16.5461 274.32 14.6276 277.448 13.0689C280.576 11.63 284.066 10.9106 287.915 10.9106C292.005 10.9106 295.615 11.7499 298.984 13.4286C302.234 15.1072 304.879 17.3854 307.045 20.1431C309.211 22.9008 310.774 26.1383 311.737 29.8554C312.701 33.4525 312.94 37.2893 312.46 41.1262H274.079V41.366ZM300.789 33.8122C300.668 32.0136 300.307 30.215 299.586 28.6562C298.984 26.9777 298.022 25.5387 296.938 24.3397C295.856 23.1407 294.534 22.0616 292.968 21.3423C291.404 20.6228 289.599 20.1431 287.674 20.1431C285.63 20.1431 283.825 20.5028 282.14 21.2224C280.456 21.9417 279.131 22.9008 277.93 24.0998C276.727 25.2991 275.764 26.7379 275.163 28.4166C274.44 30.0951 274.079 31.8937 273.96 33.8122H300.789Z"
          fill="black"/>
    <path d="M67.569 75.1H72.584C73.842 75.1 74.9583 75.3493 75.933 75.848C76.9076 76.3467 77.6613 77.0493 78.194 77.956C78.738 78.8513 79.01 79.8827 79.01 81.05C79.01 82.2173 78.738 83.2543 78.194 84.161C77.6613 85.0563 76.9076 85.7533 75.933 86.252C74.9583 86.7507 73.842 87 72.584 87H67.569V75.1ZM72.482 85.521C73.4453 85.521 74.2896 85.334 75.015 84.96C75.7516 84.586 76.3183 84.0647 76.715 83.396C77.1116 82.716 77.31 81.934 77.31 81.05C77.31 80.166 77.1116 79.3897 76.715 78.721C76.3183 78.041 75.7516 77.514 75.015 77.14C74.2896 76.766 73.4453 76.579 72.482 76.579H69.269V85.521H72.482ZM89.6549 85.521V87H81.0189V75.1H89.4169V76.579H82.7189V80.234H88.6859V81.679H82.7189V85.521H89.6549ZM101.983 75.1L96.7636 87H95.0806L89.8446 75.1H91.6806L95.9646 84.875L100.283 75.1H101.983ZM111.541 85.521V87H102.905V75.1H111.303V76.579H104.605V80.234H110.572V81.679H104.605V85.521H111.541ZM113.699 75.1H115.399V85.521H121.842V87H113.699V75.1ZM128.354 87.136C127.152 87.136 126.07 86.8753 125.107 86.354C124.143 85.8213 123.384 85.0903 122.829 84.161C122.285 83.2317 122.013 82.1947 122.013 81.05C122.013 79.9053 122.285 78.8683 122.829 77.939C123.384 77.0097 124.143 76.2843 125.107 75.763C126.07 75.2303 127.152 74.964 128.354 74.964C129.544 74.964 130.62 75.2303 131.584 75.763C132.547 76.2843 133.301 77.0097 133.845 77.939C134.389 78.857 134.661 79.894 134.661 81.05C134.661 82.206 134.389 83.2487 133.845 84.178C133.301 85.096 132.547 85.8213 131.584 86.354C130.62 86.8753 129.544 87.136 128.354 87.136ZM128.354 85.623C129.226 85.623 130.008 85.4247 130.7 85.028C131.402 84.6313 131.952 84.0873 132.349 83.396C132.757 82.6933 132.961 81.9113 132.961 81.05C132.961 80.1887 132.757 79.4123 132.349 78.721C131.952 78.0183 131.402 77.4687 130.7 77.072C130.008 76.6753 129.226 76.477 128.354 76.477C127.481 76.477 126.688 76.6753 125.974 77.072C125.271 77.4687 124.716 78.0183 124.308 78.721C123.911 79.4123 123.713 80.1887 123.713 81.05C123.713 81.9113 123.911 82.6933 124.308 83.396C124.716 84.0873 125.271 84.6313 125.974 85.028C126.688 85.4247 127.481 85.623 128.354 85.623ZM141.305 75.1C142.846 75.1 144.059 75.4683 144.943 76.205C145.827 76.9417 146.269 77.956 146.269 79.248C146.269 80.54 145.827 81.5543 144.943 82.291C144.059 83.0277 142.846 83.396 141.305 83.396H138.364V87H136.664V75.1H141.305ZM141.254 81.917C142.331 81.917 143.152 81.6903 143.719 81.237C144.286 80.7723 144.569 80.1093 144.569 79.248C144.569 78.3867 144.286 77.7293 143.719 77.276C143.152 76.8113 142.331 76.579 141.254 76.579H138.364V81.917H141.254ZM159.205 87L159.188 78.33L154.887 85.555H154.105L149.804 78.381V87H148.172V75.1H149.566L154.53 83.464L159.426 75.1H160.82L160.837 87H159.205ZM172.449 85.521V87H163.813V75.1H172.211V76.579H165.513V80.234H171.48V81.679H165.513V85.521H172.449ZM184.841 75.1V87H183.447L176.307 78.126V87H174.607V75.1H176.001L183.141 83.974V75.1H184.841ZM190.17 76.579H186.09V75.1H195.933V76.579H191.853V87H190.17V76.579Z"
          fill="black"/>
</svg>
