<svg width="401" height="68" viewBox="0 0 401 68" fill="none" xmlns="http://www.w3.org/2000/svg">
<line y1="47" x2="374" y2="47" stroke="black" stroke-width="4"/>
<path d="M371.423 32.75L394.673 46.1734L371.423 59.5968L371.423 32.75Z" fill="black"/>
<circle cx="48" cy="46" r="11.5" fill="#4850FF" stroke="#06BCF5" stroke-width="3"/>
<circle cx="152" cy="46" r="11.5" fill="#4850FF" stroke="#06BCF5" stroke-width="3"/>
<circle cx="267" cy="46" r="11.5" fill="#4850FF" stroke="#06BCF5" stroke-width="3"/>
<path d="M33.4072 21H31.7725V10.1631L28.4941 11.3672V9.89062L33.1523 8.1416H33.4072V21ZM46.5557 21H38.1709V19.8311L42.6006 14.9092C43.2568 14.165 43.708 13.5615 43.9541 13.0986C44.2061 12.6299 44.332 12.1465 44.332 11.6484C44.332 10.9805 44.1299 10.4326 43.7256 10.0049C43.3213 9.57715 42.7822 9.36328 42.1084 9.36328C41.2998 9.36328 40.6699 9.59473 40.2188 10.0576C39.7734 10.5146 39.5508 11.1533 39.5508 11.9736H37.9248C37.9248 10.7959 38.3027 9.84375 39.0586 9.11719C39.8203 8.39062 40.8369 8.02734 42.1084 8.02734C43.2979 8.02734 44.2383 8.34082 44.9297 8.96777C45.6211 9.58887 45.9668 10.418 45.9668 11.4551C45.9668 12.7148 45.1641 14.2148 43.5586 15.9551L40.1309 19.6729H46.5557V21ZM56.3027 15.542C56.3027 17.4463 55.9775 18.8613 55.3271 19.7871C54.6768 20.7129 53.6602 21.1758 52.2773 21.1758C50.9121 21.1758 49.9014 20.7246 49.2451 19.8223C48.5889 18.9141 48.249 17.5605 48.2256 15.7617V13.5908C48.2256 11.71 48.5508 10.3125 49.2012 9.39844C49.8516 8.48438 50.8711 8.02734 52.2598 8.02734C53.6367 8.02734 54.6504 8.46973 55.3008 9.35449C55.9512 10.2334 56.2852 11.5928 56.3027 13.4326V15.542ZM54.6768 13.3184C54.6768 11.9414 54.4834 10.9395 54.0967 10.3125C53.71 9.67969 53.0977 9.36328 52.2598 9.36328C51.4277 9.36328 50.8213 9.67676 50.4404 10.3037C50.0596 10.9307 49.8633 11.8945 49.8516 13.1953V15.7969C49.8516 17.1797 50.0508 18.2021 50.4492 18.8643C50.8535 19.5205 51.4629 19.8486 52.2773 19.8486C53.0801 19.8486 53.6748 19.5381 54.0615 18.917C54.4541 18.2959 54.6592 17.3174 54.6768 15.9814V13.3184ZM66.4102 15.542C66.4102 17.4463 66.085 18.8613 65.4346 19.7871C64.7842 20.7129 63.7676 21.1758 62.3848 21.1758C61.0195 21.1758 60.0088 20.7246 59.3525 19.8223C58.6963 18.9141 58.3564 17.5605 58.333 15.7617V13.5908C58.333 11.71 58.6582 10.3125 59.3086 9.39844C59.959 8.48438 60.9785 8.02734 62.3672 8.02734C63.7441 8.02734 64.7578 8.46973 65.4082 9.35449C66.0586 10.2334 66.3926 11.5928 66.4102 13.4326V15.542ZM64.7842 13.3184C64.7842 11.9414 64.5908 10.9395 64.2041 10.3125C63.8174 9.67969 63.2051 9.36328 62.3672 9.36328C61.5352 9.36328 60.9287 9.67676 60.5479 10.3037C60.167 10.9307 59.9707 11.8945 59.959 13.1953V15.7969C59.959 17.1797 60.1582 18.2021 60.5566 18.8643C60.9609 19.5205 61.5703 19.8486 62.3848 19.8486C63.1875 19.8486 63.7822 19.5381 64.1689 18.917C64.5615 18.2959 64.7666 17.3174 64.7842 15.9814V13.3184ZM74.1445 18.583H71.2002V21H69.5215V18.583H67.7021V17.1943H69.5215V15.9902H67.7021V14.6104H69.5215V8.20312H74.2412C75.6123 8.20312 76.6992 8.55176 77.502 9.24902C78.3047 9.94629 78.7061 10.8896 78.7061 12.0791C78.7061 13.3271 78.3193 14.291 77.5459 14.9707C76.7783 15.6445 75.6855 15.9844 74.2676 15.9902H71.2002V17.1943H74.1445V18.583ZM71.2002 14.6104H74.2412C75.1494 14.6104 75.8408 14.3965 76.3154 13.9688C76.79 13.541 77.0273 12.917 77.0273 12.0967C77.0273 11.3525 76.7812 10.752 76.2891 10.2949C75.7969 9.83203 75.1318 9.59766 74.2939 9.5918H71.2002V14.6104Z" fill="black"/>
<path d="M131.407 21H129.772V10.1631L126.494 11.3672V9.89062L131.152 8.1416H131.407V21ZM136.918 14.584L137.568 8.20312H144.125V9.70605H138.948L138.562 13.1953C139.188 12.8262 139.9 12.6416 140.697 12.6416C141.863 12.6416 142.789 13.0283 143.475 13.8018C144.16 14.5693 144.503 15.6094 144.503 16.9219C144.503 18.2402 144.146 19.2803 143.431 20.042C142.722 20.7979 141.729 21.1758 140.451 21.1758C139.32 21.1758 138.397 20.8623 137.683 20.2354C136.968 19.6084 136.561 18.7412 136.461 17.6338H137.999C138.099 18.3662 138.359 18.9199 138.781 19.2949C139.203 19.6641 139.76 19.8486 140.451 19.8486C141.207 19.8486 141.799 19.5908 142.227 19.0752C142.66 18.5596 142.877 17.8477 142.877 16.9395C142.877 16.084 142.643 15.3984 142.174 14.8828C141.711 14.3613 141.093 14.1006 140.319 14.1006C139.61 14.1006 139.054 14.2559 138.649 14.5664L138.219 14.918L136.918 14.584ZM154.663 21H146.278V19.8311L150.708 14.9092C151.364 14.165 151.815 13.5615 152.062 13.0986C152.313 12.6299 152.439 12.1465 152.439 11.6484C152.439 10.9805 152.237 10.4326 151.833 10.0049C151.429 9.57715 150.89 9.36328 150.216 9.36328C149.407 9.36328 148.777 9.59473 148.326 10.0576C147.881 10.5146 147.658 11.1533 147.658 11.9736H146.032C146.032 10.7959 146.41 9.84375 147.166 9.11719C147.928 8.39062 148.944 8.02734 150.216 8.02734C151.405 8.02734 152.346 8.34082 153.037 8.96777C153.729 9.58887 154.074 10.418 154.074 11.4551C154.074 12.7148 153.271 14.2148 151.666 15.9551L148.238 19.6729H154.663V21ZM164.41 15.542C164.41 17.4463 164.085 18.8613 163.435 19.7871C162.784 20.7129 161.768 21.1758 160.385 21.1758C159.02 21.1758 158.009 20.7246 157.353 19.8223C156.696 18.9141 156.356 17.5605 156.333 15.7617V13.5908C156.333 11.71 156.658 10.3125 157.309 9.39844C157.959 8.48438 158.979 8.02734 160.367 8.02734C161.744 8.02734 162.758 8.46973 163.408 9.35449C164.059 10.2334 164.393 11.5928 164.41 13.4326V15.542ZM162.784 13.3184C162.784 11.9414 162.591 10.9395 162.204 10.3125C161.817 9.67969 161.205 9.36328 160.367 9.36328C159.535 9.36328 158.929 9.67676 158.548 10.3037C158.167 10.9307 157.971 11.8945 157.959 13.1953V15.7969C157.959 17.1797 158.158 18.2021 158.557 18.8643C158.961 19.5205 159.57 19.8486 160.385 19.8486C161.188 19.8486 161.782 19.5381 162.169 18.917C162.562 18.2959 162.767 17.3174 162.784 15.9814V13.3184ZM172.145 18.583H169.2V21H167.521V18.583H165.702V17.1943H167.521V15.9902H165.702V14.6104H167.521V8.20312H172.241C173.612 8.20312 174.699 8.55176 175.502 9.24902C176.305 9.94629 176.706 10.8896 176.706 12.0791C176.706 13.3271 176.319 14.291 175.546 14.9707C174.778 15.6445 173.686 15.9844 172.268 15.9902H169.2V17.1943H172.145V18.583ZM169.2 14.6104H172.241C173.149 14.6104 173.841 14.3965 174.315 13.9688C174.79 13.541 175.027 12.917 175.027 12.0967C175.027 11.3525 174.781 10.752 174.289 10.2949C173.797 9.83203 173.132 9.59766 172.294 9.5918H169.2V14.6104Z" fill="black"/>
<path d="M246.407 17H244.772V6.16309L241.494 7.36719V5.89062L246.152 4.1416H246.407V17ZM258.932 7.54297C258.932 8.18164 258.762 8.75 258.422 9.24805C258.088 9.74609 257.634 10.1357 257.06 10.417C257.728 10.7041 258.255 11.123 258.642 11.6738C259.034 12.2246 259.23 12.8486 259.23 13.5459C259.23 14.6533 258.855 15.5352 258.105 16.1914C257.361 16.8477 256.38 17.1758 255.161 17.1758C253.931 17.1758 252.943 16.8477 252.199 16.1914C251.461 15.5293 251.092 14.6475 251.092 13.5459C251.092 12.8545 251.279 12.2305 251.654 11.6738C252.035 11.1172 252.56 10.6953 253.228 10.4082C252.659 10.127 252.211 9.7373 251.883 9.23926C251.555 8.74121 251.391 8.17578 251.391 7.54297C251.391 6.46484 251.736 5.60938 252.428 4.97656C253.119 4.34375 254.03 4.02734 255.161 4.02734C256.286 4.02734 257.194 4.34375 257.886 4.97656C258.583 5.60938 258.932 6.46484 258.932 7.54297ZM257.604 13.5107C257.604 12.7959 257.376 12.2129 256.919 11.7617C256.468 11.3105 255.876 11.085 255.144 11.085C254.411 11.085 253.822 11.3076 253.377 11.7529C252.938 12.1982 252.718 12.7842 252.718 13.5107C252.718 14.2373 252.932 14.8086 253.359 15.2246C253.793 15.6406 254.394 15.8486 255.161 15.8486C255.923 15.8486 256.521 15.6406 256.954 15.2246C257.388 14.8027 257.604 14.2314 257.604 13.5107ZM255.161 5.36328C254.522 5.36328 254.004 5.5625 253.605 5.96094C253.213 6.35352 253.017 6.88965 253.017 7.56934C253.017 8.21973 253.21 8.74707 253.597 9.15137C253.989 9.5498 254.511 9.74902 255.161 9.74902C255.812 9.74902 256.33 9.5498 256.717 9.15137C257.109 8.74707 257.306 8.21973 257.306 7.56934C257.306 6.91895 257.104 6.38867 256.699 5.97852C256.295 5.56836 255.782 5.36328 255.161 5.36328ZM262.025 10.584L262.676 4.20312H269.232V5.70605H264.056L263.669 9.19531C264.296 8.82617 265.008 8.6416 265.805 8.6416C266.971 8.6416 267.896 9.02832 268.582 9.80176C269.268 10.5693 269.61 11.6094 269.61 12.9219C269.61 14.2402 269.253 15.2803 268.538 16.042C267.829 16.7979 266.836 17.1758 265.559 17.1758C264.428 17.1758 263.505 16.8623 262.79 16.2354C262.075 15.6084 261.668 14.7412 261.568 13.6338H263.106C263.206 14.3662 263.467 14.9199 263.889 15.2949C264.311 15.6641 264.867 15.8486 265.559 15.8486C266.314 15.8486 266.906 15.5908 267.334 15.0752C267.768 14.5596 267.984 13.8477 267.984 12.9395C267.984 12.084 267.75 11.3984 267.281 10.8828C266.818 10.3613 266.2 10.1006 265.427 10.1006C264.718 10.1006 264.161 10.2559 263.757 10.5664L263.326 10.918L262.025 10.584ZM279.41 11.542C279.41 13.4463 279.085 14.8613 278.435 15.7871C277.784 16.7129 276.768 17.1758 275.385 17.1758C274.02 17.1758 273.009 16.7246 272.353 15.8223C271.696 14.9141 271.356 13.5605 271.333 11.7617V9.59082C271.333 7.70996 271.658 6.3125 272.309 5.39844C272.959 4.48438 273.979 4.02734 275.367 4.02734C276.744 4.02734 277.758 4.46973 278.408 5.35449C279.059 6.2334 279.393 7.59277 279.41 9.43262V11.542ZM277.784 9.31836C277.784 7.94141 277.591 6.93945 277.204 6.3125C276.817 5.67969 276.205 5.36328 275.367 5.36328C274.535 5.36328 273.929 5.67676 273.548 6.30371C273.167 6.93066 272.971 7.89453 272.959 9.19531V11.7969C272.959 13.1797 273.158 14.2021 273.557 14.8643C273.961 15.5205 274.57 15.8486 275.385 15.8486C276.188 15.8486 276.782 15.5381 277.169 14.917C277.562 14.2959 277.767 13.3174 277.784 11.9814V9.31836ZM287.145 14.583H284.2V17H282.521V14.583H280.702V13.1943H282.521V11.9902H280.702V10.6104H282.521V4.20312H287.241C288.612 4.20312 289.699 4.55176 290.502 5.24902C291.305 5.94629 291.706 6.88965 291.706 8.0791C291.706 9.32715 291.319 10.291 290.546 10.9707C289.778 11.6445 288.686 11.9844 287.268 11.9902H284.2V13.1943H287.145V14.583ZM284.2 10.6104H287.241C288.149 10.6104 288.841 10.3965 289.315 9.96875C289.79 9.54102 290.027 8.91699 290.027 8.09668C290.027 7.35254 289.781 6.75195 289.289 6.29492C288.797 5.83203 288.132 5.59766 287.294 5.5918H284.2V10.6104Z" fill="black"/>
</svg>
