<svg width="110" height="217" viewBox="0 0 110 217" fill="none" xmlns="http://www.w3.org/2000/svg">
<rect y="90" width="106" height="37" fill="#4850FF"/>
<path d="M18.6484 108.349V106.969H13.3223V102.592H19.5361V101.203H11.6787V114H13.3223V108.349H18.6484ZM28.6064 114H30.083V104.49H28.4482V111.311C28.3604 111.516 28.249 111.706 28.1143 111.882C27.9854 112.052 27.833 112.198 27.6572 112.321C27.4463 112.474 27.1973 112.594 26.9102 112.682C26.623 112.764 26.2979 112.805 25.9346 112.805C25.624 112.805 25.3486 112.764 25.1084 112.682C24.874 112.6 24.6748 112.456 24.5107 112.251C24.3467 112.052 24.2236 111.782 24.1416 111.442C24.0596 111.103 24.0186 110.675 24.0186 110.159V104.49H22.3926V110.142C22.3926 110.851 22.4688 111.46 22.6211 111.97C22.7793 112.474 23.002 112.89 23.2891 113.218C23.5762 113.546 23.9219 113.789 24.3262 113.947C24.7305 114.1 25.1816 114.176 25.6797 114.176C26.3008 114.176 26.8486 114.047 27.3232 113.789C27.7979 113.525 28.1934 113.159 28.5098 112.69L28.6064 114ZM33.1504 114H34.7764V107.18C34.8877 106.975 35.0166 106.787 35.1631 106.617C35.3154 106.447 35.4795 106.298 35.6553 106.169C35.8721 106.022 36.1094 105.908 36.3672 105.826C36.625 105.738 36.9033 105.694 37.2021 105.694C37.5479 105.694 37.8525 105.735 38.1162 105.817C38.3857 105.899 38.6143 106.031 38.8018 106.213C38.9834 106.395 39.1211 106.632 39.2148 106.925C39.3086 107.218 39.3555 107.575 39.3555 107.997V114H40.9814V107.962C40.9814 107.329 40.9023 106.784 40.7441 106.327C40.5918 105.864 40.3721 105.483 40.085 105.185C39.7979 104.886 39.4492 104.666 39.0391 104.525C38.6348 104.385 38.1836 104.314 37.6855 104.314C37.3164 104.32 36.9648 104.376 36.6309 104.481C36.3027 104.581 35.998 104.725 35.7168 104.912C35.5293 105.035 35.3506 105.182 35.1807 105.352C35.0166 105.516 34.8643 105.697 34.7236 105.896L34.6094 104.49H33.1504V114ZM48.0127 112.857C47.5029 112.857 47.0752 112.758 46.7295 112.559C46.3896 112.354 46.1172 112.087 45.9121 111.759C45.7012 111.437 45.5488 111.073 45.4551 110.669C45.3672 110.259 45.3232 109.846 45.3232 109.43V109.061C45.3232 108.65 45.3672 108.243 45.4551 107.839C45.5488 107.435 45.7012 107.068 45.9121 106.74C46.123 106.418 46.3984 106.157 46.7383 105.958C47.084 105.753 47.5088 105.65 48.0127 105.65C48.3408 105.65 48.6455 105.706 48.9268 105.817C49.2139 105.929 49.46 106.081 49.665 106.274C49.8701 106.468 50.0312 106.693 50.1484 106.951C50.2715 107.203 50.3359 107.473 50.3418 107.76H51.8799C51.8799 107.279 51.7832 106.828 51.5898 106.406C51.3965 105.984 51.1299 105.618 50.79 105.308C50.4443 105.003 50.0342 104.763 49.5596 104.587C49.0908 104.405 48.5752 104.314 48.0127 104.314C47.292 104.314 46.6621 104.443 46.123 104.701C45.584 104.959 45.1357 105.305 44.7783 105.738C44.415 106.178 44.1426 106.685 43.9609 107.259C43.7793 107.833 43.6885 108.434 43.6885 109.061V109.43C43.6885 110.062 43.7793 110.666 43.9609 111.24C44.1426 111.809 44.415 112.31 44.7783 112.743C45.1357 113.183 45.584 113.531 46.123 113.789C46.6621 114.047 47.292 114.176 48.0127 114.176C48.5166 114.176 49 114.091 49.4629 113.921C49.9258 113.745 50.3359 113.511 50.6934 113.218C51.0508 112.931 51.335 112.597 51.5459 112.216C51.7627 111.829 51.874 111.425 51.8799 111.003H50.3418C50.3359 111.267 50.2656 111.513 50.1309 111.741C50.002 111.964 49.8291 112.157 49.6123 112.321C49.3955 112.491 49.1465 112.623 48.8652 112.717C48.5898 112.811 48.3057 112.857 48.0127 112.857ZM58.6211 102.188H56.9863V104.49H54.4902V105.747H56.9863V110.915C56.9863 111.501 57.0625 112.002 57.2148 112.418C57.373 112.828 57.5869 113.162 57.8564 113.42C58.126 113.684 58.4424 113.877 58.8057 114C59.1748 114.117 59.5703 114.176 59.9922 114.176C60.2441 114.176 60.4961 114.164 60.748 114.141C61.0059 114.117 61.249 114.082 61.4775 114.035C61.7061 113.994 61.917 113.944 62.1104 113.886C62.3037 113.821 62.4678 113.748 62.6025 113.666L62.374 112.515C62.2744 112.538 62.1455 112.567 61.9873 112.603C61.835 112.632 61.6709 112.661 61.4951 112.69C61.3135 112.72 61.1289 112.746 60.9414 112.77C60.7539 112.787 60.5723 112.796 60.3965 112.796C60.1562 112.796 59.9277 112.767 59.7109 112.708C59.5 112.649 59.3125 112.547 59.1484 112.4C58.9844 112.26 58.8555 112.069 58.7617 111.829C58.668 111.589 58.6211 111.284 58.6211 110.915V105.747H62.2422V104.49H58.6211V102.188ZM65.8369 104.49V105.905H69.0713V112.594H65.8369V114H73.7998V112.594H70.6973V104.49H65.8369ZM68.8604 101.994C68.8604 102.258 68.9395 102.478 69.0977 102.653C69.2617 102.829 69.5078 102.917 69.8359 102.917C70.1582 102.917 70.4014 102.829 70.5654 102.653C70.7295 102.478 70.8115 102.258 70.8115 101.994C70.8115 101.848 70.7881 101.713 70.7412 101.59C70.6943 101.467 70.624 101.364 70.5303 101.282C70.4541 101.206 70.3574 101.147 70.2402 101.106C70.123 101.06 69.9883 101.036 69.8359 101.036C69.6836 101.036 69.5459 101.06 69.4229 101.106C69.3057 101.147 69.209 101.206 69.1328 101.282C69.0391 101.37 68.9688 101.476 68.9219 101.599C68.8809 101.722 68.8604 101.854 68.8604 101.994ZM75.9355 109.157V109.351C75.9355 110.036 76.0352 110.672 76.2344 111.258C76.4336 111.844 76.7207 112.354 77.0957 112.787C77.4648 113.221 77.916 113.561 78.4492 113.807C78.9883 114.053 79.5947 114.176 80.2686 114.176C80.9365 114.176 81.5371 114.053 82.0703 113.807C82.6035 113.561 83.0576 113.221 83.4326 112.787C83.8018 112.354 84.0859 111.844 84.2852 111.258C84.4844 110.672 84.584 110.036 84.584 109.351V109.157C84.584 108.472 84.4844 107.836 84.2852 107.25C84.0859 106.658 83.8018 106.146 83.4326 105.712C83.0576 105.278 82.6006 104.938 82.0615 104.692C81.5283 104.44 80.9248 104.314 80.251 104.314C79.583 104.314 78.9824 104.44 78.4492 104.692C77.916 104.938 77.4648 105.278 77.0957 105.712C76.7207 106.146 76.4336 106.658 76.2344 107.25C76.0352 107.836 75.9355 108.472 75.9355 109.157ZM77.5615 109.351V109.157C77.5615 108.694 77.6172 108.252 77.7285 107.83C77.8398 107.402 78.0098 107.027 78.2383 106.705C78.4609 106.383 78.7393 106.128 79.0732 105.94C79.4072 105.747 79.7998 105.65 80.251 105.65C80.7021 105.65 81.0947 105.747 81.4287 105.94C81.7686 106.128 82.0527 106.383 82.2812 106.705C82.5039 107.027 82.6709 107.402 82.7822 107.83C82.8994 108.252 82.958 108.694 82.958 109.157V109.351C82.958 109.819 82.9023 110.268 82.791 110.695C82.6797 111.117 82.5127 111.489 82.29 111.812C82.0615 112.134 81.7773 112.389 81.4375 112.576C81.1035 112.764 80.7139 112.857 80.2686 112.857C79.8174 112.857 79.4219 112.764 79.082 112.576C78.7422 112.389 78.4609 112.134 78.2383 111.812C78.0098 111.489 77.8398 111.117 77.7285 110.695C77.6172 110.268 77.5615 109.819 77.5615 109.351ZM87.2031 114H88.8291V107.18C88.9404 106.975 89.0693 106.787 89.2158 106.617C89.3682 106.447 89.5322 106.298 89.708 106.169C89.9248 106.022 90.1621 105.908 90.4199 105.826C90.6777 105.738 90.9561 105.694 91.2549 105.694C91.6006 105.694 91.9053 105.735 92.1689 105.817C92.4385 105.899 92.667 106.031 92.8545 106.213C93.0361 106.395 93.1738 106.632 93.2676 106.925C93.3613 107.218 93.4082 107.575 93.4082 107.997V114H95.0342V107.962C95.0342 107.329 94.9551 106.784 94.7969 106.327C94.6445 105.864 94.4248 105.483 94.1377 105.185C93.8506 104.886 93.502 104.666 93.0918 104.525C92.6875 104.385 92.2363 104.314 91.7383 104.314C91.3691 104.32 91.0176 104.376 90.6836 104.481C90.3555 104.581 90.0508 104.725 89.7695 104.912C89.582 105.035 89.4033 105.182 89.2334 105.352C89.0693 105.516 88.917 105.697 88.7764 105.896L88.6621 104.49H87.2031V114Z" fill="white"/>
<path d="M34.2588 17H32.5625V5.5918H26.252V17H24.5645V4.20312H34.2588V17ZM36.6494 12.1572C36.6494 11.2256 36.8311 10.3877 37.1943 9.64355C37.5635 8.89941 38.0732 8.3252 38.7236 7.9209C39.3799 7.5166 40.127 7.31445 40.9648 7.31445C42.2598 7.31445 43.3057 7.7627 44.1025 8.65918C44.9053 9.55566 45.3066 10.748 45.3066 12.2363V12.3506C45.3066 13.2764 45.1279 14.1084 44.7705 14.8467C44.4189 15.5791 43.9121 16.1504 43.25 16.5605C42.5938 16.9707 41.8379 17.1758 40.9824 17.1758C39.6934 17.1758 38.6475 16.7275 37.8447 15.8311C37.0479 14.9346 36.6494 13.748 36.6494 12.2715V12.1572ZM38.2842 12.3506C38.2842 13.4053 38.5273 14.252 39.0137 14.8906C39.5059 15.5293 40.1621 15.8486 40.9824 15.8486C41.8086 15.8486 42.4648 15.5264 42.9512 14.8818C43.4375 14.2314 43.6807 13.3232 43.6807 12.1572C43.6807 11.1143 43.4316 10.2705 42.9336 9.62598C42.4414 8.97559 41.7852 8.65039 40.9648 8.65039C40.1621 8.65039 39.5146 8.96973 39.0225 9.6084C38.5303 10.2471 38.2842 11.1611 38.2842 12.3506ZM54.2188 8.80859H51.0283V17H49.4023V8.80859H46.2734V7.49023H54.2188V8.80859ZM55.001 12.1572C55.001 11.2256 55.1826 10.3877 55.5459 9.64355C55.915 8.89941 56.4248 8.3252 57.0752 7.9209C57.7314 7.5166 58.4785 7.31445 59.3164 7.31445C60.6113 7.31445 61.6572 7.7627 62.4541 8.65918C63.2568 9.55566 63.6582 10.748 63.6582 12.2363V12.3506C63.6582 13.2764 63.4795 14.1084 63.1221 14.8467C62.7705 15.5791 62.2637 16.1504 61.6016 16.5605C60.9453 16.9707 60.1895 17.1758 59.334 17.1758C58.0449 17.1758 56.999 16.7275 56.1963 15.8311C55.3994 14.9346 55.001 13.748 55.001 12.2715V12.1572ZM56.6357 12.3506C56.6357 13.4053 56.8789 14.252 57.3652 14.8906C57.8574 15.5293 58.5137 15.8486 59.334 15.8486C60.1602 15.8486 60.8164 15.5264 61.3027 14.8818C61.7891 14.2314 62.0322 13.3232 62.0322 12.1572C62.0322 11.1143 61.7832 10.2705 61.2852 9.62598C60.793 8.97559 60.1367 8.65039 59.3164 8.65039C58.5137 8.65039 57.8662 8.96973 57.374 9.6084C56.8818 10.2471 56.6357 11.1611 56.6357 12.3506ZM68.6592 12.9482H67.4727V17H65.8379V7.49023H67.4727V11.5156H68.5361L71.7354 7.49023H73.7041L69.9424 12.0605L74.0205 17H71.9551L68.6592 12.9482Z" fill="black"/>
<path d="M34.2588 213H32.5625V201.592H26.252V213H24.5645V200.203H34.2588V213ZM36.6494 208.157C36.6494 207.226 36.8311 206.388 37.1943 205.644C37.5635 204.899 38.0732 204.325 38.7236 203.921C39.3799 203.517 40.127 203.314 40.9648 203.314C42.2598 203.314 43.3057 203.763 44.1025 204.659C44.9053 205.556 45.3066 206.748 45.3066 208.236V208.351C45.3066 209.276 45.1279 210.108 44.7705 210.847C44.4189 211.579 43.9121 212.15 43.25 212.561C42.5938 212.971 41.8379 213.176 40.9824 213.176C39.6934 213.176 38.6475 212.728 37.8447 211.831C37.0479 210.935 36.6494 209.748 36.6494 208.271V208.157ZM38.2842 208.351C38.2842 209.405 38.5273 210.252 39.0137 210.891C39.5059 211.529 40.1621 211.849 40.9824 211.849C41.8086 211.849 42.4648 211.526 42.9512 210.882C43.4375 210.231 43.6807 209.323 43.6807 208.157C43.6807 207.114 43.4316 206.271 42.9336 205.626C42.4414 204.976 41.7852 204.65 40.9648 204.65C40.1621 204.65 39.5146 204.97 39.0225 205.608C38.5303 206.247 38.2842 207.161 38.2842 208.351ZM54.2188 204.809H51.0283V213H49.4023V204.809H46.2734V203.49H54.2188V204.809ZM55.001 208.157C55.001 207.226 55.1826 206.388 55.5459 205.644C55.915 204.899 56.4248 204.325 57.0752 203.921C57.7314 203.517 58.4785 203.314 59.3164 203.314C60.6113 203.314 61.6572 203.763 62.4541 204.659C63.2568 205.556 63.6582 206.748 63.6582 208.236V208.351C63.6582 209.276 63.4795 210.108 63.1221 210.847C62.7705 211.579 62.2637 212.15 61.6016 212.561C60.9453 212.971 60.1895 213.176 59.334 213.176C58.0449 213.176 56.999 212.728 56.1963 211.831C55.3994 210.935 55.001 209.748 55.001 208.271V208.157ZM56.6357 208.351C56.6357 209.405 56.8789 210.252 57.3652 210.891C57.8574 211.529 58.5137 211.849 59.334 211.849C60.1602 211.849 60.8164 211.526 61.3027 210.882C61.7891 210.231 62.0322 209.323 62.0322 208.157C62.0322 207.114 61.7832 206.271 61.2852 205.626C60.793 204.976 60.1367 204.65 59.3164 204.65C58.5137 204.65 57.8662 204.97 57.374 205.608C56.8818 206.247 56.6357 207.161 56.6357 208.351ZM68.6592 208.948H67.4727V213H65.8379V203.49H67.4727V207.516H68.5361L71.7354 203.49H73.7041L69.9424 208.061L74.0205 213H71.9551L68.6592 208.948Z" fill="black"/>
<line x1="50" y1="30" x2="50" y2="81" stroke="black" stroke-width="2"/>
<path d="M50 83L45.6699 75.5H54.3301L50 83Z" fill="black"/>
<line x1="50" y1="135" x2="50" y2="186" stroke="black" stroke-width="2"/>
<path d="M50 188L45.6699 180.5H54.3301L50 188Z" fill="black"/>
</svg>
