<?xml version="1.0" standalone="no"?>
<svg xmlns="http://www.w3.org/2000/svg" width="300" height="300"><defs><clipPath id="clip-path-dot-color"><rect x="2" y="82" width="8" height="8" transform="rotate(0,6,86)"/><rect x="2" y="122" width="8" height="8" transform="rotate(0,6,126)"/><rect x="2" y="138" width="8" height="8" transform="rotate(0,6,142)"/><rect x="2" y="162" width="8" height="8" transform="rotate(0,6,166)"/><rect x="2" y="170" width="8" height="8" transform="rotate(0,6,174)"/><rect x="2" y="202" width="8" height="8" transform="rotate(0,6,206)"/><rect x="10" y="66" width="8" height="8" transform="rotate(0,14,70)"/><rect x="10" y="74" width="8" height="8" transform="rotate(0,14,78)"/><rect x="10" y="82" width="8" height="8" transform="rotate(0,14,86)"/><rect x="10" y="90" width="8" height="8" transform="rotate(0,14,94)"/><rect x="10" y="114" width="8" height="8" transform="rotate(0,14,118)"/><rect x="10" y="154" width="8" height="8" transform="rotate(0,14,158)"/><rect x="10" y="162" width="8" height="8" transform="rotate(0,14,166)"/><rect x="10" y="170" width="8" height="8" transform="rotate(0,14,174)"/><rect x="10" y="178" width="8" height="8" transform="rotate(0,14,182)"/><rect x="10" y="202" width="8" height="8" transform="rotate(0,14,206)"/><rect x="10" y="226" width="8" height="8" transform="rotate(0,14,230)"/><rect x="18" y="66" width="8" height="8" transform="rotate(0,22,70)"/><rect x="18" y="74" width="8" height="8" transform="rotate(0,22,78)"/><rect x="18" y="82" width="8" height="8" transform="rotate(0,22,86)"/><rect x="18" y="90" width="8" height="8" transform="rotate(0,22,94)"/><rect x="18" y="98" width="8" height="8" transform="rotate(0,22,102)"/><rect x="18" y="106" width="8" height="8" transform="rotate(0,22,110)"/><rect x="18" y="122" width="8" height="8" transform="rotate(0,22,126)"/><rect x="18" y="154" width="8" height="8" transform="rotate(0,22,158)"/><rect x="18" y="162" width="8" height="8" transform="rotate(0,22,166)"/><rect x="18" y="178" width="8" height="8" transform="rotate(0,22,182)"/><rect x="18" y="186" width="8" height="8" transform="rotate(0,22,190)"/><rect x="18" y="194" width="8" height="8" transform="rotate(0,22,198)"/><rect x="18" y="202" width="8" height="8" transform="rotate(0,22,206)"/><rect x="18" y="210" width="8" height="8" transform="rotate(0,22,214)"/><rect x="26" y="90" width="8" height="8" transform="rotate(0,30,94)"/><rect x="26" y="106" width="8" height="8" transform="rotate(0,30,110)"/><rect x="26" y="114" width="8" height="8" transform="rotate(0,30,118)"/><rect x="26" y="138" width="8" height="8" transform="rotate(0,30,142)"/><rect x="26" y="154" width="8" height="8" transform="rotate(0,30,158)"/><rect x="26" y="186" width="8" height="8" transform="rotate(0,30,190)"/><rect x="26" y="194" width="8" height="8" transform="rotate(0,30,198)"/><rect x="26" y="202" width="8" height="8" transform="rotate(0,30,206)"/><rect x="26" y="210" width="8" height="8" transform="rotate(0,30,214)"/><rect x="26" y="218" width="8" height="8" transform="rotate(0,30,222)"/><rect x="34" y="90" width="8" height="8" transform="rotate(0,38,94)"/><rect x="34" y="98" width="8" height="8" transform="rotate(0,38,102)"/><rect x="34" y="114" width="8" height="8" transform="rotate(0,38,118)"/><rect x="34" y="122" width="8" height="8" transform="rotate(0,38,126)"/><rect x="34" y="154" width="8" height="8" transform="rotate(0,38,158)"/><rect x="34" y="162" width="8" height="8" transform="rotate(0,38,166)"/><rect x="34" y="170" width="8" height="8" transform="rotate(0,38,174)"/><rect x="34" y="194" width="8" height="8" transform="rotate(0,38,198)"/><rect x="34" y="202" width="8" height="8" transform="rotate(0,38,206)"/><rect x="34" y="210" width="8" height="8" transform="rotate(0,38,214)"/><rect x="34" y="218" width="8" height="8" transform="rotate(0,38,222)"/><rect x="42" y="74" width="8" height="8" transform="rotate(0,46,78)"/><rect x="42" y="82" width="8" height="8" transform="rotate(0,46,86)"/><rect x="42" y="106" width="8" height="8" transform="rotate(0,46,110)"/><rect x="42" y="114" width="8" height="8" transform="rotate(0,46,118)"/><rect x="42" y="130" width="8" height="8" transform="rotate(0,46,134)"/><rect x="42" y="146" width="8" height="8" transform="rotate(0,46,150)"/><rect x="42" y="154" width="8" height="8" transform="rotate(0,46,158)"/><rect x="42" y="178" width="8" height="8" transform="rotate(0,46,182)"/><rect x="42" y="194" width="8" height="8" transform="rotate(0,46,198)"/><rect x="42" y="210" width="8" height="8" transform="rotate(0,46,214)"/><rect x="50" y="66" width="8" height="8" transform="rotate(0,54,70)"/><rect x="50" y="82" width="8" height="8" transform="rotate(0,54,86)"/><rect x="50" y="98" width="8" height="8" transform="rotate(0,54,102)"/><rect x="50" y="114" width="8" height="8" transform="rotate(0,54,118)"/><rect x="50" y="130" width="8" height="8" transform="rotate(0,54,134)"/><rect x="50" y="146" width="8" height="8" transform="rotate(0,54,150)"/><rect x="50" y="162" width="8" height="8" transform="rotate(0,54,166)"/><rect x="50" y="178" width="8" height="8" transform="rotate(0,54,182)"/><rect x="50" y="194" width="8" height="8" transform="rotate(0,54,198)"/><rect x="50" y="210" width="8" height="8" transform="rotate(0,54,214)"/><rect x="50" y="226" width="8" height="8" transform="rotate(0,54,230)"/><rect x="58" y="74" width="8" height="8" transform="rotate(0,62,78)"/><rect x="58" y="82" width="8" height="8" transform="rotate(0,62,86)"/><rect x="58" y="98" width="8" height="8" transform="rotate(0,62,102)"/><rect x="58" y="122" width="8" height="8" transform="rotate(0,62,126)"/><rect x="58" y="130" width="8" height="8" transform="rotate(0,62,134)"/><rect x="58" y="138" width="8" height="8" transform="rotate(0,62,142)"/><rect x="58" y="146" width="8" height="8" transform="rotate(0,62,150)"/><rect x="58" y="178" width="8" height="8" transform="rotate(0,62,182)"/><rect x="58" y="186" width="8" height="8" transform="rotate(0,62,190)"/><rect x="58" y="202" width="8" height="8" transform="rotate(0,62,206)"/><rect x="58" y="210" width="8" height="8" transform="rotate(0,62,214)"/><rect x="58" y="218" width="8" height="8" transform="rotate(0,62,222)"/><rect x="58" y="226" width="8" height="8" transform="rotate(0,62,230)"/><rect x="66" y="10" width="8" height="8" transform="rotate(0,70,14)"/><rect x="66" y="18" width="8" height="8" transform="rotate(0,70,22)"/><rect x="66" y="26" width="8" height="8" transform="rotate(0,70,30)"/><rect x="66" y="42" width="8" height="8" transform="rotate(0,70,46)"/><rect x="66" y="50" width="8" height="8" transform="rotate(0,70,54)"/><rect x="66" y="74" width="8" height="8" transform="rotate(0,70,78)"/><rect x="66" y="82" width="8" height="8" transform="rotate(0,70,86)"/><rect x="66" y="98" width="8" height="8" transform="rotate(0,70,102)"/><rect x="66" y="106" width="8" height="8" transform="rotate(0,70,110)"/><rect x="66" y="122" width="8" height="8" transform="rotate(0,70,126)"/><rect x="66" y="138" width="8" height="8" transform="rotate(0,70,142)"/><rect x="66" y="154" width="8" height="8" transform="rotate(0,70,158)"/><rect x="66" y="162" width="8" height="8" transform="rotate(0,70,166)"/><rect x="66" y="170" width="8" height="8" transform="rotate(0,70,174)"/><rect x="66" y="202" width="8" height="8" transform="rotate(0,70,206)"/><rect x="66" y="210" width="8" height="8" transform="rotate(0,70,214)"/><rect x="66" y="218" width="8" height="8" transform="rotate(0,70,222)"/><rect x="66" y="226" width="8" height="8" transform="rotate(0,70,230)"/><rect x="66" y="274" width="8" height="8" transform="rotate(0,70,278)"/><rect x="66" y="282" width="8" height="8" transform="rotate(0,70,286)"/><rect x="74" y="10" width="8" height="8" transform="rotate(0,78,14)"/><rect x="74" y="26" width="8" height="8" transform="rotate(0,78,30)"/><rect x="74" y="66" width="8" height="8" transform="rotate(0,78,70)"/><rect x="74" y="106" width="8" height="8" transform="rotate(0,78,110)"/><rect x="74" y="114" width="8" height="8" transform="rotate(0,78,118)"/><rect x="74" y="138" width="8" height="8" transform="rotate(0,78,142)"/><rect x="74" y="146" width="8" height="8" transform="rotate(0,78,150)"/><rect x="74" y="186" width="8" height="8" transform="rotate(0,78,190)"/><rect x="74" y="202" width="8" height="8" transform="rotate(0,78,206)"/><rect x="74" y="218" width="8" height="8" transform="rotate(0,78,222)"/><rect x="74" y="234" width="8" height="8" transform="rotate(0,78,238)"/><rect x="82" y="2" width="8" height="8" transform="rotate(0,86,6)"/><rect x="82" y="18" width="8" height="8" transform="rotate(0,86,22)"/><rect x="82" y="26" width="8" height="8" transform="rotate(0,86,30)"/><rect x="82" y="34" width="8" height="8" transform="rotate(0,86,38)"/><rect x="82" y="42" width="8" height="8" transform="rotate(0,86,46)"/><rect x="82" y="50" width="8" height="8" transform="rotate(0,86,54)"/><rect x="82" y="58" width="8" height="8" transform="rotate(0,86,62)"/><rect x="82" y="66" width="8" height="8" transform="rotate(0,86,70)"/><rect x="82" y="74" width="8" height="8" transform="rotate(0,86,78)"/><rect x="82" y="82" width="8" height="8" transform="rotate(0,86,86)"/><rect x="82" y="114" width="8" height="8" transform="rotate(0,86,118)"/><rect x="82" y="130" width="8" height="8" transform="rotate(0,86,134)"/><rect x="82" y="146" width="8" height="8" transform="rotate(0,86,150)"/><rect x="82" y="186" width="8" height="8" transform="rotate(0,86,190)"/><rect x="82" y="202" width="8" height="8" transform="rotate(0,86,206)"/><rect x="82" y="226" width="8" height="8" transform="rotate(0,86,230)"/><rect x="82" y="234" width="8" height="8" transform="rotate(0,86,238)"/><rect x="82" y="250" width="8" height="8" transform="rotate(0,86,254)"/><rect x="82" y="258" width="8" height="8" transform="rotate(0,86,262)"/><rect x="82" y="266" width="8" height="8" transform="rotate(0,86,270)"/><rect x="90" y="26" width="8" height="8" transform="rotate(0,94,30)"/><rect x="90" y="42" width="8" height="8" transform="rotate(0,94,46)"/><rect x="90" y="66" width="8" height="8" transform="rotate(0,94,70)"/><rect x="90" y="90" width="8" height="8" transform="rotate(0,94,94)"/><rect x="90" y="98" width="8" height="8" transform="rotate(0,94,102)"/><rect x="90" y="106" width="8" height="8" transform="rotate(0,94,110)"/><rect x="90" y="122" width="8" height="8" transform="rotate(0,94,126)"/><rect x="90" y="146" width="8" height="8" transform="rotate(0,94,150)"/><rect x="90" y="162" width="8" height="8" transform="rotate(0,94,166)"/><rect x="90" y="194" width="8" height="8" transform="rotate(0,94,198)"/><rect x="90" y="202" width="8" height="8" transform="rotate(0,94,206)"/><rect x="90" y="210" width="8" height="8" transform="rotate(0,94,214)"/><rect x="90" y="226" width="8" height="8" transform="rotate(0,94,230)"/><rect x="90" y="250" width="8" height="8" transform="rotate(0,94,254)"/><rect x="90" y="258" width="8" height="8" transform="rotate(0,94,262)"/><rect x="90" y="274" width="8" height="8" transform="rotate(0,94,278)"/><rect x="90" y="282" width="8" height="8" transform="rotate(0,94,286)"/><rect x="90" y="290" width="8" height="8" transform="rotate(0,94,294)"/><rect x="98" y="10" width="8" height="8" transform="rotate(0,102,14)"/><rect x="98" y="18" width="8" height="8" transform="rotate(0,102,22)"/><rect x="98" y="34" width="8" height="8" transform="rotate(0,102,38)"/><rect x="98" y="50" width="8" height="8" transform="rotate(0,102,54)"/><rect x="98" y="58" width="8" height="8" transform="rotate(0,102,62)"/><rect x="98" y="66" width="8" height="8" transform="rotate(0,102,70)"/><rect x="98" y="74" width="8" height="8" transform="rotate(0,102,78)"/><rect x="98" y="106" width="8" height="8" transform="rotate(0,102,110)"/><rect x="98" y="114" width="8" height="8" transform="rotate(0,102,118)"/><rect x="98" y="122" width="8" height="8" transform="rotate(0,102,126)"/><rect x="98" y="138" width="8" height="8" transform="rotate(0,102,142)"/><rect x="98" y="146" width="8" height="8" transform="rotate(0,102,150)"/><rect x="98" y="162" width="8" height="8" transform="rotate(0,102,166)"/><rect x="98" y="178" width="8" height="8" transform="rotate(0,102,182)"/><rect x="98" y="186" width="8" height="8" transform="rotate(0,102,190)"/><rect x="98" y="194" width="8" height="8" transform="rotate(0,102,198)"/><rect x="98" y="202" width="8" height="8" transform="rotate(0,102,206)"/><rect x="98" y="210" width="8" height="8" transform="rotate(0,102,214)"/><rect x="98" y="218" width="8" height="8" transform="rotate(0,102,222)"/><rect x="98" y="234" width="8" height="8" transform="rotate(0,102,238)"/><rect x="98" y="242" width="8" height="8" transform="rotate(0,102,246)"/><rect x="98" y="250" width="8" height="8" transform="rotate(0,102,254)"/><rect x="98" y="258" width="8" height="8" transform="rotate(0,102,262)"/><rect x="98" y="274" width="8" height="8" transform="rotate(0,102,278)"/><rect x="98" y="282" width="8" height="8" transform="rotate(0,102,286)"/><rect x="106" y="10" width="8" height="8" transform="rotate(0,110,14)"/><rect x="106" y="18" width="8" height="8" transform="rotate(0,110,22)"/><rect x="106" y="26" width="8" height="8" transform="rotate(0,110,30)"/><rect x="106" y="42" width="8" height="8" transform="rotate(0,110,46)"/><rect x="106" y="90" width="8" height="8" transform="rotate(0,110,94)"/><rect x="106" y="130" width="8" height="8" transform="rotate(0,110,134)"/><rect x="106" y="138" width="8" height="8" transform="rotate(0,110,142)"/><rect x="106" y="194" width="8" height="8" transform="rotate(0,110,198)"/><rect x="106" y="202" width="8" height="8" transform="rotate(0,110,206)"/><rect x="106" y="210" width="8" height="8" transform="rotate(0,110,214)"/><rect x="106" y="218" width="8" height="8" transform="rotate(0,110,222)"/><rect x="106" y="242" width="8" height="8" transform="rotate(0,110,246)"/><rect x="106" y="258" width="8" height="8" transform="rotate(0,110,262)"/><rect x="106" y="274" width="8" height="8" transform="rotate(0,110,278)"/><rect x="106" y="290" width="8" height="8" transform="rotate(0,110,294)"/><rect x="114" y="18" width="8" height="8" transform="rotate(0,118,22)"/><rect x="114" y="34" width="8" height="8" transform="rotate(0,118,38)"/><rect x="114" y="50" width="8" height="8" transform="rotate(0,118,54)"/><rect x="114" y="58" width="8" height="8" transform="rotate(0,118,62)"/><rect x="114" y="74" width="8" height="8" transform="rotate(0,118,78)"/><rect x="114" y="98" width="8" height="8" transform="rotate(0,118,102)"/><rect x="114" y="122" width="8" height="8" transform="rotate(0,118,126)"/><rect x="114" y="138" width="8" height="8" transform="rotate(0,118,142)"/><rect x="114" y="154" width="8" height="8" transform="rotate(0,118,158)"/><rect x="114" y="178" width="8" height="8" transform="rotate(0,118,182)"/><rect x="114" y="210" width="8" height="8" transform="rotate(0,118,214)"/><rect x="114" y="234" width="8" height="8" transform="rotate(0,118,238)"/><rect x="114" y="242" width="8" height="8" transform="rotate(0,118,246)"/><rect x="114" y="250" width="8" height="8" transform="rotate(0,118,254)"/><rect x="114" y="258" width="8" height="8" transform="rotate(0,118,262)"/><rect x="114" y="274" width="8" height="8" transform="rotate(0,118,278)"/><rect x="114" y="282" width="8" height="8" transform="rotate(0,118,286)"/><rect x="122" y="2" width="8" height="8" transform="rotate(0,126,6)"/><rect x="122" y="18" width="8" height="8" transform="rotate(0,126,22)"/><rect x="122" y="26" width="8" height="8" transform="rotate(0,126,30)"/><rect x="122" y="42" width="8" height="8" transform="rotate(0,126,46)"/><rect x="122" y="66" width="8" height="8" transform="rotate(0,126,70)"/><rect x="122" y="74" width="8" height="8" transform="rotate(0,126,78)"/><rect x="122" y="82" width="8" height="8" transform="rotate(0,126,86)"/><rect x="122" y="106" width="8" height="8" transform="rotate(0,126,110)"/><rect x="122" y="114" width="8" height="8" transform="rotate(0,126,118)"/><rect x="122" y="122" width="8" height="8" transform="rotate(0,126,126)"/><rect x="122" y="138" width="8" height="8" transform="rotate(0,126,142)"/><rect x="122" y="154" width="8" height="8" transform="rotate(0,126,158)"/><rect x="122" y="170" width="8" height="8" transform="rotate(0,126,174)"/><rect x="122" y="178" width="8" height="8" transform="rotate(0,126,182)"/><rect x="122" y="186" width="8" height="8" transform="rotate(0,126,190)"/><rect x="122" y="210" width="8" height="8" transform="rotate(0,126,214)"/><rect x="122" y="234" width="8" height="8" transform="rotate(0,126,238)"/><rect x="130" y="18" width="8" height="8" transform="rotate(0,134,22)"/><rect x="130" y="42" width="8" height="8" transform="rotate(0,134,46)"/><rect x="130" y="50" width="8" height="8" transform="rotate(0,134,54)"/><rect x="130" y="98" width="8" height="8" transform="rotate(0,134,102)"/><rect x="130" y="106" width="8" height="8" transform="rotate(0,134,110)"/><rect x="130" y="114" width="8" height="8" transform="rotate(0,134,118)"/><rect x="130" y="122" width="8" height="8" transform="rotate(0,134,126)"/><rect x="130" y="130" width="8" height="8" transform="rotate(0,134,134)"/><rect x="130" y="162" width="8" height="8" transform="rotate(0,134,166)"/><rect x="130" y="194" width="8" height="8" transform="rotate(0,134,198)"/><rect x="130" y="202" width="8" height="8" transform="rotate(0,134,206)"/><rect x="130" y="226" width="8" height="8" transform="rotate(0,134,230)"/><rect x="130" y="234" width="8" height="8" transform="rotate(0,134,238)"/><rect x="130" y="266" width="8" height="8" transform="rotate(0,134,270)"/><rect x="130" y="274" width="8" height="8" transform="rotate(0,134,278)"/><rect x="130" y="290" width="8" height="8" transform="rotate(0,134,294)"/><rect x="138" y="2" width="8" height="8" transform="rotate(0,142,6)"/><rect x="138" y="10" width="8" height="8" transform="rotate(0,142,14)"/><rect x="138" y="26" width="8" height="8" transform="rotate(0,142,30)"/><rect x="138" y="42" width="8" height="8" transform="rotate(0,142,46)"/><rect x="138" y="74" width="8" height="8" transform="rotate(0,142,78)"/><rect x="138" y="82" width="8" height="8" transform="rotate(0,142,86)"/><rect x="138" y="90" width="8" height="8" transform="rotate(0,142,94)"/><rect x="138" y="114" width="8" height="8" transform="rotate(0,142,118)"/><rect x="138" y="130" width="8" height="8" transform="rotate(0,142,134)"/><rect x="138" y="154" width="8" height="8" transform="rotate(0,142,158)"/><rect x="138" y="170" width="8" height="8" transform="rotate(0,142,174)"/><rect x="138" y="202" width="8" height="8" transform="rotate(0,142,206)"/><rect x="138" y="218" width="8" height="8" transform="rotate(0,142,222)"/><rect x="138" y="242" width="8" height="8" transform="rotate(0,142,246)"/><rect x="138" y="266" width="8" height="8" transform="rotate(0,142,270)"/><rect x="138" y="274" width="8" height="8" transform="rotate(0,142,278)"/><rect x="138" y="290" width="8" height="8" transform="rotate(0,142,294)"/><rect x="146" y="34" width="8" height="8" transform="rotate(0,150,38)"/><rect x="146" y="42" width="8" height="8" transform="rotate(0,150,46)"/><rect x="146" y="50" width="8" height="8" transform="rotate(0,150,54)"/><rect x="146" y="66" width="8" height="8" transform="rotate(0,150,70)"/><rect x="146" y="74" width="8" height="8" transform="rotate(0,150,78)"/><rect x="146" y="82" width="8" height="8" transform="rotate(0,150,86)"/><rect x="146" y="114" width="8" height="8" transform="rotate(0,150,118)"/><rect x="146" y="122" width="8" height="8" transform="rotate(0,150,126)"/><rect x="146" y="138" width="8" height="8" transform="rotate(0,150,142)"/><rect x="146" y="154" width="8" height="8" transform="rotate(0,150,158)"/><rect x="146" y="162" width="8" height="8" transform="rotate(0,150,166)"/><rect x="146" y="178" width="8" height="8" transform="rotate(0,150,182)"/><rect x="146" y="210" width="8" height="8" transform="rotate(0,150,214)"/><rect x="146" y="218" width="8" height="8" transform="rotate(0,150,222)"/><rect x="146" y="242" width="8" height="8" transform="rotate(0,150,246)"/><rect x="146" y="250" width="8" height="8" transform="rotate(0,150,254)"/><rect x="146" y="258" width="8" height="8" transform="rotate(0,150,262)"/><rect x="146" y="266" width="8" height="8" transform="rotate(0,150,270)"/><rect x="146" y="282" width="8" height="8" transform="rotate(0,150,286)"/><rect x="146" y="290" width="8" height="8" transform="rotate(0,150,294)"/><rect x="154" y="42" width="8" height="8" transform="rotate(0,158,46)"/><rect x="154" y="66" width="8" height="8" transform="rotate(0,158,70)"/><rect x="154" y="74" width="8" height="8" transform="rotate(0,158,78)"/><rect x="154" y="106" width="8" height="8" transform="rotate(0,158,110)"/><rect x="154" y="130" width="8" height="8" transform="rotate(0,158,134)"/><rect x="154" y="138" width="8" height="8" transform="rotate(0,158,142)"/><rect x="154" y="146" width="8" height="8" transform="rotate(0,158,150)"/><rect x="154" y="162" width="8" height="8" transform="rotate(0,158,166)"/><rect x="154" y="186" width="8" height="8" transform="rotate(0,158,190)"/><rect x="154" y="210" width="8" height="8" transform="rotate(0,158,214)"/><rect x="154" y="218" width="8" height="8" transform="rotate(0,158,222)"/><rect x="154" y="234" width="8" height="8" transform="rotate(0,158,238)"/><rect x="154" y="258" width="8" height="8" transform="rotate(0,158,262)"/><rect x="154" y="266" width="8" height="8" transform="rotate(0,158,270)"/><rect x="154" y="282" width="8" height="8" transform="rotate(0,158,286)"/><rect x="162" y="10" width="8" height="8" transform="rotate(0,166,14)"/><rect x="162" y="26" width="8" height="8" transform="rotate(0,166,30)"/><rect x="162" y="42" width="8" height="8" transform="rotate(0,166,46)"/><rect x="162" y="50" width="8" height="8" transform="rotate(0,166,54)"/><rect x="162" y="58" width="8" height="8" transform="rotate(0,166,62)"/><rect x="162" y="82" width="8" height="8" transform="rotate(0,166,86)"/><rect x="162" y="114" width="8" height="8" transform="rotate(0,166,118)"/><rect x="162" y="122" width="8" height="8" transform="rotate(0,166,126)"/><rect x="162" y="170" width="8" height="8" transform="rotate(0,166,174)"/><rect x="162" y="210" width="8" height="8" transform="rotate(0,166,214)"/><rect x="162" y="226" width="8" height="8" transform="rotate(0,166,230)"/><rect x="162" y="258" width="8" height="8" transform="rotate(0,166,262)"/><rect x="162" y="282" width="8" height="8" transform="rotate(0,166,286)"/><rect x="170" y="2" width="8" height="8" transform="rotate(0,174,6)"/><rect x="170" y="18" width="8" height="8" transform="rotate(0,174,22)"/><rect x="170" y="26" width="8" height="8" transform="rotate(0,174,30)"/><rect x="170" y="34" width="8" height="8" transform="rotate(0,174,38)"/><rect x="170" y="42" width="8" height="8" transform="rotate(0,174,46)"/><rect x="170" y="58" width="8" height="8" transform="rotate(0,174,62)"/><rect x="170" y="74" width="8" height="8" transform="rotate(0,174,78)"/><rect x="170" y="82" width="8" height="8" transform="rotate(0,174,86)"/><rect x="170" y="90" width="8" height="8" transform="rotate(0,174,94)"/><rect x="170" y="98" width="8" height="8" transform="rotate(0,174,102)"/><rect x="170" y="106" width="8" height="8" transform="rotate(0,174,110)"/><rect x="170" y="114" width="8" height="8" transform="rotate(0,174,118)"/><rect x="170" y="146" width="8" height="8" transform="rotate(0,174,150)"/><rect x="170" y="154" width="8" height="8" transform="rotate(0,174,158)"/><rect x="170" y="162" width="8" height="8" transform="rotate(0,174,166)"/><rect x="170" y="186" width="8" height="8" transform="rotate(0,174,190)"/><rect x="170" y="234" width="8" height="8" transform="rotate(0,174,238)"/><rect x="170" y="250" width="8" height="8" transform="rotate(0,174,254)"/><rect x="170" y="282" width="8" height="8" transform="rotate(0,174,286)"/><rect x="178" y="10" width="8" height="8" transform="rotate(0,182,14)"/><rect x="178" y="18" width="8" height="8" transform="rotate(0,182,22)"/><rect x="178" y="26" width="8" height="8" transform="rotate(0,182,30)"/><rect x="178" y="34" width="8" height="8" transform="rotate(0,182,38)"/><rect x="178" y="42" width="8" height="8" transform="rotate(0,182,46)"/><rect x="178" y="50" width="8" height="8" transform="rotate(0,182,54)"/><rect x="178" y="58" width="8" height="8" transform="rotate(0,182,62)"/><rect x="178" y="66" width="8" height="8" transform="rotate(0,182,70)"/><rect x="178" y="74" width="8" height="8" transform="rotate(0,182,78)"/><rect x="178" y="82" width="8" height="8" transform="rotate(0,182,86)"/><rect x="178" y="106" width="8" height="8" transform="rotate(0,182,110)"/><rect x="178" y="114" width="8" height="8" transform="rotate(0,182,118)"/><rect x="178" y="122" width="8" height="8" transform="rotate(0,182,126)"/><rect x="178" y="138" width="8" height="8" transform="rotate(0,182,142)"/><rect x="178" y="154" width="8" height="8" transform="rotate(0,182,158)"/><rect x="178" y="170" width="8" height="8" transform="rotate(0,182,174)"/><rect x="178" y="178" width="8" height="8" transform="rotate(0,182,182)"/><rect x="178" y="186" width="8" height="8" transform="rotate(0,182,190)"/><rect x="178" y="210" width="8" height="8" transform="rotate(0,182,214)"/><rect x="178" y="258" width="8" height="8" transform="rotate(0,182,262)"/><rect x="178" y="274" width="8" height="8" transform="rotate(0,182,278)"/><rect x="178" y="282" width="8" height="8" transform="rotate(0,182,286)"/><rect x="186" y="2" width="8" height="8" transform="rotate(0,190,6)"/><rect x="186" y="10" width="8" height="8" transform="rotate(0,190,14)"/><rect x="186" y="26" width="8" height="8" transform="rotate(0,190,30)"/><rect x="186" y="58" width="8" height="8" transform="rotate(0,190,62)"/><rect x="186" y="66" width="8" height="8" transform="rotate(0,190,70)"/><rect x="186" y="74" width="8" height="8" transform="rotate(0,190,78)"/><rect x="186" y="90" width="8" height="8" transform="rotate(0,190,94)"/><rect x="186" y="138" width="8" height="8" transform="rotate(0,190,142)"/><rect x="186" y="146" width="8" height="8" transform="rotate(0,190,150)"/><rect x="186" y="154" width="8" height="8" transform="rotate(0,190,158)"/><rect x="186" y="162" width="8" height="8" transform="rotate(0,190,166)"/><rect x="186" y="178" width="8" height="8" transform="rotate(0,190,182)"/><rect x="186" y="194" width="8" height="8" transform="rotate(0,190,198)"/><rect x="186" y="202" width="8" height="8" transform="rotate(0,190,206)"/><rect x="186" y="210" width="8" height="8" transform="rotate(0,190,214)"/><rect x="186" y="218" width="8" height="8" transform="rotate(0,190,222)"/><rect x="186" y="226" width="8" height="8" transform="rotate(0,190,230)"/><rect x="186" y="234" width="8" height="8" transform="rotate(0,190,238)"/><rect x="186" y="266" width="8" height="8" transform="rotate(0,190,270)"/><rect x="186" y="274" width="8" height="8" transform="rotate(0,190,278)"/><rect x="186" y="282" width="8" height="8" transform="rotate(0,190,286)"/><rect x="186" y="290" width="8" height="8" transform="rotate(0,190,294)"/><rect x="194" y="2" width="8" height="8" transform="rotate(0,198,6)"/><rect x="194" y="10" width="8" height="8" transform="rotate(0,198,14)"/><rect x="194" y="18" width="8" height="8" transform="rotate(0,198,22)"/><rect x="194" y="34" width="8" height="8" transform="rotate(0,198,38)"/><rect x="194" y="50" width="8" height="8" transform="rotate(0,198,54)"/><rect x="194" y="66" width="8" height="8" transform="rotate(0,198,70)"/><rect x="194" y="98" width="8" height="8" transform="rotate(0,198,102)"/><rect x="194" y="106" width="8" height="8" transform="rotate(0,198,110)"/><rect x="194" y="130" width="8" height="8" transform="rotate(0,198,134)"/><rect x="194" y="138" width="8" height="8" transform="rotate(0,198,142)"/><rect x="194" y="154" width="8" height="8" transform="rotate(0,198,158)"/><rect x="194" y="162" width="8" height="8" transform="rotate(0,198,166)"/><rect x="194" y="178" width="8" height="8" transform="rotate(0,198,182)"/><rect x="194" y="194" width="8" height="8" transform="rotate(0,198,198)"/><rect x="194" y="226" width="8" height="8" transform="rotate(0,198,230)"/><rect x="194" y="242" width="8" height="8" transform="rotate(0,198,246)"/><rect x="194" y="250" width="8" height="8" transform="rotate(0,198,254)"/><rect x="194" y="258" width="8" height="8" transform="rotate(0,198,262)"/><rect x="194" y="266" width="8" height="8" transform="rotate(0,198,270)"/><rect x="194" y="274" width="8" height="8" transform="rotate(0,198,278)"/><rect x="194" y="282" width="8" height="8" transform="rotate(0,198,286)"/><rect x="202" y="34" width="8" height="8" transform="rotate(0,206,38)"/><rect x="202" y="42" width="8" height="8" transform="rotate(0,206,46)"/><rect x="202" y="66" width="8" height="8" transform="rotate(0,206,70)"/><rect x="202" y="74" width="8" height="8" transform="rotate(0,206,78)"/><rect x="202" y="98" width="8" height="8" transform="rotate(0,206,102)"/><rect x="202" y="114" width="8" height="8" transform="rotate(0,206,118)"/><rect x="202" y="138" width="8" height="8" transform="rotate(0,206,142)"/><rect x="202" y="154" width="8" height="8" transform="rotate(0,206,158)"/><rect x="202" y="162" width="8" height="8" transform="rotate(0,206,166)"/><rect x="202" y="170" width="8" height="8" transform="rotate(0,206,174)"/><rect x="202" y="194" width="8" height="8" transform="rotate(0,206,198)"/><rect x="202" y="218" width="8" height="8" transform="rotate(0,206,222)"/><rect x="202" y="242" width="8" height="8" transform="rotate(0,206,246)"/><rect x="202" y="258" width="8" height="8" transform="rotate(0,206,262)"/><rect x="202" y="282" width="8" height="8" transform="rotate(0,206,286)"/><rect x="202" y="290" width="8" height="8" transform="rotate(0,206,294)"/><rect x="210" y="10" width="8" height="8" transform="rotate(0,214,14)"/><rect x="210" y="18" width="8" height="8" transform="rotate(0,214,22)"/><rect x="210" y="34" width="8" height="8" transform="rotate(0,214,38)"/><rect x="210" y="42" width="8" height="8" transform="rotate(0,214,46)"/><rect x="210" y="50" width="8" height="8" transform="rotate(0,214,54)"/><rect x="210" y="74" width="8" height="8" transform="rotate(0,214,78)"/><rect x="210" y="90" width="8" height="8" transform="rotate(0,214,94)"/><rect x="210" y="98" width="8" height="8" transform="rotate(0,214,102)"/><rect x="210" y="106" width="8" height="8" transform="rotate(0,214,110)"/><rect x="210" y="114" width="8" height="8" transform="rotate(0,214,118)"/><rect x="210" y="130" width="8" height="8" transform="rotate(0,214,134)"/><rect x="210" y="146" width="8" height="8" transform="rotate(0,214,150)"/><rect x="210" y="154" width="8" height="8" transform="rotate(0,214,158)"/><rect x="210" y="162" width="8" height="8" transform="rotate(0,214,166)"/><rect x="210" y="226" width="8" height="8" transform="rotate(0,214,230)"/><rect x="210" y="250" width="8" height="8" transform="rotate(0,214,254)"/><rect x="210" y="274" width="8" height="8" transform="rotate(0,214,278)"/><rect x="218" y="2" width="8" height="8" transform="rotate(0,222,6)"/><rect x="218" y="34" width="8" height="8" transform="rotate(0,222,38)"/><rect x="218" y="42" width="8" height="8" transform="rotate(0,222,46)"/><rect x="218" y="66" width="8" height="8" transform="rotate(0,222,70)"/><rect x="218" y="106" width="8" height="8" transform="rotate(0,222,110)"/><rect x="218" y="114" width="8" height="8" transform="rotate(0,222,118)"/><rect x="218" y="122" width="8" height="8" transform="rotate(0,222,126)"/><rect x="218" y="130" width="8" height="8" transform="rotate(0,222,134)"/><rect x="218" y="162" width="8" height="8" transform="rotate(0,222,166)"/><rect x="218" y="170" width="8" height="8" transform="rotate(0,222,174)"/><rect x="218" y="186" width="8" height="8" transform="rotate(0,222,190)"/><rect x="218" y="210" width="8" height="8" transform="rotate(0,222,214)"/><rect x="218" y="226" width="8" height="8" transform="rotate(0,222,230)"/><rect x="218" y="234" width="8" height="8" transform="rotate(0,222,238)"/><rect x="218" y="250" width="8" height="8" transform="rotate(0,222,254)"/><rect x="218" y="266" width="8" height="8" transform="rotate(0,222,270)"/><rect x="218" y="282" width="8" height="8" transform="rotate(0,222,286)"/><rect x="218" y="290" width="8" height="8" transform="rotate(0,222,294)"/><rect x="226" y="26" width="8" height="8" transform="rotate(0,230,30)"/><rect x="226" y="34" width="8" height="8" transform="rotate(0,230,38)"/><rect x="226" y="42" width="8" height="8" transform="rotate(0,230,46)"/><rect x="226" y="50" width="8" height="8" transform="rotate(0,230,54)"/><rect x="226" y="58" width="8" height="8" transform="rotate(0,230,62)"/><rect x="226" y="74" width="8" height="8" transform="rotate(0,230,78)"/><rect x="226" y="82" width="8" height="8" transform="rotate(0,230,86)"/><rect x="226" y="98" width="8" height="8" transform="rotate(0,230,102)"/><rect x="226" y="114" width="8" height="8" transform="rotate(0,230,118)"/><rect x="226" y="122" width="8" height="8" transform="rotate(0,230,126)"/><rect x="226" y="146" width="8" height="8" transform="rotate(0,230,150)"/><rect x="226" y="162" width="8" height="8" transform="rotate(0,230,166)"/><rect x="226" y="170" width="8" height="8" transform="rotate(0,230,174)"/><rect x="226" y="178" width="8" height="8" transform="rotate(0,230,182)"/><rect x="226" y="202" width="8" height="8" transform="rotate(0,230,206)"/><rect x="226" y="226" width="8" height="8" transform="rotate(0,230,230)"/><rect x="226" y="234" width="8" height="8" transform="rotate(0,230,238)"/><rect x="226" y="242" width="8" height="8" transform="rotate(0,230,246)"/><rect x="226" y="250" width="8" height="8" transform="rotate(0,230,254)"/><rect x="226" y="258" width="8" height="8" transform="rotate(0,230,262)"/><rect x="226" y="266" width="8" height="8" transform="rotate(0,230,270)"/><rect x="226" y="274" width="8" height="8" transform="rotate(0,230,278)"/><rect x="234" y="66" width="8" height="8" transform="rotate(0,238,70)"/><rect x="234" y="82" width="8" height="8" transform="rotate(0,238,86)"/><rect x="234" y="98" width="8" height="8" transform="rotate(0,238,102)"/><rect x="234" y="114" width="8" height="8" transform="rotate(0,238,118)"/><rect x="234" y="122" width="8" height="8" transform="rotate(0,238,126)"/><rect x="234" y="130" width="8" height="8" transform="rotate(0,238,134)"/><rect x="234" y="146" width="8" height="8" transform="rotate(0,238,150)"/><rect x="234" y="154" width="8" height="8" transform="rotate(0,238,158)"/><rect x="234" y="170" width="8" height="8" transform="rotate(0,238,174)"/><rect x="234" y="186" width="8" height="8" transform="rotate(0,238,190)"/><rect x="234" y="194" width="8" height="8" transform="rotate(0,238,198)"/><rect x="234" y="218" width="8" height="8" transform="rotate(0,238,222)"/><rect x="234" y="226" width="8" height="8" transform="rotate(0,238,230)"/><rect x="234" y="258" width="8" height="8" transform="rotate(0,238,262)"/><rect x="234" y="266" width="8" height="8" transform="rotate(0,238,270)"/><rect x="234" y="274" width="8" height="8" transform="rotate(0,238,278)"/><rect x="234" y="290" width="8" height="8" transform="rotate(0,238,294)"/><rect x="242" y="82" width="8" height="8" transform="rotate(0,246,86)"/><rect x="242" y="90" width="8" height="8" transform="rotate(0,246,94)"/><rect x="242" y="98" width="8" height="8" transform="rotate(0,246,102)"/><rect x="242" y="106" width="8" height="8" transform="rotate(0,246,110)"/><rect x="242" y="114" width="8" height="8" transform="rotate(0,246,118)"/><rect x="242" y="146" width="8" height="8" transform="rotate(0,246,150)"/><rect x="242" y="162" width="8" height="8" transform="rotate(0,246,166)"/><rect x="242" y="178" width="8" height="8" transform="rotate(0,246,182)"/><rect x="242" y="202" width="8" height="8" transform="rotate(0,246,206)"/><rect x="242" y="210" width="8" height="8" transform="rotate(0,246,214)"/><rect x="242" y="226" width="8" height="8" transform="rotate(0,246,230)"/><rect x="242" y="242" width="8" height="8" transform="rotate(0,246,246)"/><rect x="242" y="258" width="8" height="8" transform="rotate(0,246,262)"/><rect x="242" y="266" width="8" height="8" transform="rotate(0,246,270)"/><rect x="242" y="282" width="8" height="8" transform="rotate(0,246,286)"/><rect x="242" y="290" width="8" height="8" transform="rotate(0,246,294)"/><rect x="250" y="66" width="8" height="8" transform="rotate(0,254,70)"/><rect x="250" y="74" width="8" height="8" transform="rotate(0,254,78)"/><rect x="250" y="82" width="8" height="8" transform="rotate(0,254,86)"/><rect x="250" y="98" width="8" height="8" transform="rotate(0,254,102)"/><rect x="250" y="106" width="8" height="8" transform="rotate(0,254,110)"/><rect x="250" y="122" width="8" height="8" transform="rotate(0,254,126)"/><rect x="250" y="146" width="8" height="8" transform="rotate(0,254,150)"/><rect x="250" y="170" width="8" height="8" transform="rotate(0,254,174)"/><rect x="250" y="194" width="8" height="8" transform="rotate(0,254,198)"/><rect x="250" y="226" width="8" height="8" transform="rotate(0,254,230)"/><rect x="250" y="258" width="8" height="8" transform="rotate(0,254,262)"/><rect x="250" y="266" width="8" height="8" transform="rotate(0,254,270)"/><rect x="250" y="290" width="8" height="8" transform="rotate(0,254,294)"/><rect x="258" y="82" width="8" height="8" transform="rotate(0,262,86)"/><rect x="258" y="90" width="8" height="8" transform="rotate(0,262,94)"/><rect x="258" y="106" width="8" height="8" transform="rotate(0,262,110)"/><rect x="258" y="114" width="8" height="8" transform="rotate(0,262,118)"/><rect x="258" y="122" width="8" height="8" transform="rotate(0,262,126)"/><rect x="258" y="130" width="8" height="8" transform="rotate(0,262,134)"/><rect x="258" y="154" width="8" height="8" transform="rotate(0,262,158)"/><rect x="258" y="162" width="8" height="8" transform="rotate(0,262,166)"/><rect x="258" y="186" width="8" height="8" transform="rotate(0,262,190)"/><rect x="258" y="210" width="8" height="8" transform="rotate(0,262,214)"/><rect x="258" y="226" width="8" height="8" transform="rotate(0,262,230)"/><rect x="258" y="234" width="8" height="8" transform="rotate(0,262,238)"/><rect x="258" y="242" width="8" height="8" transform="rotate(0,262,246)"/><rect x="258" y="250" width="8" height="8" transform="rotate(0,262,254)"/><rect x="258" y="258" width="8" height="8" transform="rotate(0,262,262)"/><rect x="258" y="266" width="8" height="8" transform="rotate(0,262,270)"/><rect x="258" y="282" width="8" height="8" transform="rotate(0,262,286)"/><rect x="258" y="290" width="8" height="8" transform="rotate(0,262,294)"/><rect x="266" y="66" width="8" height="8" transform="rotate(0,270,70)"/><rect x="266" y="90" width="8" height="8" transform="rotate(0,270,94)"/><rect x="266" y="106" width="8" height="8" transform="rotate(0,270,110)"/><rect x="266" y="114" width="8" height="8" transform="rotate(0,270,118)"/><rect x="266" y="130" width="8" height="8" transform="rotate(0,270,134)"/><rect x="266" y="138" width="8" height="8" transform="rotate(0,270,142)"/><rect x="266" y="170" width="8" height="8" transform="rotate(0,270,174)"/><rect x="266" y="218" width="8" height="8" transform="rotate(0,270,222)"/><rect x="266" y="226" width="8" height="8" transform="rotate(0,270,230)"/><rect x="266" y="242" width="8" height="8" transform="rotate(0,270,246)"/><rect x="266" y="250" width="8" height="8" transform="rotate(0,270,254)"/><rect x="266" y="258" width="8" height="8" transform="rotate(0,270,262)"/><rect x="266" y="266" width="8" height="8" transform="rotate(0,270,270)"/><rect x="266" y="274" width="8" height="8" transform="rotate(0,270,278)"/><rect x="266" y="282" width="8" height="8" transform="rotate(0,270,286)"/><rect x="274" y="66" width="8" height="8" transform="rotate(0,278,70)"/><rect x="274" y="90" width="8" height="8" transform="rotate(0,278,94)"/><rect x="274" y="106" width="8" height="8" transform="rotate(0,278,110)"/><rect x="274" y="114" width="8" height="8" transform="rotate(0,278,118)"/><rect x="274" y="170" width="8" height="8" transform="rotate(0,278,174)"/><rect x="274" y="242" width="8" height="8" transform="rotate(0,278,246)"/><rect x="274" y="258" width="8" height="8" transform="rotate(0,278,262)"/><rect x="274" y="266" width="8" height="8" transform="rotate(0,278,270)"/><rect x="274" y="282" width="8" height="8" transform="rotate(0,278,286)"/><rect x="282" y="66" width="8" height="8" transform="rotate(0,286,70)"/><rect x="282" y="82" width="8" height="8" transform="rotate(0,286,86)"/><rect x="282" y="90" width="8" height="8" transform="rotate(0,286,94)"/><rect x="282" y="98" width="8" height="8" transform="rotate(0,286,102)"/><rect x="282" y="106" width="8" height="8" transform="rotate(0,286,110)"/><rect x="282" y="114" width="8" height="8" transform="rotate(0,286,118)"/><rect x="282" y="138" width="8" height="8" transform="rotate(0,286,142)"/><rect x="282" y="146" width="8" height="8" transform="rotate(0,286,150)"/><rect x="282" y="154" width="8" height="8" transform="rotate(0,286,158)"/><rect x="282" y="186" width="8" height="8" transform="rotate(0,286,190)"/><rect x="282" y="194" width="8" height="8" transform="rotate(0,286,198)"/><rect x="282" y="202" width="8" height="8" transform="rotate(0,286,206)"/><rect x="282" y="210" width="8" height="8" transform="rotate(0,286,214)"/><rect x="282" y="218" width="8" height="8" transform="rotate(0,286,222)"/><rect x="282" y="234" width="8" height="8" transform="rotate(0,286,238)"/><rect x="282" y="242" width="8" height="8" transform="rotate(0,286,246)"/><rect x="282" y="258" width="8" height="8" transform="rotate(0,286,262)"/><rect x="282" y="266" width="8" height="8" transform="rotate(0,286,270)"/><rect x="282" y="274" width="8" height="8" transform="rotate(0,286,278)"/><rect x="290" y="82" width="8" height="8" transform="rotate(0,294,86)"/><rect x="290" y="90" width="8" height="8" transform="rotate(0,294,94)"/><rect x="290" y="114" width="8" height="8" transform="rotate(0,294,118)"/><rect x="290" y="146" width="8" height="8" transform="rotate(0,294,150)"/><rect x="290" y="186" width="8" height="8" transform="rotate(0,294,190)"/><rect x="290" y="202" width="8" height="8" transform="rotate(0,294,206)"/><rect x="290" y="210" width="8" height="8" transform="rotate(0,294,214)"/><rect x="290" y="266" width="8" height="8" transform="rotate(0,294,270)"/><rect x="290" y="274" width="8" height="8" transform="rotate(0,294,278)"/><rect x="290" y="282" width="8" height="8" transform="rotate(0,294,286)"/><rect x="290" y="290" width="8" height="8" transform="rotate(0,294,294)"/></clipPath><clipPath id="clip-path-corners-square-color-0-0"><path clip-rule="evenodd" d="M 2 2v 56h 56v -56zM 10 10h 40v 40h -40z" transform="rotate(0,30,30)"/></clipPath><clipPath id="clip-path-corners-dot-color-0-0"><rect x="18" y="18" width="24" height="24" transform="rotate(0,30,30)"/></clipPath><clipPath id="clip-path-corners-square-color-1-0"><path clip-rule="evenodd" d="M 242 2v 56h 56v -56zM 250 10h 40v 40h -40z" transform="rotate(90,270,30)"/></clipPath><clipPath id="clip-path-corners-dot-color-1-0"><rect x="258" y="18" width="24" height="24" transform="rotate(90,270,30)"/></clipPath><clipPath id="clip-path-corners-square-color-0-1"><path clip-rule="evenodd" d="M 2 242v 56h 56v -56zM 10 250h 40v 40h -40z" transform="rotate(-90,30,270)"/></clipPath><clipPath id="clip-path-corners-dot-color-0-1"><rect x="18" y="258" width="24" height="24" transform="rotate(-90,30,270)"/></clipPath></defs><rect x="0" y="0" height="300" width="300" clip-path="url('#clip-path-background-color')" fill="#ffffff"/><rect x="0" y="0" height="300" width="300" clip-path="url('#clip-path-dot-color')" fill="#000000"/><rect x="2" y="2" height="56" width="56" clip-path="url('#clip-path-corners-square-color-0-0')" fill="#000000"/><rect x="18" y="18" height="24" width="24" clip-path="url('#clip-path-corners-dot-color-0-0')" fill="#000000"/><rect x="242" y="2" height="56" width="56" clip-path="url('#clip-path-corners-square-color-1-0')" fill="#000000"/><rect x="258" y="18" height="24" width="24" clip-path="url('#clip-path-corners-dot-color-1-0')" fill="#000000"/><rect x="2" y="242" height="56" width="56" clip-path="url('#clip-path-corners-square-color-0-1')" fill="#000000"/><rect x="18" y="258" height="24" width="24" clip-path="url('#clip-path-corners-dot-color-0-1')" fill="#000000"/></svg>