<?xml version="1.0"?>
<svg xmlns="http://www.w3.org/2000/svg" xmlns:xlink="http://www.w3.org/1999/xlink" version="1.1" width="500px" height="500px" viewBox="0 0 500 500"><defs><rect id="block" width="11.111111111111" height="11.111111111111" fill="#000000" fill-opacity="1"/></defs><rect x="0" y="0" width="500" height="500" fill="#ffffff" fill-opacity="1"/><use x="0" y="0" xlink:href="#block"/><use x="11.111111111111" y="0" xlink:href="#block"/><use x="22.222222222222" y="0" xlink:href="#block"/><use x="33.333333333333" y="0" xlink:href="#block"/><use x="44.444444444444" y="0" xlink:href="#block"/><use x="55.555555555556" y="0" xlink:href="#block"/><use x="66.666666666667" y="0" xlink:href="#block"/><use x="88.888888888889" y="0" xlink:href="#block"/><use x="100" y="0" xlink:href="#block"/><use x="111.11111111111" y="0" xlink:href="#block"/><use x="133.33333333333" y="0" xlink:href="#block"/><use x="155.55555555556" y="0" xlink:href="#block"/><use x="177.77777777778" y="0" xlink:href="#block"/><use x="222.22222222222" y="0" xlink:href="#block"/><use x="233.33333333333" y="0" xlink:href="#block"/><use x="255.55555555556" y="0" xlink:href="#block"/><use x="277.77777777778" y="0" xlink:href="#block"/><use x="288.88888888889" y="0" xlink:href="#block"/><use x="300" y="0" xlink:href="#block"/><use x="311.11111111111" y="0" xlink:href="#block"/><use x="322.22222222222" y="0" xlink:href="#block"/><use x="355.55555555556" y="0" xlink:href="#block"/><use x="400" y="0" xlink:href="#block"/><use x="422.22222222222" y="0" xlink:href="#block"/><use x="433.33333333333" y="0" xlink:href="#block"/><use x="444.44444444444" y="0" xlink:href="#block"/><use x="455.55555555556" y="0" xlink:href="#block"/><use x="466.66666666667" y="0" xlink:href="#block"/><use x="477.77777777778" y="0" xlink:href="#block"/><use x="488.88888888889" y="0" xlink:href="#block"/><use x="0" y="11.111111111111" xlink:href="#block"/><use x="66.666666666667" y="11.111111111111" xlink:href="#block"/><use x="88.888888888889" y="11.111111111111" xlink:href="#block"/><use x="122.22222222222" y="11.111111111111" xlink:href="#block"/><use x="155.55555555556" y="11.111111111111" xlink:href="#block"/><use x="188.88888888889" y="11.111111111111" xlink:href="#block"/><use x="200" y="11.111111111111" xlink:href="#block"/><use x="266.66666666667" y="11.111111111111" xlink:href="#block"/><use x="277.77777777778" y="11.111111111111" xlink:href="#block"/><use x="322.22222222222" y="11.111111111111" xlink:href="#block"/><use x="344.44444444444" y="11.111111111111" xlink:href="#block"/><use x="366.66666666667" y="11.111111111111" xlink:href="#block"/><use x="388.88888888889" y="11.111111111111" xlink:href="#block"/><use x="422.22222222222" y="11.111111111111" xlink:href="#block"/><use x="488.88888888889" y="11.111111111111" xlink:href="#block"/><use x="0" y="22.222222222222" xlink:href="#block"/><use x="22.222222222222" y="22.222222222222" xlink:href="#block"/><use x="33.333333333333" y="22.222222222222" xlink:href="#block"/><use x="44.444444444444" y="22.222222222222" xlink:href="#block"/><use x="66.666666666667" y="22.222222222222" xlink:href="#block"/><use x="88.888888888889" y="22.222222222222" xlink:href="#block"/><use x="100" y="22.222222222222" xlink:href="#block"/><use x="122.22222222222" y="22.222222222222" xlink:href="#block"/><use x="133.33333333333" y="22.222222222222" xlink:href="#block"/><use x="144.44444444444" y="22.222222222222" xlink:href="#block"/><use x="155.55555555556" y="22.222222222222" xlink:href="#block"/><use x="177.77777777778" y="22.222222222222" xlink:href="#block"/><use x="200" y="22.222222222222" xlink:href="#block"/><use x="211.11111111111" y="22.222222222222" xlink:href="#block"/><use x="222.22222222222" y="22.222222222222" xlink:href="#block"/><use x="233.33333333333" y="22.222222222222" xlink:href="#block"/><use x="255.55555555556" y="22.222222222222" xlink:href="#block"/><use x="277.77777777778" y="22.222222222222" xlink:href="#block"/><use x="288.88888888889" y="22.222222222222" xlink:href="#block"/><use x="333.33333333333" y="22.222222222222" xlink:href="#block"/><use x="388.88888888889" y="22.222222222222" xlink:href="#block"/><use x="422.22222222222" y="22.222222222222" xlink:href="#block"/><use x="444.44444444444" y="22.222222222222" xlink:href="#block"/><use x="455.55555555556" y="22.222222222222" xlink:href="#block"/><use x="466.66666666667" y="22.222222222222" xlink:href="#block"/><use x="488.88888888889" y="22.222222222222" xlink:href="#block"/><use x="0" y="33.333333333333" xlink:href="#block"/><use x="22.222222222222" y="33.333333333333" xlink:href="#block"/><use x="33.333333333333" y="33.333333333333" xlink:href="#block"/><use x="44.444444444444" y="33.333333333333" xlink:href="#block"/><use x="66.666666666667" y="33.333333333333" xlink:href="#block"/><use x="100" y="33.333333333333" xlink:href="#block"/><use x="111.11111111111" y="33.333333333333" xlink:href="#block"/><use x="122.22222222222" y="33.333333333333" xlink:href="#block"/><use x="133.33333333333" y="33.333333333333" xlink:href="#block"/><use x="155.55555555556" y="33.333333333333" xlink:href="#block"/><use x="166.66666666667" y="33.333333333333" xlink:href="#block"/><use x="266.66666666667" y="33.333333333333" xlink:href="#block"/><use x="344.44444444444" y="33.333333333333" xlink:href="#block"/><use x="388.88888888889" y="33.333333333333" xlink:href="#block"/><use x="400" y="33.333333333333" xlink:href="#block"/><use x="422.22222222222" y="33.333333333333" xlink:href="#block"/><use x="444.44444444444" y="33.333333333333" xlink:href="#block"/><use x="455.55555555556" y="33.333333333333" xlink:href="#block"/><use x="466.66666666667" y="33.333333333333" xlink:href="#block"/><use x="488.88888888889" y="33.333333333333" xlink:href="#block"/><use x="0" y="44.444444444444" xlink:href="#block"/><use x="22.222222222222" y="44.444444444444" xlink:href="#block"/><use x="33.333333333333" y="44.444444444444" xlink:href="#block"/><use x="44.444444444444" y="44.444444444444" xlink:href="#block"/><use x="66.666666666667" y="44.444444444444" xlink:href="#block"/><use x="111.11111111111" y="44.444444444444" xlink:href="#block"/><use x="133.33333333333" y="44.444444444444" xlink:href="#block"/><use x="144.44444444444" y="44.444444444444" xlink:href="#block"/><use x="155.55555555556" y="44.444444444444" xlink:href="#block"/><use x="188.88888888889" y="44.444444444444" xlink:href="#block"/><use x="211.11111111111" y="44.444444444444" xlink:href="#block"/><use x="222.22222222222" y="44.444444444444" xlink:href="#block"/><use x="233.33333333333" y="44.444444444444" xlink:href="#block"/><use x="244.44444444444" y="44.444444444444" xlink:href="#block"/><use x="255.55555555556" y="44.444444444444" xlink:href="#block"/><use x="266.66666666667" y="44.444444444444" xlink:href="#block"/><use x="288.88888888889" y="44.444444444444" xlink:href="#block"/><use x="300" y="44.444444444444" xlink:href="#block"/><use x="311.11111111111" y="44.444444444444" xlink:href="#block"/><use x="322.22222222222" y="44.444444444444" xlink:href="#block"/><use x="355.55555555556" y="44.444444444444" xlink:href="#block"/><use x="366.66666666667" y="44.444444444444" xlink:href="#block"/><use x="377.77777777778" y="44.444444444444" xlink:href="#block"/><use x="388.88888888889" y="44.444444444444" xlink:href="#block"/><use x="400" y="44.444444444444" xlink:href="#block"/><use x="422.22222222222" y="44.444444444444" xlink:href="#block"/><use x="444.44444444444" y="44.444444444444" xlink:href="#block"/><use x="455.55555555556" y="44.444444444444" xlink:href="#block"/><use x="466.66666666667" y="44.444444444444" xlink:href="#block"/><use x="488.88888888889" y="44.444444444444" xlink:href="#block"/><use x="0" y="55.555555555556" xlink:href="#block"/><use x="66.666666666667" y="55.555555555556" xlink:href="#block"/><use x="88.888888888889" y="55.555555555556" xlink:href="#block"/><use x="177.77777777778" y="55.555555555556" xlink:href="#block"/><use x="188.88888888889" y="55.555555555556" xlink:href="#block"/><use x="200" y="55.555555555556" xlink:href="#block"/><use x="211.11111111111" y="55.555555555556" xlink:href="#block"/><use x="222.22222222222" y="55.555555555556" xlink:href="#block"/><use x="266.66666666667" y="55.555555555556" xlink:href="#block"/><use x="277.77777777778" y="55.555555555556" xlink:href="#block"/><use x="288.88888888889" y="55.555555555556" xlink:href="#block"/><use x="322.22222222222" y="55.555555555556" xlink:href="#block"/><use x="344.44444444444" y="55.555555555556" xlink:href="#block"/><use x="422.22222222222" y="55.555555555556" xlink:href="#block"/><use x="488.88888888889" y="55.555555555556" xlink:href="#block"/><use x="0" y="66.666666666667" xlink:href="#block"/><use x="11.111111111111" y="66.666666666667" xlink:href="#block"/><use x="22.222222222222" y="66.666666666667" xlink:href="#block"/><use x="33.333333333333" y="66.666666666667" xlink:href="#block"/><use x="44.444444444444" y="66.666666666667" xlink:href="#block"/><use x="55.555555555556" y="66.666666666667" xlink:href="#block"/><use x="66.666666666667" y="66.666666666667" xlink:href="#block"/><use x="88.888888888889" y="66.666666666667" xlink:href="#block"/><use x="111.11111111111" y="66.666666666667" xlink:href="#block"/><use x="133.33333333333" y="66.666666666667" xlink:href="#block"/><use x="155.55555555556" y="66.666666666667" xlink:href="#block"/><use x="177.77777777778" y="66.666666666667" xlink:href="#block"/><use x="200" y="66.666666666667" xlink:href="#block"/><use x="222.22222222222" y="66.666666666667" xlink:href="#block"/><use x="244.44444444444" y="66.666666666667" xlink:href="#block"/><use x="266.66666666667" y="66.666666666667" xlink:href="#block"/><use x="288.88888888889" y="66.666666666667" xlink:href="#block"/><use x="311.11111111111" y="66.666666666667" xlink:href="#block"/><use x="333.33333333333" y="66.666666666667" xlink:href="#block"/><use x="355.55555555556" y="66.666666666667" xlink:href="#block"/><use x="377.77777777778" y="66.666666666667" xlink:href="#block"/><use x="400" y="66.666666666667" xlink:href="#block"/><use x="422.22222222222" y="66.666666666667" xlink:href="#block"/><use x="433.33333333333" y="66.666666666667" xlink:href="#block"/><use x="444.44444444444" y="66.666666666667" xlink:href="#block"/><use x="455.55555555556" y="66.666666666667" xlink:href="#block"/><use x="466.66666666667" y="66.666666666667" xlink:href="#block"/><use x="477.77777777778" y="66.666666666667" xlink:href="#block"/><use x="488.88888888889" y="66.666666666667" xlink:href="#block"/><use x="88.888888888889" y="77.777777777778" xlink:href="#block"/><use x="122.22222222222" y="77.777777777778" xlink:href="#block"/><use x="144.44444444444" y="77.777777777778" xlink:href="#block"/><use x="188.88888888889" y="77.777777777778" xlink:href="#block"/><use x="222.22222222222" y="77.777777777778" xlink:href="#block"/><use x="266.66666666667" y="77.777777777778" xlink:href="#block"/><use x="288.88888888889" y="77.777777777778" xlink:href="#block"/><use x="300" y="77.777777777778" xlink:href="#block"/><use x="311.11111111111" y="77.777777777778" xlink:href="#block"/><use x="333.33333333333" y="77.777777777778" xlink:href="#block"/><use x="344.44444444444" y="77.777777777778" xlink:href="#block"/><use x="366.66666666667" y="77.777777777778" xlink:href="#block"/><use x="400" y="77.777777777778" xlink:href="#block"/><use x="22.222222222222" y="88.888888888889" xlink:href="#block"/><use x="33.333333333333" y="88.888888888889" xlink:href="#block"/><use x="44.444444444444" y="88.888888888889" xlink:href="#block"/><use x="66.666666666667" y="88.888888888889" xlink:href="#block"/><use x="88.888888888889" y="88.888888888889" xlink:href="#block"/><use x="100" y="88.888888888889" xlink:href="#block"/><use x="133.33333333333" y="88.888888888889" xlink:href="#block"/><use x="166.66666666667" y="88.888888888889" xlink:href="#block"/><use x="200" y="88.888888888889" xlink:href="#block"/><use x="211.11111111111" y="88.888888888889" xlink:href="#block"/><use x="222.22222222222" y="88.888888888889" xlink:href="#block"/><use x="233.33333333333" y="88.888888888889" xlink:href="#block"/><use x="244.44444444444" y="88.888888888889" xlink:href="#block"/><use x="255.55555555556" y="88.888888888889" xlink:href="#block"/><use x="266.66666666667" y="88.888888888889" xlink:href="#block"/><use x="277.77777777778" y="88.888888888889" xlink:href="#block"/><use x="288.88888888889" y="88.888888888889" xlink:href="#block"/><use x="300" y="88.888888888889" xlink:href="#block"/><use x="322.22222222222" y="88.888888888889" xlink:href="#block"/><use x="355.55555555556" y="88.888888888889" xlink:href="#block"/><use x="377.77777777778" y="88.888888888889" xlink:href="#block"/><use x="388.88888888889" y="88.888888888889" xlink:href="#block"/><use x="400" y="88.888888888889" xlink:href="#block"/><use x="411.11111111111" y="88.888888888889" xlink:href="#block"/><use x="422.22222222222" y="88.888888888889" xlink:href="#block"/><use x="433.33333333333" y="88.888888888889" xlink:href="#block"/><use x="466.66666666667" y="88.888888888889" xlink:href="#block"/><use x="477.77777777778" y="88.888888888889" xlink:href="#block"/><use x="488.88888888889" y="88.888888888889" xlink:href="#block"/><use x="0" y="100" xlink:href="#block"/><use x="11.111111111111" y="100" xlink:href="#block"/><use x="33.333333333333" y="100" xlink:href="#block"/><use x="44.444444444444" y="100" xlink:href="#block"/><use x="77.777777777778" y="100" xlink:href="#block"/><use x="100" y="100" xlink:href="#block"/><use x="111.11111111111" y="100" xlink:href="#block"/><use x="155.55555555556" y="100" xlink:href="#block"/><use x="166.66666666667" y="100" xlink:href="#block"/><use x="200" y="100" xlink:href="#block"/><use x="255.55555555556" y="100" xlink:href="#block"/><use x="266.66666666667" y="100" xlink:href="#block"/><use x="277.77777777778" y="100" xlink:href="#block"/><use x="288.88888888889" y="100" xlink:href="#block"/><use x="311.11111111111" y="100" xlink:href="#block"/><use x="333.33333333333" y="100" xlink:href="#block"/><use x="344.44444444444" y="100" xlink:href="#block"/><use x="355.55555555556" y="100" xlink:href="#block"/><use x="366.66666666667" y="100" xlink:href="#block"/><use x="377.77777777778" y="100" xlink:href="#block"/><use x="388.88888888889" y="100" xlink:href="#block"/><use x="400" y="100" xlink:href="#block"/><use x="411.11111111111" y="100" xlink:href="#block"/><use x="422.22222222222" y="100" xlink:href="#block"/><use x="433.33333333333" y="100" xlink:href="#block"/><use x="444.44444444444" y="100" xlink:href="#block"/><use x="466.66666666667" y="100" xlink:href="#block"/><use x="0" y="111.11111111111" xlink:href="#block"/><use x="11.111111111111" y="111.11111111111" xlink:href="#block"/><use x="22.222222222222" y="111.11111111111" xlink:href="#block"/><use x="44.444444444444" y="111.11111111111" xlink:href="#block"/><use x="66.666666666667" y="111.11111111111" xlink:href="#block"/><use x="122.22222222222" y="111.11111111111" xlink:href="#block"/><use x="144.44444444444" y="111.11111111111" xlink:href="#block"/><use x="155.55555555556" y="111.11111111111" xlink:href="#block"/><use x="177.77777777778" y="111.11111111111" xlink:href="#block"/><use x="222.22222222222" y="111.11111111111" xlink:href="#block"/><use x="233.33333333333" y="111.11111111111" xlink:href="#block"/><use x="266.66666666667" y="111.11111111111" xlink:href="#block"/><use x="288.88888888889" y="111.11111111111" xlink:href="#block"/><use x="322.22222222222" y="111.11111111111" xlink:href="#block"/><use x="366.66666666667" y="111.11111111111" xlink:href="#block"/><use x="377.77777777778" y="111.11111111111" xlink:href="#block"/><use x="411.11111111111" y="111.11111111111" xlink:href="#block"/><use x="422.22222222222" y="111.11111111111" xlink:href="#block"/><use x="433.33333333333" y="111.11111111111" xlink:href="#block"/><use x="455.55555555556" y="111.11111111111" xlink:href="#block"/><use x="477.77777777778" y="111.11111111111" xlink:href="#block"/><use x="488.88888888889" y="111.11111111111" xlink:href="#block"/><use x="77.777777777778" y="122.22222222222" xlink:href="#block"/><use x="88.888888888889" y="122.22222222222" xlink:href="#block"/><use x="100" y="122.22222222222" xlink:href="#block"/><use x="133.33333333333" y="122.22222222222" xlink:href="#block"/><use x="144.44444444444" y="122.22222222222" xlink:href="#block"/><use x="188.88888888889" y="122.22222222222" xlink:href="#block"/><use x="255.55555555556" y="122.22222222222" xlink:href="#block"/><use x="266.66666666667" y="122.22222222222" xlink:href="#block"/><use x="277.77777777778" y="122.22222222222" xlink:href="#block"/><use x="288.88888888889" y="122.22222222222" xlink:href="#block"/><use x="300" y="122.22222222222" xlink:href="#block"/><use x="333.33333333333" y="122.22222222222" xlink:href="#block"/><use x="355.55555555556" y="122.22222222222" xlink:href="#block"/><use x="388.88888888889" y="122.22222222222" xlink:href="#block"/><use x="400" y="122.22222222222" xlink:href="#block"/><use x="411.11111111111" y="122.22222222222" xlink:href="#block"/><use x="433.33333333333" y="122.22222222222" xlink:href="#block"/><use x="466.66666666667" y="122.22222222222" xlink:href="#block"/><use x="488.88888888889" y="122.22222222222" xlink:href="#block"/><use x="11.111111111111" y="133.33333333333" xlink:href="#block"/><use x="22.222222222222" y="133.33333333333" xlink:href="#block"/><use x="55.555555555556" y="133.33333333333" xlink:href="#block"/><use x="66.666666666667" y="133.33333333333" xlink:href="#block"/><use x="77.777777777778" y="133.33333333333" xlink:href="#block"/><use x="88.888888888889" y="133.33333333333" xlink:href="#block"/><use x="111.11111111111" y="133.33333333333" xlink:href="#block"/><use x="144.44444444444" y="133.33333333333" xlink:href="#block"/><use x="155.55555555556" y="133.33333333333" xlink:href="#block"/><use x="166.66666666667" y="133.33333333333" xlink:href="#block"/><use x="188.88888888889" y="133.33333333333" xlink:href="#block"/><use x="211.11111111111" y="133.33333333333" xlink:href="#block"/><use x="222.22222222222" y="133.33333333333" xlink:href="#block"/><use x="266.66666666667" y="133.33333333333" xlink:href="#block"/><use x="288.88888888889" y="133.33333333333" xlink:href="#block"/><use x="322.22222222222" y="133.33333333333" xlink:href="#block"/><use x="366.66666666667" y="133.33333333333" xlink:href="#block"/><use x="377.77777777778" y="133.33333333333" xlink:href="#block"/><use x="411.11111111111" y="133.33333333333" xlink:href="#block"/><use x="422.22222222222" y="133.33333333333" xlink:href="#block"/><use x="477.77777777778" y="133.33333333333" xlink:href="#block"/><use x="0" y="144.44444444444" xlink:href="#block"/><use x="44.444444444444" y="144.44444444444" xlink:href="#block"/><use x="55.555555555556" y="144.44444444444" xlink:href="#block"/><use x="77.777777777778" y="144.44444444444" xlink:href="#block"/><use x="88.888888888889" y="144.44444444444" xlink:href="#block"/><use x="100" y="144.44444444444" xlink:href="#block"/><use x="133.33333333333" y="144.44444444444" xlink:href="#block"/><use x="166.66666666667" y="144.44444444444" xlink:href="#block"/><use x="177.77777777778" y="144.44444444444" xlink:href="#block"/><use x="222.22222222222" y="144.44444444444" xlink:href="#block"/><use x="233.33333333333" y="144.44444444444" xlink:href="#block"/><use x="300" y="144.44444444444" xlink:href="#block"/><use x="311.11111111111" y="144.44444444444" xlink:href="#block"/><use x="322.22222222222" y="144.44444444444" xlink:href="#block"/><use x="333.33333333333" y="144.44444444444" xlink:href="#block"/><use x="344.44444444444" y="144.44444444444" xlink:href="#block"/><use x="355.55555555556" y="144.44444444444" xlink:href="#block"/><use x="377.77777777778" y="144.44444444444" xlink:href="#block"/><use x="388.88888888889" y="144.44444444444" xlink:href="#block"/><use x="400" y="144.44444444444" xlink:href="#block"/><use x="411.11111111111" y="144.44444444444" xlink:href="#block"/><use x="444.44444444444" y="144.44444444444" xlink:href="#block"/><use x="466.66666666667" y="144.44444444444" xlink:href="#block"/><use x="488.88888888889" y="144.44444444444" xlink:href="#block"/><use x="0" y="155.55555555556" xlink:href="#block"/><use x="22.222222222222" y="155.55555555556" xlink:href="#block"/><use x="55.555555555556" y="155.55555555556" xlink:href="#block"/><use x="66.666666666667" y="155.55555555556" xlink:href="#block"/><use x="122.22222222222" y="155.55555555556" xlink:href="#block"/><use x="133.33333333333" y="155.55555555556" xlink:href="#block"/><use x="177.77777777778" y="155.55555555556" xlink:href="#block"/><use x="188.88888888889" y="155.55555555556" xlink:href="#block"/><use x="200" y="155.55555555556" xlink:href="#block"/><use x="211.11111111111" y="155.55555555556" xlink:href="#block"/><use x="222.22222222222" y="155.55555555556" xlink:href="#block"/><use x="244.44444444444" y="155.55555555556" xlink:href="#block"/><use x="255.55555555556" y="155.55555555556" xlink:href="#block"/><use x="266.66666666667" y="155.55555555556" xlink:href="#block"/><use x="311.11111111111" y="155.55555555556" xlink:href="#block"/><use x="377.77777777778" y="155.55555555556" xlink:href="#block"/><use x="455.55555555556" y="155.55555555556" xlink:href="#block"/><use x="477.77777777778" y="155.55555555556" xlink:href="#block"/><use x="488.88888888889" y="155.55555555556" xlink:href="#block"/><use x="0" y="166.66666666667" xlink:href="#block"/><use x="22.222222222222" y="166.66666666667" xlink:href="#block"/><use x="33.333333333333" y="166.66666666667" xlink:href="#block"/><use x="100" y="166.66666666667" xlink:href="#block"/><use x="111.11111111111" y="166.66666666667" xlink:href="#block"/><use x="122.22222222222" y="166.66666666667" xlink:href="#block"/><use x="133.33333333333" y="166.66666666667" xlink:href="#block"/><use x="144.44444444444" y="166.66666666667" xlink:href="#block"/><use x="155.55555555556" y="166.66666666667" xlink:href="#block"/><use x="166.66666666667" y="166.66666666667" xlink:href="#block"/><use x="177.77777777778" y="166.66666666667" xlink:href="#block"/><use x="188.88888888889" y="166.66666666667" xlink:href="#block"/><use x="200" y="166.66666666667" xlink:href="#block"/><use x="211.11111111111" y="166.66666666667" xlink:href="#block"/><use x="233.33333333333" y="166.66666666667" xlink:href="#block"/><use x="277.77777777778" y="166.66666666667" xlink:href="#block"/><use x="311.11111111111" y="166.66666666667" xlink:href="#block"/><use x="333.33333333333" y="166.66666666667" xlink:href="#block"/><use x="344.44444444444" y="166.66666666667" xlink:href="#block"/><use x="388.88888888889" y="166.66666666667" xlink:href="#block"/><use x="400" y="166.66666666667" xlink:href="#block"/><use x="411.11111111111" y="166.66666666667" xlink:href="#block"/><use x="433.33333333333" y="166.66666666667" xlink:href="#block"/><use x="444.44444444444" y="166.66666666667" xlink:href="#block"/><use x="455.55555555556" y="166.66666666667" xlink:href="#block"/><use x="488.88888888889" y="166.66666666667" xlink:href="#block"/><use x="11.111111111111" y="177.77777777778" xlink:href="#block"/><use x="22.222222222222" y="177.77777777778" xlink:href="#block"/><use x="55.555555555556" y="177.77777777778" xlink:href="#block"/><use x="66.666666666667" y="177.77777777778" xlink:href="#block"/><use x="77.777777777778" y="177.77777777778" xlink:href="#block"/><use x="88.888888888889" y="177.77777777778" xlink:href="#block"/><use x="122.22222222222" y="177.77777777778" xlink:href="#block"/><use x="133.33333333333" y="177.77777777778" xlink:href="#block"/><use x="144.44444444444" y="177.77777777778" xlink:href="#block"/><use x="155.55555555556" y="177.77777777778" xlink:href="#block"/><use x="166.66666666667" y="177.77777777778" xlink:href="#block"/><use x="200" y="177.77777777778" xlink:href="#block"/><use x="211.11111111111" y="177.77777777778" xlink:href="#block"/><use x="222.22222222222" y="177.77777777778" xlink:href="#block"/><use x="233.33333333333" y="177.77777777778" xlink:href="#block"/><use x="266.66666666667" y="177.77777777778" xlink:href="#block"/><use x="277.77777777778" y="177.77777777778" xlink:href="#block"/><use x="311.11111111111" y="177.77777777778" xlink:href="#block"/><use x="333.33333333333" y="177.77777777778" xlink:href="#block"/><use x="344.44444444444" y="177.77777777778" xlink:href="#block"/><use x="366.66666666667" y="177.77777777778" xlink:href="#block"/><use x="377.77777777778" y="177.77777777778" xlink:href="#block"/><use x="388.88888888889" y="177.77777777778" xlink:href="#block"/><use x="411.11111111111" y="177.77777777778" xlink:href="#block"/><use x="422.22222222222" y="177.77777777778" xlink:href="#block"/><use x="444.44444444444" y="177.77777777778" xlink:href="#block"/><use x="455.55555555556" y="177.77777777778" xlink:href="#block"/><use x="466.66666666667" y="177.77777777778" xlink:href="#block"/><use x="477.77777777778" y="177.77777777778" xlink:href="#block"/><use x="22.222222222222" y="188.88888888889" xlink:href="#block"/><use x="77.777777777778" y="188.88888888889" xlink:href="#block"/><use x="111.11111111111" y="188.88888888889" xlink:href="#block"/><use x="133.33333333333" y="188.88888888889" xlink:href="#block"/><use x="144.44444444444" y="188.88888888889" xlink:href="#block"/><use x="155.55555555556" y="188.88888888889" xlink:href="#block"/><use x="166.66666666667" y="188.88888888889" xlink:href="#block"/><use x="222.22222222222" y="188.88888888889" xlink:href="#block"/><use x="244.44444444444" y="188.88888888889" xlink:href="#block"/><use x="255.55555555556" y="188.88888888889" xlink:href="#block"/><use x="277.77777777778" y="188.88888888889" xlink:href="#block"/><use x="288.88888888889" y="188.88888888889" xlink:href="#block"/><use x="311.11111111111" y="188.88888888889" xlink:href="#block"/><use x="333.33333333333" y="188.88888888889" xlink:href="#block"/><use x="344.44444444444" y="188.88888888889" xlink:href="#block"/><use x="355.55555555556" y="188.88888888889" xlink:href="#block"/><use x="366.66666666667" y="188.88888888889" xlink:href="#block"/><use x="400" y="188.88888888889" xlink:href="#block"/><use x="411.11111111111" y="188.88888888889" xlink:href="#block"/><use x="433.33333333333" y="188.88888888889" xlink:href="#block"/><use x="444.44444444444" y="188.88888888889" xlink:href="#block"/><use x="466.66666666667" y="188.88888888889" xlink:href="#block"/><use x="488.88888888889" y="188.88888888889" xlink:href="#block"/><use x="0" y="200" xlink:href="#block"/><use x="55.555555555556" y="200" xlink:href="#block"/><use x="66.666666666667" y="200" xlink:href="#block"/><use x="77.777777777778" y="200" xlink:href="#block"/><use x="88.888888888889" y="200" xlink:href="#block"/><use x="122.22222222222" y="200" xlink:href="#block"/><use x="133.33333333333" y="200" xlink:href="#block"/><use x="155.55555555556" y="200" xlink:href="#block"/><use x="166.66666666667" y="200" xlink:href="#block"/><use x="177.77777777778" y="200" xlink:href="#block"/><use x="188.88888888889" y="200" xlink:href="#block"/><use x="200" y="200" xlink:href="#block"/><use x="222.22222222222" y="200" xlink:href="#block"/><use x="233.33333333333" y="200" xlink:href="#block"/><use x="266.66666666667" y="200" xlink:href="#block"/><use x="288.88888888889" y="200" xlink:href="#block"/><use x="333.33333333333" y="200" xlink:href="#block"/><use x="344.44444444444" y="200" xlink:href="#block"/><use x="377.77777777778" y="200" xlink:href="#block"/><use x="477.77777777778" y="200" xlink:href="#block"/><use x="0" y="211.11111111111" xlink:href="#block"/><use x="11.111111111111" y="211.11111111111" xlink:href="#block"/><use x="33.333333333333" y="211.11111111111" xlink:href="#block"/><use x="44.444444444444" y="211.11111111111" xlink:href="#block"/><use x="88.888888888889" y="211.11111111111" xlink:href="#block"/><use x="111.11111111111" y="211.11111111111" xlink:href="#block"/><use x="122.22222222222" y="211.11111111111" xlink:href="#block"/><use x="133.33333333333" y="211.11111111111" xlink:href="#block"/><use x="155.55555555556" y="211.11111111111" xlink:href="#block"/><use x="166.66666666667" y="211.11111111111" xlink:href="#block"/><use x="188.88888888889" y="211.11111111111" xlink:href="#block"/><use x="222.22222222222" y="211.11111111111" xlink:href="#block"/><use x="255.55555555556" y="211.11111111111" xlink:href="#block"/><use x="288.88888888889" y="211.11111111111" xlink:href="#block"/><use x="300" y="211.11111111111" xlink:href="#block"/><use x="322.22222222222" y="211.11111111111" xlink:href="#block"/><use x="344.44444444444" y="211.11111111111" xlink:href="#block"/><use x="355.55555555556" y="211.11111111111" xlink:href="#block"/><use x="388.88888888889" y="211.11111111111" xlink:href="#block"/><use x="400" y="211.11111111111" xlink:href="#block"/><use x="411.11111111111" y="211.11111111111" xlink:href="#block"/><use x="433.33333333333" y="211.11111111111" xlink:href="#block"/><use x="444.44444444444" y="211.11111111111" xlink:href="#block"/><use x="455.55555555556" y="211.11111111111" xlink:href="#block"/><use x="488.88888888889" y="211.11111111111" xlink:href="#block"/><use x="22.222222222222" y="222.22222222222" xlink:href="#block"/><use x="44.444444444444" y="222.22222222222" xlink:href="#block"/><use x="55.555555555556" y="222.22222222222" xlink:href="#block"/><use x="66.666666666667" y="222.22222222222" xlink:href="#block"/><use x="77.777777777778" y="222.22222222222" xlink:href="#block"/><use x="88.888888888889" y="222.22222222222" xlink:href="#block"/><use x="111.11111111111" y="222.22222222222" xlink:href="#block"/><use x="122.22222222222" y="222.22222222222" xlink:href="#block"/><use x="133.33333333333" y="222.22222222222" xlink:href="#block"/><use x="155.55555555556" y="222.22222222222" xlink:href="#block"/><use x="188.88888888889" y="222.22222222222" xlink:href="#block"/><use x="200" y="222.22222222222" xlink:href="#block"/><use x="222.22222222222" y="222.22222222222" xlink:href="#block"/><use x="233.33333333333" y="222.22222222222" xlink:href="#block"/><use x="244.44444444444" y="222.22222222222" xlink:href="#block"/><use x="255.55555555556" y="222.22222222222" xlink:href="#block"/><use x="266.66666666667" y="222.22222222222" xlink:href="#block"/><use x="277.77777777778" y="222.22222222222" xlink:href="#block"/><use x="300" y="222.22222222222" xlink:href="#block"/><use x="311.11111111111" y="222.22222222222" xlink:href="#block"/><use x="377.77777777778" y="222.22222222222" xlink:href="#block"/><use x="388.88888888889" y="222.22222222222" xlink:href="#block"/><use x="400" y="222.22222222222" xlink:href="#block"/><use x="411.11111111111" y="222.22222222222" xlink:href="#block"/><use x="422.22222222222" y="222.22222222222" xlink:href="#block"/><use x="433.33333333333" y="222.22222222222" xlink:href="#block"/><use x="444.44444444444" y="222.22222222222" xlink:href="#block"/><use x="477.77777777778" y="222.22222222222" xlink:href="#block"/><use x="22.222222222222" y="233.33333333333" xlink:href="#block"/><use x="33.333333333333" y="233.33333333333" xlink:href="#block"/><use x="44.444444444444" y="233.33333333333" xlink:href="#block"/><use x="88.888888888889" y="233.33333333333" xlink:href="#block"/><use x="100" y="233.33333333333" xlink:href="#block"/><use x="122.22222222222" y="233.33333333333" xlink:href="#block"/><use x="133.33333333333" y="233.33333333333" xlink:href="#block"/><use x="144.44444444444" y="233.33333333333" xlink:href="#block"/><use x="155.55555555556" y="233.33333333333" xlink:href="#block"/><use x="166.66666666667" y="233.33333333333" xlink:href="#block"/><use x="177.77777777778" y="233.33333333333" xlink:href="#block"/><use x="211.11111111111" y="233.33333333333" xlink:href="#block"/><use x="222.22222222222" y="233.33333333333" xlink:href="#block"/><use x="266.66666666667" y="233.33333333333" xlink:href="#block"/><use x="288.88888888889" y="233.33333333333" xlink:href="#block"/><use x="311.11111111111" y="233.33333333333" xlink:href="#block"/><use x="322.22222222222" y="233.33333333333" xlink:href="#block"/><use x="355.55555555556" y="233.33333333333" xlink:href="#block"/><use x="366.66666666667" y="233.33333333333" xlink:href="#block"/><use x="388.88888888889" y="233.33333333333" xlink:href="#block"/><use x="400" y="233.33333333333" xlink:href="#block"/><use x="444.44444444444" y="233.33333333333" xlink:href="#block"/><use x="455.55555555556" y="233.33333333333" xlink:href="#block"/><use x="466.66666666667" y="233.33333333333" xlink:href="#block"/><use x="22.222222222222" y="244.44444444444" xlink:href="#block"/><use x="33.333333333333" y="244.44444444444" xlink:href="#block"/><use x="44.444444444444" y="244.44444444444" xlink:href="#block"/><use x="66.666666666667" y="244.44444444444" xlink:href="#block"/><use x="88.888888888889" y="244.44444444444" xlink:href="#block"/><use x="111.11111111111" y="244.44444444444" xlink:href="#block"/><use x="122.22222222222" y="244.44444444444" xlink:href="#block"/><use x="133.33333333333" y="244.44444444444" xlink:href="#block"/><use x="144.44444444444" y="244.44444444444" xlink:href="#block"/><use x="166.66666666667" y="244.44444444444" xlink:href="#block"/><use x="188.88888888889" y="244.44444444444" xlink:href="#block"/><use x="211.11111111111" y="244.44444444444" xlink:href="#block"/><use x="222.22222222222" y="244.44444444444" xlink:href="#block"/><use x="244.44444444444" y="244.44444444444" xlink:href="#block"/><use x="266.66666666667" y="244.44444444444" xlink:href="#block"/><use x="277.77777777778" y="244.44444444444" xlink:href="#block"/><use x="288.88888888889" y="244.44444444444" xlink:href="#block"/><use x="300" y="244.44444444444" xlink:href="#block"/><use x="311.11111111111" y="244.44444444444" xlink:href="#block"/><use x="333.33333333333" y="244.44444444444" xlink:href="#block"/><use x="344.44444444444" y="244.44444444444" xlink:href="#block"/><use x="377.77777777778" y="244.44444444444" xlink:href="#block"/><use x="400" y="244.44444444444" xlink:href="#block"/><use x="422.22222222222" y="244.44444444444" xlink:href="#block"/><use x="444.44444444444" y="244.44444444444" xlink:href="#block"/><use x="477.77777777778" y="244.44444444444" xlink:href="#block"/><use x="11.111111111111" y="255.55555555556" xlink:href="#block"/><use x="22.222222222222" y="255.55555555556" xlink:href="#block"/><use x="33.333333333333" y="255.55555555556" xlink:href="#block"/><use x="44.444444444444" y="255.55555555556" xlink:href="#block"/><use x="88.888888888889" y="255.55555555556" xlink:href="#block"/><use x="111.11111111111" y="255.55555555556" xlink:href="#block"/><use x="122.22222222222" y="255.55555555556" xlink:href="#block"/><use x="144.44444444444" y="255.55555555556" xlink:href="#block"/><use x="166.66666666667" y="255.55555555556" xlink:href="#block"/><use x="222.22222222222" y="255.55555555556" xlink:href="#block"/><use x="266.66666666667" y="255.55555555556" xlink:href="#block"/><use x="277.77777777778" y="255.55555555556" xlink:href="#block"/><use x="355.55555555556" y="255.55555555556" xlink:href="#block"/><use x="400" y="255.55555555556" xlink:href="#block"/><use x="444.44444444444" y="255.55555555556" xlink:href="#block"/><use x="455.55555555556" y="255.55555555556" xlink:href="#block"/><use x="488.88888888889" y="255.55555555556" xlink:href="#block"/><use x="11.111111111111" y="266.66666666667" xlink:href="#block"/><use x="22.222222222222" y="266.66666666667" xlink:href="#block"/><use x="33.333333333333" y="266.66666666667" xlink:href="#block"/><use x="44.444444444444" y="266.66666666667" xlink:href="#block"/><use x="55.555555555556" y="266.66666666667" xlink:href="#block"/><use x="66.666666666667" y="266.66666666667" xlink:href="#block"/><use x="77.777777777778" y="266.66666666667" xlink:href="#block"/><use x="88.888888888889" y="266.66666666667" xlink:href="#block"/><use x="111.11111111111" y="266.66666666667" xlink:href="#block"/><use x="144.44444444444" y="266.66666666667" xlink:href="#block"/><use x="155.55555555556" y="266.66666666667" xlink:href="#block"/><use x="166.66666666667" y="266.66666666667" xlink:href="#block"/><use x="200" y="266.66666666667" xlink:href="#block"/><use x="211.11111111111" y="266.66666666667" xlink:href="#block"/><use x="222.22222222222" y="266.66666666667" xlink:href="#block"/><use x="233.33333333333" y="266.66666666667" xlink:href="#block"/><use x="244.44444444444" y="266.66666666667" xlink:href="#block"/><use x="255.55555555556" y="266.66666666667" xlink:href="#block"/><use x="266.66666666667" y="266.66666666667" xlink:href="#block"/><use x="366.66666666667" y="266.66666666667" xlink:href="#block"/><use x="377.77777777778" y="266.66666666667" xlink:href="#block"/><use x="388.88888888889" y="266.66666666667" xlink:href="#block"/><use x="400" y="266.66666666667" xlink:href="#block"/><use x="411.11111111111" y="266.66666666667" xlink:href="#block"/><use x="422.22222222222" y="266.66666666667" xlink:href="#block"/><use x="433.33333333333" y="266.66666666667" xlink:href="#block"/><use x="444.44444444444" y="266.66666666667" xlink:href="#block"/><use x="466.66666666667" y="266.66666666667" xlink:href="#block"/><use x="488.88888888889" y="266.66666666667" xlink:href="#block"/><use x="44.444444444444" y="277.77777777778" xlink:href="#block"/><use x="88.888888888889" y="277.77777777778" xlink:href="#block"/><use x="100" y="277.77777777778" xlink:href="#block"/><use x="111.11111111111" y="277.77777777778" xlink:href="#block"/><use x="122.22222222222" y="277.77777777778" xlink:href="#block"/><use x="144.44444444444" y="277.77777777778" xlink:href="#block"/><use x="166.66666666667" y="277.77777777778" xlink:href="#block"/><use x="222.22222222222" y="277.77777777778" xlink:href="#block"/><use x="233.33333333333" y="277.77777777778" xlink:href="#block"/><use x="244.44444444444" y="277.77777777778" xlink:href="#block"/><use x="255.55555555556" y="277.77777777778" xlink:href="#block"/><use x="277.77777777778" y="277.77777777778" xlink:href="#block"/><use x="288.88888888889" y="277.77777777778" xlink:href="#block"/><use x="311.11111111111" y="277.77777777778" xlink:href="#block"/><use x="333.33333333333" y="277.77777777778" xlink:href="#block"/><use x="344.44444444444" y="277.77777777778" xlink:href="#block"/><use x="355.55555555556" y="277.77777777778" xlink:href="#block"/><use x="366.66666666667" y="277.77777777778" xlink:href="#block"/><use x="388.88888888889" y="277.77777777778" xlink:href="#block"/><use x="422.22222222222" y="277.77777777778" xlink:href="#block"/><use x="444.44444444444" y="277.77777777778" xlink:href="#block"/><use x="455.55555555556" y="277.77777777778" xlink:href="#block"/><use x="466.66666666667" y="277.77777777778" xlink:href="#block"/><use x="0" y="288.88888888889" xlink:href="#block"/><use x="33.333333333333" y="288.88888888889" xlink:href="#block"/><use x="55.555555555556" y="288.88888888889" xlink:href="#block"/><use x="66.666666666667" y="288.88888888889" xlink:href="#block"/><use x="77.777777777778" y="288.88888888889" xlink:href="#block"/><use x="88.888888888889" y="288.88888888889" xlink:href="#block"/><use x="122.22222222222" y="288.88888888889" xlink:href="#block"/><use x="144.44444444444" y="288.88888888889" xlink:href="#block"/><use x="166.66666666667" y="288.88888888889" xlink:href="#block"/><use x="222.22222222222" y="288.88888888889" xlink:href="#block"/><use x="244.44444444444" y="288.88888888889" xlink:href="#block"/><use x="266.66666666667" y="288.88888888889" xlink:href="#block"/><use x="300" y="288.88888888889" xlink:href="#block"/><use x="333.33333333333" y="288.88888888889" xlink:href="#block"/><use x="344.44444444444" y="288.88888888889" xlink:href="#block"/><use x="377.77777777778" y="288.88888888889" xlink:href="#block"/><use x="411.11111111111" y="288.88888888889" xlink:href="#block"/><use x="433.33333333333" y="288.88888888889" xlink:href="#block"/><use x="444.44444444444" y="288.88888888889" xlink:href="#block"/><use x="477.77777777778" y="288.88888888889" xlink:href="#block"/><use x="22.222222222222" y="300" xlink:href="#block"/><use x="88.888888888889" y="300" xlink:href="#block"/><use x="111.11111111111" y="300" xlink:href="#block"/><use x="133.33333333333" y="300" xlink:href="#block"/><use x="144.44444444444" y="300" xlink:href="#block"/><use x="155.55555555556" y="300" xlink:href="#block"/><use x="177.77777777778" y="300" xlink:href="#block"/><use x="188.88888888889" y="300" xlink:href="#block"/><use x="211.11111111111" y="300" xlink:href="#block"/><use x="222.22222222222" y="300" xlink:href="#block"/><use x="233.33333333333" y="300" xlink:href="#block"/><use x="266.66666666667" y="300" xlink:href="#block"/><use x="277.77777777778" y="300" xlink:href="#block"/><use x="288.88888888889" y="300" xlink:href="#block"/><use x="311.11111111111" y="300" xlink:href="#block"/><use x="333.33333333333" y="300" xlink:href="#block"/><use x="366.66666666667" y="300" xlink:href="#block"/><use x="388.88888888889" y="300" xlink:href="#block"/><use x="411.11111111111" y="300" xlink:href="#block"/><use x="455.55555555556" y="300" xlink:href="#block"/><use x="466.66666666667" y="300" xlink:href="#block"/><use x="477.77777777778" y="300" xlink:href="#block"/><use x="488.88888888889" y="300" xlink:href="#block"/><use x="11.111111111111" y="311.11111111111" xlink:href="#block"/><use x="22.222222222222" y="311.11111111111" xlink:href="#block"/><use x="33.333333333333" y="311.11111111111" xlink:href="#block"/><use x="66.666666666667" y="311.11111111111" xlink:href="#block"/><use x="77.777777777778" y="311.11111111111" xlink:href="#block"/><use x="88.888888888889" y="311.11111111111" xlink:href="#block"/><use x="111.11111111111" y="311.11111111111" xlink:href="#block"/><use x="133.33333333333" y="311.11111111111" xlink:href="#block"/><use x="222.22222222222" y="311.11111111111" xlink:href="#block"/><use x="233.33333333333" y="311.11111111111" xlink:href="#block"/><use x="255.55555555556" y="311.11111111111" xlink:href="#block"/><use x="266.66666666667" y="311.11111111111" xlink:href="#block"/><use x="288.88888888889" y="311.11111111111" xlink:href="#block"/><use x="311.11111111111" y="311.11111111111" xlink:href="#block"/><use x="322.22222222222" y="311.11111111111" xlink:href="#block"/><use x="333.33333333333" y="311.11111111111" xlink:href="#block"/><use x="344.44444444444" y="311.11111111111" xlink:href="#block"/><use x="366.66666666667" y="311.11111111111" xlink:href="#block"/><use x="377.77777777778" y="311.11111111111" xlink:href="#block"/><use x="388.88888888889" y="311.11111111111" xlink:href="#block"/><use x="400" y="311.11111111111" xlink:href="#block"/><use x="411.11111111111" y="311.11111111111" xlink:href="#block"/><use x="433.33333333333" y="311.11111111111" xlink:href="#block"/><use x="455.55555555556" y="311.11111111111" xlink:href="#block"/><use x="466.66666666667" y="311.11111111111" xlink:href="#block"/><use x="33.333333333333" y="322.22222222222" xlink:href="#block"/><use x="44.444444444444" y="322.22222222222" xlink:href="#block"/><use x="77.777777777778" y="322.22222222222" xlink:href="#block"/><use x="166.66666666667" y="322.22222222222" xlink:href="#block"/><use x="177.77777777778" y="322.22222222222" xlink:href="#block"/><use x="188.88888888889" y="322.22222222222" xlink:href="#block"/><use x="211.11111111111" y="322.22222222222" xlink:href="#block"/><use x="222.22222222222" y="322.22222222222" xlink:href="#block"/><use x="244.44444444444" y="322.22222222222" xlink:href="#block"/><use x="266.66666666667" y="322.22222222222" xlink:href="#block"/><use x="277.77777777778" y="322.22222222222" xlink:href="#block"/><use x="333.33333333333" y="322.22222222222" xlink:href="#block"/><use x="344.44444444444" y="322.22222222222" xlink:href="#block"/><use x="355.55555555556" y="322.22222222222" xlink:href="#block"/><use x="377.77777777778" y="322.22222222222" xlink:href="#block"/><use x="388.88888888889" y="322.22222222222" xlink:href="#block"/><use x="411.11111111111" y="322.22222222222" xlink:href="#block"/><use x="422.22222222222" y="322.22222222222" xlink:href="#block"/><use x="466.66666666667" y="322.22222222222" xlink:href="#block"/><use x="477.77777777778" y="322.22222222222" xlink:href="#block"/><use x="488.88888888889" y="322.22222222222" xlink:href="#block"/><use x="0" y="333.33333333333" xlink:href="#block"/><use x="22.222222222222" y="333.33333333333" xlink:href="#block"/><use x="66.666666666667" y="333.33333333333" xlink:href="#block"/><use x="77.777777777778" y="333.33333333333" xlink:href="#block"/><use x="100" y="333.33333333333" xlink:href="#block"/><use x="111.11111111111" y="333.33333333333" xlink:href="#block"/><use x="122.22222222222" y="333.33333333333" xlink:href="#block"/><use x="155.55555555556" y="333.33333333333" xlink:href="#block"/><use x="166.66666666667" y="333.33333333333" xlink:href="#block"/><use x="200" y="333.33333333333" xlink:href="#block"/><use x="222.22222222222" y="333.33333333333" xlink:href="#block"/><use x="233.33333333333" y="333.33333333333" xlink:href="#block"/><use x="244.44444444444" y="333.33333333333" xlink:href="#block"/><use x="288.88888888889" y="333.33333333333" xlink:href="#block"/><use x="300" y="333.33333333333" xlink:href="#block"/><use x="322.22222222222" y="333.33333333333" xlink:href="#block"/><use x="377.77777777778" y="333.33333333333" xlink:href="#block"/><use x="400" y="333.33333333333" xlink:href="#block"/><use x="411.11111111111" y="333.33333333333" xlink:href="#block"/><use x="444.44444444444" y="333.33333333333" xlink:href="#block"/><use x="455.55555555556" y="333.33333333333" xlink:href="#block"/><use x="477.77777777778" y="333.33333333333" xlink:href="#block"/><use x="488.88888888889" y="333.33333333333" xlink:href="#block"/><use x="0" y="344.44444444444" xlink:href="#block"/><use x="33.333333333333" y="344.44444444444" xlink:href="#block"/><use x="55.555555555556" y="344.44444444444" xlink:href="#block"/><use x="88.888888888889" y="344.44444444444" xlink:href="#block"/><use x="100" y="344.44444444444" xlink:href="#block"/><use x="111.11111111111" y="344.44444444444" xlink:href="#block"/><use x="122.22222222222" y="344.44444444444" xlink:href="#block"/><use x="155.55555555556" y="344.44444444444" xlink:href="#block"/><use x="166.66666666667" y="344.44444444444" xlink:href="#block"/><use x="177.77777777778" y="344.44444444444" xlink:href="#block"/><use x="188.88888888889" y="344.44444444444" xlink:href="#block"/><use x="233.33333333333" y="344.44444444444" xlink:href="#block"/><use x="244.44444444444" y="344.44444444444" xlink:href="#block"/><use x="255.55555555556" y="344.44444444444" xlink:href="#block"/><use x="266.66666666667" y="344.44444444444" xlink:href="#block"/><use x="277.77777777778" y="344.44444444444" xlink:href="#block"/><use x="333.33333333333" y="344.44444444444" xlink:href="#block"/><use x="366.66666666667" y="344.44444444444" xlink:href="#block"/><use x="388.88888888889" y="344.44444444444" xlink:href="#block"/><use x="400" y="344.44444444444" xlink:href="#block"/><use x="411.11111111111" y="344.44444444444" xlink:href="#block"/><use x="466.66666666667" y="344.44444444444" xlink:href="#block"/><use x="488.88888888889" y="344.44444444444" xlink:href="#block"/><use x="0" y="355.55555555556" xlink:href="#block"/><use x="44.444444444444" y="355.55555555556" xlink:href="#block"/><use x="55.555555555556" y="355.55555555556" xlink:href="#block"/><use x="66.666666666667" y="355.55555555556" xlink:href="#block"/><use x="111.11111111111" y="355.55555555556" xlink:href="#block"/><use x="122.22222222222" y="355.55555555556" xlink:href="#block"/><use x="133.33333333333" y="355.55555555556" xlink:href="#block"/><use x="144.44444444444" y="355.55555555556" xlink:href="#block"/><use x="200" y="355.55555555556" xlink:href="#block"/><use x="222.22222222222" y="355.55555555556" xlink:href="#block"/><use x="277.77777777778" y="355.55555555556" xlink:href="#block"/><use x="288.88888888889" y="355.55555555556" xlink:href="#block"/><use x="300" y="355.55555555556" xlink:href="#block"/><use x="322.22222222222" y="355.55555555556" xlink:href="#block"/><use x="333.33333333333" y="355.55555555556" xlink:href="#block"/><use x="366.66666666667" y="355.55555555556" xlink:href="#block"/><use x="377.77777777778" y="355.55555555556" xlink:href="#block"/><use x="411.11111111111" y="355.55555555556" xlink:href="#block"/><use x="433.33333333333" y="355.55555555556" xlink:href="#block"/><use x="466.66666666667" y="355.55555555556" xlink:href="#block"/><use x="22.222222222222" y="366.66666666667" xlink:href="#block"/><use x="77.777777777778" y="366.66666666667" xlink:href="#block"/><use x="111.11111111111" y="366.66666666667" xlink:href="#block"/><use x="122.22222222222" y="366.66666666667" xlink:href="#block"/><use x="155.55555555556" y="366.66666666667" xlink:href="#block"/><use x="166.66666666667" y="366.66666666667" xlink:href="#block"/><use x="211.11111111111" y="366.66666666667" xlink:href="#block"/><use x="222.22222222222" y="366.66666666667" xlink:href="#block"/><use x="266.66666666667" y="366.66666666667" xlink:href="#block"/><use x="288.88888888889" y="366.66666666667" xlink:href="#block"/><use x="311.11111111111" y="366.66666666667" xlink:href="#block"/><use x="333.33333333333" y="366.66666666667" xlink:href="#block"/><use x="344.44444444444" y="366.66666666667" xlink:href="#block"/><use x="355.55555555556" y="366.66666666667" xlink:href="#block"/><use x="377.77777777778" y="366.66666666667" xlink:href="#block"/><use x="388.88888888889" y="366.66666666667" xlink:href="#block"/><use x="411.11111111111" y="366.66666666667" xlink:href="#block"/><use x="422.22222222222" y="366.66666666667" xlink:href="#block"/><use x="455.55555555556" y="366.66666666667" xlink:href="#block"/><use x="466.66666666667" y="366.66666666667" xlink:href="#block"/><use x="477.77777777778" y="366.66666666667" xlink:href="#block"/><use x="488.88888888889" y="366.66666666667" xlink:href="#block"/><use x="44.444444444444" y="377.77777777778" xlink:href="#block"/><use x="66.666666666667" y="377.77777777778" xlink:href="#block"/><use x="100" y="377.77777777778" xlink:href="#block"/><use x="122.22222222222" y="377.77777777778" xlink:href="#block"/><use x="155.55555555556" y="377.77777777778" xlink:href="#block"/><use x="200" y="377.77777777778" xlink:href="#block"/><use x="222.22222222222" y="377.77777777778" xlink:href="#block"/><use x="233.33333333333" y="377.77777777778" xlink:href="#block"/><use x="244.44444444444" y="377.77777777778" xlink:href="#block"/><use x="266.66666666667" y="377.77777777778" xlink:href="#block"/><use x="277.77777777778" y="377.77777777778" xlink:href="#block"/><use x="288.88888888889" y="377.77777777778" xlink:href="#block"/><use x="311.11111111111" y="377.77777777778" xlink:href="#block"/><use x="322.22222222222" y="377.77777777778" xlink:href="#block"/><use x="366.66666666667" y="377.77777777778" xlink:href="#block"/><use x="377.77777777778" y="377.77777777778" xlink:href="#block"/><use x="411.11111111111" y="377.77777777778" xlink:href="#block"/><use x="444.44444444444" y="377.77777777778" xlink:href="#block"/><use x="477.77777777778" y="377.77777777778" xlink:href="#block"/><use x="488.88888888889" y="377.77777777778" xlink:href="#block"/><use x="11.111111111111" y="388.88888888889" xlink:href="#block"/><use x="22.222222222222" y="388.88888888889" xlink:href="#block"/><use x="33.333333333333" y="388.88888888889" xlink:href="#block"/><use x="44.444444444444" y="388.88888888889" xlink:href="#block"/><use x="77.777777777778" y="388.88888888889" xlink:href="#block"/><use x="88.888888888889" y="388.88888888889" xlink:href="#block"/><use x="122.22222222222" y="388.88888888889" xlink:href="#block"/><use x="144.44444444444" y="388.88888888889" xlink:href="#block"/><use x="155.55555555556" y="388.88888888889" xlink:href="#block"/><use x="166.66666666667" y="388.88888888889" xlink:href="#block"/><use x="188.88888888889" y="388.88888888889" xlink:href="#block"/><use x="222.22222222222" y="388.88888888889" xlink:href="#block"/><use x="233.33333333333" y="388.88888888889" xlink:href="#block"/><use x="255.55555555556" y="388.88888888889" xlink:href="#block"/><use x="266.66666666667" y="388.88888888889" xlink:href="#block"/><use x="277.77777777778" y="388.88888888889" xlink:href="#block"/><use x="300" y="388.88888888889" xlink:href="#block"/><use x="311.11111111111" y="388.88888888889" xlink:href="#block"/><use x="322.22222222222" y="388.88888888889" xlink:href="#block"/><use x="355.55555555556" y="388.88888888889" xlink:href="#block"/><use x="366.66666666667" y="388.88888888889" xlink:href="#block"/><use x="388.88888888889" y="388.88888888889" xlink:href="#block"/><use x="433.33333333333" y="388.88888888889" xlink:href="#block"/><use x="488.88888888889" y="388.88888888889" xlink:href="#block"/><use x="0" y="400" xlink:href="#block"/><use x="33.333333333333" y="400" xlink:href="#block"/><use x="44.444444444444" y="400" xlink:href="#block"/><use x="66.666666666667" y="400" xlink:href="#block"/><use x="88.888888888889" y="400" xlink:href="#block"/><use x="111.11111111111" y="400" xlink:href="#block"/><use x="133.33333333333" y="400" xlink:href="#block"/><use x="144.44444444444" y="400" xlink:href="#block"/><use x="155.55555555556" y="400" xlink:href="#block"/><use x="177.77777777778" y="400" xlink:href="#block"/><use x="200" y="400" xlink:href="#block"/><use x="211.11111111111" y="400" xlink:href="#block"/><use x="222.22222222222" y="400" xlink:href="#block"/><use x="233.33333333333" y="400" xlink:href="#block"/><use x="244.44444444444" y="400" xlink:href="#block"/><use x="255.55555555556" y="400" xlink:href="#block"/><use x="266.66666666667" y="400" xlink:href="#block"/><use x="288.88888888889" y="400" xlink:href="#block"/><use x="311.11111111111" y="400" xlink:href="#block"/><use x="333.33333333333" y="400" xlink:href="#block"/><use x="377.77777777778" y="400" xlink:href="#block"/><use x="388.88888888889" y="400" xlink:href="#block"/><use x="400" y="400" xlink:href="#block"/><use x="411.11111111111" y="400" xlink:href="#block"/><use x="422.22222222222" y="400" xlink:href="#block"/><use x="433.33333333333" y="400" xlink:href="#block"/><use x="444.44444444444" y="400" xlink:href="#block"/><use x="466.66666666667" y="400" xlink:href="#block"/><use x="477.77777777778" y="400" xlink:href="#block"/><use x="88.888888888889" y="411.11111111111" xlink:href="#block"/><use x="100" y="411.11111111111" xlink:href="#block"/><use x="111.11111111111" y="411.11111111111" xlink:href="#block"/><use x="122.22222222222" y="411.11111111111" xlink:href="#block"/><use x="133.33333333333" y="411.11111111111" xlink:href="#block"/><use x="155.55555555556" y="411.11111111111" xlink:href="#block"/><use x="166.66666666667" y="411.11111111111" xlink:href="#block"/><use x="177.77777777778" y="411.11111111111" xlink:href="#block"/><use x="188.88888888889" y="411.11111111111" xlink:href="#block"/><use x="211.11111111111" y="411.11111111111" xlink:href="#block"/><use x="222.22222222222" y="411.11111111111" xlink:href="#block"/><use x="266.66666666667" y="411.11111111111" xlink:href="#block"/><use x="277.77777777778" y="411.11111111111" xlink:href="#block"/><use x="300" y="411.11111111111" xlink:href="#block"/><use x="311.11111111111" y="411.11111111111" xlink:href="#block"/><use x="322.22222222222" y="411.11111111111" xlink:href="#block"/><use x="333.33333333333" y="411.11111111111" xlink:href="#block"/><use x="344.44444444444" y="411.11111111111" xlink:href="#block"/><use x="355.55555555556" y="411.11111111111" xlink:href="#block"/><use x="366.66666666667" y="411.11111111111" xlink:href="#block"/><use x="400" y="411.11111111111" xlink:href="#block"/><use x="444.44444444444" y="411.11111111111" xlink:href="#block"/><use x="455.55555555556" y="411.11111111111" xlink:href="#block"/><use x="466.66666666667" y="411.11111111111" xlink:href="#block"/><use x="488.88888888889" y="411.11111111111" xlink:href="#block"/><use x="0" y="422.22222222222" xlink:href="#block"/><use x="11.111111111111" y="422.22222222222" xlink:href="#block"/><use x="22.222222222222" y="422.22222222222" xlink:href="#block"/><use x="33.333333333333" y="422.22222222222" xlink:href="#block"/><use x="44.444444444444" y="422.22222222222" xlink:href="#block"/><use x="55.555555555556" y="422.22222222222" xlink:href="#block"/><use x="66.666666666667" y="422.22222222222" xlink:href="#block"/><use x="155.55555555556" y="422.22222222222" xlink:href="#block"/><use x="211.11111111111" y="422.22222222222" xlink:href="#block"/><use x="222.22222222222" y="422.22222222222" xlink:href="#block"/><use x="244.44444444444" y="422.22222222222" xlink:href="#block"/><use x="266.66666666667" y="422.22222222222" xlink:href="#block"/><use x="277.77777777778" y="422.22222222222" xlink:href="#block"/><use x="322.22222222222" y="422.22222222222" xlink:href="#block"/><use x="344.44444444444" y="422.22222222222" xlink:href="#block"/><use x="366.66666666667" y="422.22222222222" xlink:href="#block"/><use x="377.77777777778" y="422.22222222222" xlink:href="#block"/><use x="388.88888888889" y="422.22222222222" xlink:href="#block"/><use x="400" y="422.22222222222" xlink:href="#block"/><use x="422.22222222222" y="422.22222222222" xlink:href="#block"/><use x="444.44444444444" y="422.22222222222" xlink:href="#block"/><use x="477.77777777778" y="422.22222222222" xlink:href="#block"/><use x="488.88888888889" y="422.22222222222" xlink:href="#block"/><use x="0" y="433.33333333333" xlink:href="#block"/><use x="66.666666666667" y="433.33333333333" xlink:href="#block"/><use x="100" y="433.33333333333" xlink:href="#block"/><use x="111.11111111111" y="433.33333333333" xlink:href="#block"/><use x="122.22222222222" y="433.33333333333" xlink:href="#block"/><use x="133.33333333333" y="433.33333333333" xlink:href="#block"/><use x="166.66666666667" y="433.33333333333" xlink:href="#block"/><use x="200" y="433.33333333333" xlink:href="#block"/><use x="211.11111111111" y="433.33333333333" xlink:href="#block"/><use x="222.22222222222" y="433.33333333333" xlink:href="#block"/><use x="266.66666666667" y="433.33333333333" xlink:href="#block"/><use x="277.77777777778" y="433.33333333333" xlink:href="#block"/><use x="288.88888888889" y="433.33333333333" xlink:href="#block"/><use x="300" y="433.33333333333" xlink:href="#block"/><use x="311.11111111111" y="433.33333333333" xlink:href="#block"/><use x="322.22222222222" y="433.33333333333" xlink:href="#block"/><use x="344.44444444444" y="433.33333333333" xlink:href="#block"/><use x="355.55555555556" y="433.33333333333" xlink:href="#block"/><use x="366.66666666667" y="433.33333333333" xlink:href="#block"/><use x="400" y="433.33333333333" xlink:href="#block"/><use x="444.44444444444" y="433.33333333333" xlink:href="#block"/><use x="455.55555555556" y="433.33333333333" xlink:href="#block"/><use x="488.88888888889" y="433.33333333333" xlink:href="#block"/><use x="0" y="444.44444444444" xlink:href="#block"/><use x="22.222222222222" y="444.44444444444" xlink:href="#block"/><use x="33.333333333333" y="444.44444444444" xlink:href="#block"/><use x="44.444444444444" y="444.44444444444" xlink:href="#block"/><use x="66.666666666667" y="444.44444444444" xlink:href="#block"/><use x="88.888888888889" y="444.44444444444" xlink:href="#block"/><use x="100" y="444.44444444444" xlink:href="#block"/><use x="111.11111111111" y="444.44444444444" xlink:href="#block"/><use x="122.22222222222" y="444.44444444444" xlink:href="#block"/><use x="144.44444444444" y="444.44444444444" xlink:href="#block"/><use x="155.55555555556" y="444.44444444444" xlink:href="#block"/><use x="177.77777777778" y="444.44444444444" xlink:href="#block"/><use x="188.88888888889" y="444.44444444444" xlink:href="#block"/><use x="222.22222222222" y="444.44444444444" xlink:href="#block"/><use x="233.33333333333" y="444.44444444444" xlink:href="#block"/><use x="244.44444444444" y="444.44444444444" xlink:href="#block"/><use x="255.55555555556" y="444.44444444444" xlink:href="#block"/><use x="266.66666666667" y="444.44444444444" xlink:href="#block"/><use x="277.77777777778" y="444.44444444444" xlink:href="#block"/><use x="311.11111111111" y="444.44444444444" xlink:href="#block"/><use x="322.22222222222" y="444.44444444444" xlink:href="#block"/><use x="344.44444444444" y="444.44444444444" xlink:href="#block"/><use x="355.55555555556" y="444.44444444444" xlink:href="#block"/><use x="366.66666666667" y="444.44444444444" xlink:href="#block"/><use x="377.77777777778" y="444.44444444444" xlink:href="#block"/><use x="400" y="444.44444444444" xlink:href="#block"/><use x="411.11111111111" y="444.44444444444" xlink:href="#block"/><use x="422.22222222222" y="444.44444444444" xlink:href="#block"/><use x="433.33333333333" y="444.44444444444" xlink:href="#block"/><use x="444.44444444444" y="444.44444444444" xlink:href="#block"/><use x="455.55555555556" y="444.44444444444" xlink:href="#block"/><use x="477.77777777778" y="444.44444444444" xlink:href="#block"/><use x="0" y="455.55555555556" xlink:href="#block"/><use x="22.222222222222" y="455.55555555556" xlink:href="#block"/><use x="33.333333333333" y="455.55555555556" xlink:href="#block"/><use x="44.444444444444" y="455.55555555556" xlink:href="#block"/><use x="66.666666666667" y="455.55555555556" xlink:href="#block"/><use x="88.888888888889" y="455.55555555556" xlink:href="#block"/><use x="100" y="455.55555555556" xlink:href="#block"/><use x="122.22222222222" y="455.55555555556" xlink:href="#block"/><use x="144.44444444444" y="455.55555555556" xlink:href="#block"/><use x="166.66666666667" y="455.55555555556" xlink:href="#block"/><use x="222.22222222222" y="455.55555555556" xlink:href="#block"/><use x="233.33333333333" y="455.55555555556" xlink:href="#block"/><use x="266.66666666667" y="455.55555555556" xlink:href="#block"/><use x="277.77777777778" y="455.55555555556" xlink:href="#block"/><use x="288.88888888889" y="455.55555555556" xlink:href="#block"/><use x="311.11111111111" y="455.55555555556" xlink:href="#block"/><use x="322.22222222222" y="455.55555555556" xlink:href="#block"/><use x="333.33333333333" y="455.55555555556" xlink:href="#block"/><use x="355.55555555556" y="455.55555555556" xlink:href="#block"/><use x="377.77777777778" y="455.55555555556" xlink:href="#block"/><use x="388.88888888889" y="455.55555555556" xlink:href="#block"/><use x="400" y="455.55555555556" xlink:href="#block"/><use x="411.11111111111" y="455.55555555556" xlink:href="#block"/><use x="444.44444444444" y="455.55555555556" xlink:href="#block"/><use x="455.55555555556" y="455.55555555556" xlink:href="#block"/><use x="466.66666666667" y="455.55555555556" xlink:href="#block"/><use x="477.77777777778" y="455.55555555556" xlink:href="#block"/><use x="0" y="466.66666666667" xlink:href="#block"/><use x="22.222222222222" y="466.66666666667" xlink:href="#block"/><use x="33.333333333333" y="466.66666666667" xlink:href="#block"/><use x="44.444444444444" y="466.66666666667" xlink:href="#block"/><use x="66.666666666667" y="466.66666666667" xlink:href="#block"/><use x="88.888888888889" y="466.66666666667" xlink:href="#block"/><use x="100" y="466.66666666667" xlink:href="#block"/><use x="111.11111111111" y="466.66666666667" xlink:href="#block"/><use x="122.22222222222" y="466.66666666667" xlink:href="#block"/><use x="133.33333333333" y="466.66666666667" xlink:href="#block"/><use x="144.44444444444" y="466.66666666667" xlink:href="#block"/><use x="166.66666666667" y="466.66666666667" xlink:href="#block"/><use x="222.22222222222" y="466.66666666667" xlink:href="#block"/><use x="277.77777777778" y="466.66666666667" xlink:href="#block"/><use x="333.33333333333" y="466.66666666667" xlink:href="#block"/><use x="377.77777777778" y="466.66666666667" xlink:href="#block"/><use x="411.11111111111" y="466.66666666667" xlink:href="#block"/><use x="422.22222222222" y="466.66666666667" xlink:href="#block"/><use x="433.33333333333" y="466.66666666667" xlink:href="#block"/><use x="0" y="477.77777777778" xlink:href="#block"/><use x="66.666666666667" y="477.77777777778" xlink:href="#block"/><use x="133.33333333333" y="477.77777777778" xlink:href="#block"/><use x="155.55555555556" y="477.77777777778" xlink:href="#block"/><use x="177.77777777778" y="477.77777777778" xlink:href="#block"/><use x="188.88888888889" y="477.77777777778" xlink:href="#block"/><use x="200" y="477.77777777778" xlink:href="#block"/><use x="222.22222222222" y="477.77777777778" xlink:href="#block"/><use x="233.33333333333" y="477.77777777778" xlink:href="#block"/><use x="277.77777777778" y="477.77777777778" xlink:href="#block"/><use x="333.33333333333" y="477.77777777778" xlink:href="#block"/><use x="344.44444444444" y="477.77777777778" xlink:href="#block"/><use x="433.33333333333" y="477.77777777778" xlink:href="#block"/><use x="444.44444444444" y="477.77777777778" xlink:href="#block"/><use x="477.77777777778" y="477.77777777778" xlink:href="#block"/><use x="488.88888888889" y="477.77777777778" xlink:href="#block"/><use x="0" y="488.88888888889" xlink:href="#block"/><use x="11.111111111111" y="488.88888888889" xlink:href="#block"/><use x="22.222222222222" y="488.88888888889" xlink:href="#block"/><use x="33.333333333333" y="488.88888888889" xlink:href="#block"/><use x="44.444444444444" y="488.88888888889" xlink:href="#block"/><use x="55.555555555556" y="488.88888888889" xlink:href="#block"/><use x="66.666666666667" y="488.88888888889" xlink:href="#block"/><use x="100" y="488.88888888889" xlink:href="#block"/><use x="111.11111111111" y="488.88888888889" xlink:href="#block"/><use x="122.22222222222" y="488.88888888889" xlink:href="#block"/><use x="133.33333333333" y="488.88888888889" xlink:href="#block"/><use x="155.55555555556" y="488.88888888889" xlink:href="#block"/><use x="166.66666666667" y="488.88888888889" xlink:href="#block"/><use x="177.77777777778" y="488.88888888889" xlink:href="#block"/><use x="233.33333333333" y="488.88888888889" xlink:href="#block"/><use x="266.66666666667" y="488.88888888889" xlink:href="#block"/><use x="300" y="488.88888888889" xlink:href="#block"/><use x="311.11111111111" y="488.88888888889" xlink:href="#block"/><use x="322.22222222222" y="488.88888888889" xlink:href="#block"/><use x="366.66666666667" y="488.88888888889" xlink:href="#block"/><use x="377.77777777778" y="488.88888888889" xlink:href="#block"/><use x="388.88888888889" y="488.88888888889" xlink:href="#block"/><use x="400" y="488.88888888889" xlink:href="#block"/><use x="455.55555555556" y="488.88888888889" xlink:href="#block"/><use x="466.66666666667" y="488.88888888889" xlink:href="#block"/><use x="477.77777777778" y="488.88888888889" xlink:href="#block"/></svg>
