<svg width="16" height="15" viewBox="0 0 16 15" fill="none" xmlns="http://www.w3.org/2000/svg">
    <path d="M7.93593 0C7.02933 0 5.90295 0.560322 5.48316 0.954547L5.64817 1.3295C5.64817 1.3295 4.36995 1.34655 3.71111 1.77062C3.05228 2.19469 2.75186 2.48309 2.42742 3.16803C2.10252 3.1835 0.88433 3.70058 0.178847 4.22041C0.178847 4.22041 -0.414145 6.46521 0.708959 7.43392L0 8.40726C0.178847 9.0201 0.95098 9.6428 1.71835 9.71707C2.06362 10.1356 1.3939 10.9668 1.3939 10.9668C1.67742 11.8667 3.58602 12.8558 4.72592 12.8558L4.56901 13.3856C4.56901 13.3856 5.83869 14.3101 7.8876 14.2238C9.61963 14.28 11.0283 13.8663 11.3858 13.3856L11.2049 12.8558C12.7868 12.62 13.9817 12.1042 14.6465 11.0094C14.6465 11.0094 14.1515 9.96857 14.3243 9.70747C15.0917 9.6332 15.8092 8.8774 16 8.54735L15.3039 7.45169C15.8591 6.82819 16.1698 5.18303 15.7617 4.22041C15.0562 3.70058 13.85 3.27787 13.5251 3.2624C13.3962 2.50188 12.5686 1.9073 12.5686 1.9073C11.7849 1.22576 10.3595 1.3295 10.3595 1.3295L10.4754 0.954547C10.112 0.549454 8.96457 0 7.93593 0Z" fill="white"/>
    <path fill-rule="evenodd" clip-rule="evenodd" d="M6.55843 3.77798C6.55843 3.77798 7.42095 3.60414 8.07409 3.60649C8.71649 3.6088 9.55882 3.77798 9.55882 3.77798L9.70078 1.19832L8.04292 0.671326L6.29932 1.19833L6.55843 3.77798ZM7.24582 2.92694C7.24582 2.92694 7.71195 2.86162 8.07409 2.87114C8.44379 2.88086 8.93989 2.92694 8.93989 2.92694V1.70472L8.04292 1.45967L7.13928 1.70472L7.24582 2.92694ZM5.8219 2.12875C4.91479 1.89772 4.23094 2.21391 3.63927 2.64895C3.04639 3.08489 2.81243 3.64999 2.86445 3.8523C2.37963 3.6538 1.31516 4.26936 0.808459 4.56467C0.808459 4.56467 0.41635 6.48268 1.41872 7.22482C1.36662 7.7459 0.999089 8.37126 0.808459 8.48837C1.13888 9.00942 1.83904 9.15209 2.13558 9.0197C2.63122 9.70597 2.39173 10.6358 2.11637 10.9324C2.88671 11.6279 4.72469 11.9196 5.26305 11.9632C5.26305 11.9632 4.78915 10.8525 4.57756 9.93728C3.99278 7.40789 4.30753 4.25174 4.30753 4.25174C4.30753 4.25174 2.94156 5.84189 3.70298 9.67538C3.83155 10.3227 4.01324 11.0069 4.01324 11.0069C3.97303 10.9869 3.91443 10.9772 3.835 10.9639C3.66417 10.9354 3.39695 10.8909 3.0089 10.6946C3.25242 10.4323 3.1477 8.87681 2.43024 8.11357C2.43024 8.11357 2.08887 8.27109 1.83828 8.16678C2.00687 8.06321 2.2174 7.40221 2.2174 6.89639C1.4151 6.41685 1.4904 5.55425 1.53097 5.0894L1.53232 5.07394C1.93041 4.81546 2.64436 4.37608 3.54267 4.75968C3.51907 4.54211 3.58053 3.96301 3.827 3.55745C3.827 3.55745 4.12705 3.03542 4.80474 2.87165C5.48243 2.70788 5.8219 2.12875 5.8219 2.12875ZM10.1781 2.12875C11.0852 1.89772 11.7691 2.21391 12.3607 2.64895C12.9536 3.08489 13.1876 3.64999 13.1355 3.8523C13.6204 3.6538 14.6848 4.26936 15.1915 4.56467C15.1915 4.56467 15.5836 6.48268 14.5813 7.22482C14.6334 7.7459 15.0009 8.37126 15.1915 8.48837C14.8611 9.00942 14.161 9.15209 13.8644 9.0197C13.3688 9.70597 13.6083 10.6358 13.8836 10.9324C13.1133 11.6279 11.2753 11.9196 10.737 11.9632C10.737 11.9632 11.2109 10.8525 11.4224 9.93728C12.0072 7.40789 11.6925 4.25174 11.6925 4.25174C11.6925 4.25174 13.0584 5.84189 12.297 9.67538C12.1685 10.3227 11.9868 11.0069 11.9868 11.0069C12.027 10.9869 12.0856 10.9772 12.165 10.9639C12.3358 10.9354 12.603 10.8909 12.9911 10.6946C12.7476 10.4323 12.8523 8.87681 13.5698 8.11357C13.5698 8.11357 13.9111 8.27109 14.1617 8.16678C13.9931 8.06321 13.7826 7.40221 13.7826 6.89639C14.5849 6.41685 14.5096 5.55425 14.469 5.0894L14.4677 5.07394C14.0696 4.81546 13.3556 4.37608 12.4573 4.75968C12.4809 4.54211 12.4195 3.96301 12.173 3.55745C12.173 3.55745 11.873 3.03542 11.1953 2.87165C10.5176 2.70788 10.1781 2.12875 10.1781 2.12875ZM7.99096 13.4095C9.50024 13.3919 10.4664 12.9423 10.4664 12.9423L9.87637 11.0886C9.87637 11.0886 8.60998 11.4556 7.99998 11.4561C7.38997 11.4556 6.14372 11.0886 6.14372 11.0886L5.53357 12.9423C5.53357 12.9423 6.48167 13.3919 7.99096 13.4095ZM7.99998 12.7909C8.85932 12.7875 9.39028 12.6111 9.67841 12.4943L9.52066 11.8589C9.16495 11.9758 8.54785 12.1048 7.99998 12.1094C7.4521 12.1048 6.83122 12.0086 6.47552 11.8917L6.33814 12.4943C6.62626 12.6111 7.14063 12.7875 7.99998 12.7909ZM4.94482 4.59052H11.0552C11.0078 4.65653 10.8152 4.97715 10.7463 5.16215C10.6772 5.34773 10.6263 5.53494 10.624 5.65031C10.6222 5.74168 10.611 6.02548 10.5965 6.39629L10.5964 6.39969C10.5675 7.13481 10.5252 8.2154 10.5132 8.85378C10.508 9.13538 10.4454 9.50876 10.2195 9.81406C9.98948 10.1249 9.60098 10.3505 8.97641 10.3505H8.53713C8.49382 10.3505 8.4646 10.3617 8.44178 10.3776C8.41734 10.3946 8.39475 10.421 8.37204 10.4592C8.34904 10.4978 8.32682 10.5482 8.30439 10.5997C8.28359 10.6475 8.25506 10.7015 8.22661 10.7504C8.22509 10.7523 8.22298 10.7551 8.22037 10.7585C8.20574 10.7777 8.1754 10.8175 8.14513 10.8362C8.10721 10.8595 8.05945 10.8742 7.99999 10.8742C7.94171 10.8742 7.89453 10.8601 7.85686 10.836C7.82156 10.8135 7.78379 10.763 7.77444 10.7504C7.7469 10.703 7.7236 10.6508 7.70277 10.6041C7.67987 10.5528 7.65529 10.4988 7.63164 10.4602C7.60826 10.422 7.58494 10.3953 7.55972 10.378C7.53606 10.3617 7.50619 10.3505 7.46284 10.3505H7.02355C6.39899 10.3505 6.01048 10.1249 5.78048 9.81405C5.55456 9.50876 5.49199 9.13538 5.48673 8.85378C5.47481 8.21538 5.43243 7.1347 5.40359 6.39958L5.40345 6.39596C5.38891 6.02526 5.37779 5.74166 5.37595 5.65031C5.37362 5.53493 5.32275 5.34773 5.25365 5.16215C5.18478 4.97715 4.99219 4.65653 4.94482 4.59052ZM6.08443 5.34354C6.09261 5.3782 6.10051 5.41648 6.10778 5.45573C6.12809 5.5653 6.14855 5.7742 6.14855 5.7742C6.17691 6.50717 6.23217 7.93549 6.23217 8.78638C6.23217 9.29813 6.56339 9.56907 6.89064 9.5587C6.91462 9.55794 6.96755 9.55717 7.02396 9.55634C7.09737 9.55526 7.17714 9.55409 7.20588 9.55278C7.51388 9.53871 7.81479 9.61989 8.00137 9.80413C8.08111 9.73083 8.17962 9.68319 8.28695 9.65369C8.43489 9.61303 8.60499 9.60517 8.78007 9.61316C8.80888 9.61448 8.88068 9.61567 8.94698 9.61677C8.99642 9.61759 9.04297 9.61837 9.0661 9.6191C9.24014 9.62461 9.4232 9.57022 9.5619 9.44209C9.69891 9.31551 9.8026 9.10773 9.8026 8.78638C9.8026 8.00739 9.86272 6.44143 9.89263 5.68947C9.89263 5.68947 9.89511 5.54574 9.90882 5.45636C9.91435 5.42027 9.92198 5.38184 9.93276 5.34354H6.08443Z" fill="black"/>
    <path d="M6.07568 5.34354C6.08386 5.3782 6.09177 5.41648 6.09904 5.45573C6.11934 5.5653 6.1398 5.7742 6.1398 5.7742C6.16816 6.50717 6.22342 7.93549 6.22342 8.78638C6.22342 9.29813 6.55465 9.56907 6.8819 9.5587C6.90597 9.55794 6.95921 9.55716 7.01585 9.55633C7.08926 9.55525 7.16839 9.55409 7.19713 9.55278C7.50514 9.5387 7.80605 9.61989 7.99263 9.80412C8.07236 9.73082 8.17088 9.68319 8.27821 9.65369C8.42615 9.61303 8.59624 9.60517 8.77133 9.61316C8.80013 9.61448 8.87194 9.61567 8.93823 9.61677C8.98775 9.61759 9.03419 9.61836 9.05736 9.6191C9.2314 9.62461 9.41445 9.57022 9.55315 9.44209C9.69017 9.31551 9.79386 9.10772 9.79386 8.78638C9.79386 8.00739 9.85397 6.44143 9.88389 5.68947C9.88389 5.68947 9.88637 5.54573 9.90008 5.45636C9.90561 5.42027 9.91323 5.38184 9.92401 5.34354H6.07568Z" fill="#FFDD2D"/>
</svg>
