<svg version="1.1" xmlns="http://www.w3.org/2000/svg" viewBox="0 0 1899.928788053889 846.8928248154338" width="3799.857576107778" height="1693.7856496308675">
  <!-- svg-source:excalidraw -->
  
  <defs>
    <style class="style-fonts">
      @font-face {
        font-family: "Virgil";
        src: url("https://excalidraw.com/Virgil.woff2");
      }
      @font-face {
        font-family: "Cascadia";
        src: url("https://excalidraw.com/Cascadia.woff2");
      }
    </style>
    
  </defs>
  <g stroke-linecap="round" transform="translate(10 527.2947547670435) rotate(0 176.78047247377566 100.30410245406947)"><path d="M32 0 M32 0 C138.46 0, 244.91 0, 321.56 0 M32 0 C96.36 0, 160.71 0, 321.56 0 M321.56 0 C342.89 0, 353.56 10.67, 353.56 32 M321.56 0 C342.89 0, 353.56 10.67, 353.56 32 M353.56 32 C353.56 70.75, 353.56 109.51, 353.56 168.61 M353.56 32 C353.56 66.99, 353.56 101.98, 353.56 168.61 M353.56 168.61 C353.56 189.94, 342.89 200.61, 321.56 200.61 M353.56 168.61 C353.56 189.94, 342.89 200.61, 321.56 200.61 M321.56 200.61 C251.35 200.61, 181.14 200.61, 32 200.61 M321.56 200.61 C244.72 200.61, 167.87 200.61, 32 200.61 M32 200.61 C10.67 200.61, 0 189.94, 0 168.61 M32 200.61 C10.67 200.61, 0 189.94, 0 168.61 M0 168.61 C0 134.62, 0 100.64, 0 32 M0 168.61 C0 135.04, 0 101.47, 0 32 M0 32 C0 10.67, 10.67 0, 32 0 M0 32 C0 10.67, 10.67 0, 32 0" stroke="#1e1e1e" stroke-width="2" fill="none"></path></g><g transform="translate(149.76973028627566 606.8988572211131) rotate(0 37.0107421875 20.69999999999999)"><text x="37.0107421875" y="0" font-family="Helvetica, Segoe UI Emoji" font-size="36px" fill="#1e1e1e" text-anchor="middle" style="white-space: pre;" direction="ltr" dominant-baseline="text-before-edge">Sam</text></g><g stroke-linecap="round" transform="translate(1536.3678431063377 549.9297391741163) rotate(0 176.78047247377572 100.30410245406947)"><path d="M32 0 M32 0 C131.95 0, 231.89 0, 321.56 0 M32 0 C134.29 0, 236.58 0, 321.56 0 M321.56 0 C342.89 0, 353.56 10.67, 353.56 32 M321.56 0 C342.89 0, 353.56 10.67, 353.56 32 M353.56 32 C353.56 76.19, 353.56 120.39, 353.56 168.61 M353.56 32 C353.56 67.47, 353.56 102.94, 353.56 168.61 M353.56 168.61 C353.56 189.94, 342.89 200.61, 321.56 200.61 M353.56 168.61 C353.56 189.94, 342.89 200.61, 321.56 200.61 M321.56 200.61 C215.43 200.61, 109.3 200.61, 32 200.61 M321.56 200.61 C262.4 200.61, 203.25 200.61, 32 200.61 M32 200.61 C10.67 200.61, 0 189.94, 0 168.61 M32 200.61 C10.67 200.61, 0 189.94, 0 168.61 M0 168.61 C0 129.81, 0 91.02, 0 32 M0 168.61 C0 125.02, 0 81.42, 0 32 M0 32 C0 10.67, 10.67 0, 32 0 M0 32 C0 10.67, 10.67 0, 32 0" stroke="#1e1e1e" stroke-width="2" fill="none"></path></g><g transform="translate(1658.1112062051134 629.5338416281857) rotate(0 55.037109375 20.69999999999999)"><text x="55.037109375" y="0" font-family="Helvetica, Segoe UI Emoji" font-size="36px" fill="#1e1e1e" text-anchor="middle" style="white-space: pre;" direction="ltr" dominant-baseline="text-before-edge">Alyona</text></g><g stroke-linecap="round" transform="translate(735.5536784285468 10) rotate(0 176.78047247377566 100.30410245406947)"><path d="M32 0 M32 0 C146.84 0, 261.67 0, 321.56 0 M32 0 C101.58 0, 171.16 0, 321.56 0 M321.56 0 C342.89 0, 353.56 10.67, 353.56 32 M321.56 0 C342.89 0, 353.56 10.67, 353.56 32 M353.56 32 C353.56 73.87, 353.56 115.74, 353.56 168.61 M353.56 32 C353.56 75.15, 353.56 118.3, 353.56 168.61 M353.56 168.61 C353.56 189.94, 342.89 200.61, 321.56 200.61 M353.56 168.61 C353.56 189.94, 342.89 200.61, 321.56 200.61 M321.56 200.61 C256.27 200.61, 190.99 200.61, 32 200.61 M321.56 200.61 C222.51 200.61, 123.46 200.61, 32 200.61 M32 200.61 C10.67 200.61, 0 189.94, 0 168.61 M32 200.61 C10.67 200.61, 0 189.94, 0 168.61 M0 168.61 C0 135.51, 0 102.41, 0 32 M0 168.61 C0 115.76, 0 62.9, 0 32 M0 32 C0 10.67, 10.67 0, 32 0 M0 32 C0 10.67, 10.67 0, 32 0" stroke="#1e1e1e" stroke-width="2" fill="none"></path></g><g transform="translate(838.2775102773226 68.90410245406946) rotate(0 74.056640625 41.4)"><text x="74.056640625" y="0" font-family="Helvetica, Segoe UI Emoji" font-size="36px" fill="#1e1e1e" text-anchor="middle" style="white-space: pre;" direction="ltr" dominant-baseline="text-before-edge">Signaling</text><text x="74.056640625" y="41.4" font-family="Helvetica, Segoe UI Emoji" font-size="36px" fill="#1e1e1e" text-anchor="middle" style="white-space: pre;" direction="ltr" dominant-baseline="text-before-edge">Server</text></g><g stroke-linecap="round"><g transform="translate(96.10739673155666 503.9046563603863) rotate(0 309.1611852600233 -205.68583520611298)"><path d="M0 0 C103.05 -68.56, 515.27 -342.81, 618.32 -411.37 M0 0 C103.05 -68.56, 515.27 -342.81, 618.32 -411.37" stroke="#1e1e1e" stroke-width="4" fill="none"></path></g><g transform="translate(96.10739673155666 503.9046563603863) rotate(0 309.1611852600233 -205.68583520611298)"><path d="M600.53 -387.21 C606.45 -395.25, 612.37 -403.29, 618.32 -411.37 M600.53 -387.21 C607.49 -396.66, 614.44 -406.1, 618.32 -411.37" stroke="#1e1e1e" stroke-width="4" fill="none"></path></g><g transform="translate(96.10739673155666 503.9046563603863) rotate(0 309.1611852600233 -205.68583520611298)"><path d="M589.17 -404.3 C598.87 -406.65, 608.57 -409, 618.32 -411.37 M589.17 -404.3 C600.57 -407.06, 611.97 -409.83, 618.32 -411.37" stroke="#1e1e1e" stroke-width="4" fill="none"></path></g></g><mask></mask><g transform="translate(252.26848034319784 214.51215613309625) rotate(327.8449473614018 145.4677734375 20.700000000000003)"><text x="0" y="0" font-family="Helvetica, Segoe UI Emoji" font-size="36px" fill="#1e1e1e" text-anchor="start" style="white-space: pre;" direction="ltr" dominant-baseline="text-before-edge">Какой у меня IP?</text></g><g stroke-linecap="round"><g transform="translate(718.7056066504736 171.21827889058548) rotate(0 -236.29896834627147 167.68454811969661)"><path d="M0 0 C-78.77 55.89, -393.83 279.47, -472.6 335.37 M0 0 C-78.77 55.89, -393.83 279.47, -472.6 335.37" stroke="#1e1e1e" stroke-width="4" fill="none"></path></g><g transform="translate(718.7056066504736 171.21827889058548) rotate(0 -236.29896834627147 167.68454811969661)"><path d="M-455.55 310.69 C-461.31 319.03, -467.07 327.37, -472.6 335.37 M-455.55 310.69 C-461.88 319.86, -468.22 329.03, -472.6 335.37" stroke="#1e1e1e" stroke-width="4" fill="none"></path></g><g transform="translate(718.7056066504736 171.21827889058548) rotate(0 -236.29896834627147 167.68454811969661)"><path d="M-443.67 327.42 C-453.44 330.11, -463.22 332.79, -472.6 335.37 M-443.67 327.42 C-454.42 330.38, -465.17 333.33, -472.6 335.37" stroke="#1e1e1e" stroke-width="4" fill="none"></path></g></g><mask></mask><g transform="translate(435.44717877197087 327.75035460235244) rotate(324.96056271219027 116.12109375 20.700000000000003)"><text x="0" y="0" font-family="Helvetica, Segoe UI Emoji" font-size="36px" fill="#1e1e1e" text-anchor="start" style="white-space: pre;" direction="ltr" dominant-baseline="text-before-edge">У тебя 5.5.5.5</text></g><g transform="translate(125.56634216029197 763.4451468463033) rotate(0 65.056640625 20.69999999999999)"><text x="0" y="0" font-family="Helvetica, Segoe UI Emoji" font-size="36px" fill="#1e1e1e" text-anchor="start" style="white-space: pre;" direction="ltr" dominant-baseline="text-before-edge">10.0.0.2</text></g><g stroke-linecap="round"><g transform="translate(1777.6469728278064 531.1996856953663) rotate(0 -336.4184960907811 -216.02802439979504)"><path d="M0 0 C-112.14 -72.01, -560.7 -360.05, -672.84 -432.06 M0 0 C-112.14 -72.01, -560.7 -360.05, -672.84 -432.06" stroke="#1e1e1e" stroke-width="4" fill="none"></path></g><g transform="translate(1777.6469728278064 531.1996856953663) rotate(0 -336.4184960907811 -216.02802439979504)"><path d="M-643.57 -425.46 C-652.7 -427.51, -661.82 -429.57, -672.84 -432.06 M-643.57 -425.46 C-654.09 -427.83, -664.6 -430.2, -672.84 -432.06" stroke="#1e1e1e" stroke-width="4" fill="none"></path></g><g transform="translate(1777.6469728278064 531.1996856953663) rotate(0 -336.4184960907811 -216.02802439979504)"><path d="M-654.66 -408.19 C-660.33 -415.63, -665.99 -423.07, -672.84 -432.06 M-654.66 -408.19 C-661.19 -416.77, -667.72 -425.34, -672.84 -432.06" stroke="#1e1e1e" stroke-width="4" fill="none"></path></g></g><mask></mask><g stroke-linecap="round"><g transform="translate(1107.9469674618776 185.64102965001274) rotate(0 266.67893035161296 171.27193019752193)"><path d="M0 0 C88.89 57.09, 444.46 285.45, 533.36 342.54 M0 0 C88.89 57.09, 444.46 285.45, 533.36 342.54" stroke="#1e1e1e" stroke-width="4" fill="none"></path></g><g transform="translate(1107.9469674618776 185.64102965001274) rotate(0 266.67893035161296 171.27193019752193)"><path d="M504.09 335.94 C513.54 338.07, 522.98 340.2, 533.36 342.54 M504.09 335.94 C512.03 337.73, 519.96 339.52, 533.36 342.54" stroke="#1e1e1e" stroke-width="4" fill="none"></path></g><g transform="translate(1107.9469674618776 185.64102965001274) rotate(0 266.67893035161296 171.27193019752193)"><path d="M515.18 318.68 C521.05 326.38, 526.91 334.08, 533.36 342.54 M515.18 318.68 C520.11 325.15, 525.04 331.62, 533.36 342.54" stroke="#1e1e1e" stroke-width="4" fill="none"></path></g></g><mask></mask><g transform="translate(1268.571564137058 206.43529758635526) rotate(33.349748464413175 145.4677734375 20.700000000000003)"><text x="0" y="0" font-family="Helvetica, Segoe UI Emoji" font-size="36px" fill="#1e1e1e" text-anchor="start" style="white-space: pre;" direction="ltr" dominant-baseline="text-before-edge">Какой у меня IP?</text></g><g transform="translate(1169.6212816932975 345.5272940850847) rotate(32.87833237300071 116.12109375 20.700000000000003)"><text x="0" y="0" font-family="Helvetica, Segoe UI Emoji" font-size="36px" fill="#1e1e1e" text-anchor="start" style="white-space: pre;" direction="ltr" dominant-baseline="text-before-edge">У тебя 6.6.6.6</text></g><g transform="translate(1619.2840246229298 795.4928248154338) rotate(0 95.0888671875 20.69999999999999)"><text x="0" y="0" font-family="Helvetica, Segoe UI Emoji" font-size="36px" fill="#1e1e1e" text-anchor="start" style="white-space: pre;" direction="ltr" dominant-baseline="text-before-edge">162.186.0.1</text></g><g stroke-linecap="round"><g transform="translate(381.5083483608492 595.7399251736357) rotate(0 567.6800881190316 -0.8082852007723602)"><path d="M0 0 C189.23 -0.27, 946.13 -1.35, 1135.36 -1.62 M0 0 C189.23 -0.27, 946.13 -1.35, 1135.36 -1.62" stroke="#1e1e1e" stroke-width="4" fill="none"></path></g><g transform="translate(381.5083483608492 595.7399251736357) rotate(0 567.6800881190316 -0.8082852007723602)"><path d="M1107.18 8.68 C1113.98 6.2, 1120.77 3.72, 1135.36 -1.62 M1107.18 8.68 C1118.13 4.68, 1129.07 0.68, 1135.36 -1.62" stroke="#1e1e1e" stroke-width="4" fill="none"></path></g><g transform="translate(381.5083483608492 595.7399251736357) rotate(0 567.6800881190316 -0.8082852007723602)"><path d="M1107.15 -11.84 C1113.96 -9.37, 1120.76 -6.91, 1135.36 -1.62 M1107.15 -11.84 C1118.11 -7.87, 1129.07 -3.9, 1135.36 -1.62" stroke="#1e1e1e" stroke-width="4" fill="none"></path></g></g><mask></mask><g transform="translate(619.627194772178 509.11245565814556) rotate(0 310.587890625 20.69999999999999)"><text x="0" y="0" font-family="Helvetica, Segoe UI Emoji" font-size="36px" fill="#1e1e1e" text-anchor="start" style="white-space: pre;" direction="ltr" dominant-baseline="text-before-edge">Привет 7.7.7.7 давай подключаться </text></g><g stroke-linecap="round"><g transform="translate(1520.9769986715337 679.3260906892832) rotate(0 -567.0272122524381 0.8344889458950604)"><path d="M0 0 C-189.01 0.28, -945.05 1.39, -1134.05 1.67 M0 0 C-189.01 0.28, -945.05 1.39, -1134.05 1.67" stroke="#1e1e1e" stroke-width="4" fill="none"></path></g><g transform="translate(1520.9769986715337 679.3260906892832) rotate(0 -567.0272122524381 0.8344889458950604)"><path d="M-1105.88 -8.63 C-1114.42 -5.51, -1122.96 -2.39, -1134.05 1.67 M-1105.88 -8.63 C-1114.97 -5.31, -1124.07 -1.98, -1134.05 1.67" stroke="#1e1e1e" stroke-width="4" fill="none"></path></g><g transform="translate(1520.9769986715337 679.3260906892832) rotate(0 -567.0272122524381 0.8344889458950604)"><path d="M-1105.85 11.89 C-1114.4 8.79, -1122.95 5.69, -1134.05 1.67 M-1105.85 11.89 C-1114.95 8.59, -1124.06 5.29, -1134.05 1.67" stroke="#1e1e1e" stroke-width="4" fill="none"></path></g></g><mask></mask><g transform="translate(781.4906224746808 717.2787572994463) rotate(0 117.7734375 20.69999999999999)"><text x="0" y="0" font-family="Helvetica, Segoe UI Emoji" font-size="36px" fill="#1e1e1e" text-anchor="start" style="white-space: pre;" direction="ltr" dominant-baseline="text-before-edge">Привет, окей!</text></g></svg>