<svg id="graph-div" width="100%" xmlns="http://www.w3.org/2000/svg" xmlns:xlink="http://www.w3.org/1999/xlink" height="314.125" style="max-width: 727.796875px;" viewBox="-20 -20 727.796875 314.125"><style>#graph-div {font-family:"trebuchet ms",verdana,arial,sans-serif;font-size:16px;fill:#333;}#graph-div .error-icon{fill:#552222;}#graph-div .error-text{fill:#552222;stroke:#552222;}#graph-div .edge-thickness-normal{stroke-width:2px;}#graph-div .edge-thickness-thick{stroke-width:3.5px;}#graph-div .edge-pattern-solid{stroke-dasharray:0;}#graph-div .edge-pattern-dashed{stroke-dasharray:3;}#graph-div .edge-pattern-dotted{stroke-dasharray:2;}#graph-div .marker{fill:#333333;stroke:#333333;}#graph-div .marker.cross{stroke:#333333;}#graph-div svg{font-family:"trebuchet ms",verdana,arial,sans-serif;font-size:16px;}#graph-div g.classGroup text{fill:#9370DB;fill:#131300;stroke:none;font-family:"trebuchet ms",verdana,arial,sans-serif;font-size:10px;}#graph-div g.classGroup text .title{font-weight:bolder;}#graph-div .classTitle{font-weight:bolder;}#graph-div .node rect,#graph-div .node circle,#graph-div .node ellipse,#graph-div .node polygon,#graph-div .node path{fill:#ECECFF;stroke:#9370DB;stroke-width:1px;}#graph-div .divider{stroke:#9370DB;stroke:1;}#graph-div g.clickable{cursor:pointer;}#graph-div g.classGroup rect{fill:#ECECFF;stroke:#9370DB;}#graph-div g.classGroup line{stroke:#9370DB;stroke-width:1;}#graph-div .classLabel .box{stroke:none;stroke-width:0;fill:#ECECFF;opacity:0.5;}#graph-div .classLabel .label{fill:#9370DB;font-size:10px;}#graph-div .relation{stroke:#333333;stroke-width:1;fill:none;}#graph-div .dashed-line{stroke-dasharray:3;}#graph-div #compositionStart,#graph-div .composition{fill:#333333!important;stroke:#333333!important;stroke-width:1;}#graph-div #compositionEnd,#graph-div .composition{fill:#333333!important;stroke:#333333!important;stroke-width:1;}#graph-div #dependencyStart,#graph-div .dependency{fill:#333333!important;stroke:#333333!important;stroke-width:1;}#graph-div #dependencyStart,#graph-div .dependency{fill:#333333!important;stroke:#333333!important;stroke-width:1;}#graph-div #extensionStart,#graph-div .extension{fill:#333333!important;stroke:#333333!important;stroke-width:1;}#graph-div #extensionEnd,#graph-div .extension{fill:#333333!important;stroke:#333333!important;stroke-width:1;}#graph-div #aggregationStart,#graph-div .aggregation{fill:#ECECFF!important;stroke:#333333!important;stroke-width:1;}#graph-div #aggregationEnd,#graph-div .aggregation{fill:#ECECFF!important;stroke:#333333!important;stroke-width:1;}#graph-div .edgeTerminals{font-size:11px;}#graph-div :root{--mermaid-font-family:"trebuchet ms",verdana,arial,sans-serif;}</style><g></g><defs><marker id="extensionStart" class="extension" refX="0" refY="7" markerWidth="190" markerHeight="240" orient="auto"><path d="M 1,7 L18,13 V 1 Z"></path></marker></defs><defs><marker id="extensionEnd" refX="19" refY="7" markerWidth="20" markerHeight="28" orient="auto"><path d="M 1,1 V 13 L18,7 Z"></path></marker></defs><defs><marker id="compositionStart" class="extension" refX="0" refY="7" markerWidth="190" markerHeight="240" orient="auto"><path d="M 18,7 L9,13 L1,7 L9,1 Z"></path></marker></defs><defs><marker id="compositionEnd" refX="19" refY="7" markerWidth="20" markerHeight="28" orient="auto"><path d="M 18,7 L9,13 L1,7 L9,1 Z"></path></marker></defs><defs><marker id="aggregationStart" class="extension" refX="0" refY="7" markerWidth="190" markerHeight="240" orient="auto"><path d="M 18,7 L9,13 L1,7 L9,1 Z"></path></marker></defs><defs><marker id="aggregationEnd" refX="19" refY="7" markerWidth="20" markerHeight="28" orient="auto"><path d="M 18,7 L9,13 L1,7 L9,1 Z"></path></marker></defs><defs><marker id="dependencyStart" class="extension" refX="0" refY="7" markerWidth="190" markerHeight="240" orient="auto"><path d="M 5,7 L9,13 L1,7 L9,1 Z"></path></marker></defs><defs><marker id="dependencyEnd" refX="19" refY="7" markerWidth="20" markerHeight="28" orient="auto"><path d="M 18,7 L9,13 L14,7 L9,1 Z"></path></marker></defs><g id="classid-SchedulerLike-886" class="classGroup" transform="translate(317.7421875,0 )"><rect x="0" y="0" width="76.328125" height="31" class=" "></rect><text y="15" x="0"><tspan class="title" x="5">SchedulerLike</tspan></text><line x1="0" y1="21.5" y2="21.5" x2="76.328125"></line><text x="5" y="31.5" fill="white" class="classText"></text><line x1="0" y1="26.5" y2="26.5" x2="76.328125"></line><text x="5" y="41.5" fill="white" class="classText"></text></g><g id="classid-Scheduler-887" class="classGroup" transform="translate(327.609375,81 )"><rect x="0" y="0" width="56.59375" height="31" class=" "></rect><text y="15" x="0"><tspan class="title" x="5">Scheduler</tspan></text><line x1="0" y1="21.5" y2="21.5" x2="56.59375"></line><text x="5" y="31.5" fill="white" class="classText"></text><line x1="0" y1="26.5" y2="26.5" x2="56.59375"></line><text x="5" y="41.5" fill="white" class="classText"></text></g><g id="classid-AsyncScheduler-888" class="classGroup" transform="translate(314.109375,162 )"><rect x="0" y="0" width="83.59375" height="31.0625" class=" "></rect><text y="15" x="0"><tspan class="title" x="5">AsyncScheduler</tspan></text><line x1="0" y1="21.5625" y2="21.5625" x2="83.59375"></line><text x="5" y="31.5625" fill="white" class="classText"></text><line x1="0" y1="26.5625" y2="26.5625" x2="83.59375"></line><text x="5" y="41.5625" fill="white" class="classText"></text></g><g id="classid-AsapScheduler-889" class="classGroup" transform="translate(0,243.0625 )"><rect x="0" y="0" width="78.390625" height="31.0625" class=" "></rect><text y="15" x="0"><tspan class="title" x="5">AsapScheduler</tspan></text><line x1="0" y1="21.5625" y2="21.5625" x2="78.390625"></line><text x="5" y="31.5625" fill="white" class="classText"></text><line x1="0" y1="26.5625" y2="26.5625" x2="78.390625"></line><text x="5" y="41.5625" fill="white" class="classText"></text></g><g id="classid-AnimationFrameScheduler-890" class="classGroup" transform="translate(128.390625,243.09375 )"><rect x="0" y="0" width="134.015625" height="31" class=" "></rect><text y="15" x="0"><tspan class="title" x="5">AnimationFrameScheduler</tspan></text><line x1="0" y1="21.5" y2="21.5" x2="134.015625"></line><text x="5" y="31.5" fill="white" class="classText"></text><line x1="0" y1="26.5" y2="26.5" x2="134.015625"></line><text x="5" y="41.5" fill="white" class="classText"></text></g><g id="classid-QueueScheduler-891" class="classGroup" transform="translate(312.40625,243.09375 )"><rect x="0" y="0" width="87" height="31" class=" "></rect><text y="15" x="0"><tspan class="title" x="5">QueueScheduler</tspan></text><line x1="0" y1="21.5" y2="21.5" x2="87"></line><text x="5" y="31.5" fill="white" class="classText"></text><line x1="0" y1="26.5" y2="26.5" x2="87"></line><text x="5" y="41.5" fill="white" class="classText"></text></g><g id="classid-TestScheduler-892" class="classGroup" transform="translate(449.40625,243.09375 )"><rect x="0" y="0" width="76.734375" height="31" class=" "></rect><text y="15" x="0"><tspan class="title" x="5">TestScheduler</tspan></text><line x1="0" y1="21.5" y2="21.5" x2="76.734375"></line><text x="5" y="31.5" fill="white" class="classText"></text><line x1="0" y1="26.5" y2="26.5" x2="76.734375"></line><text x="5" y="41.5" fill="white" class="classText"></text></g><g id="classid-VirtualTimeScheduler-893" class="classGroup" transform="translate(576.140625,243.09375 )"><rect x="0" y="0" width="111.65625" height="31" class=" "></rect><text y="15" x="0"><tspan class="title" x="5">VirtualTimeScheduler</tspan></text><line x1="0" y1="21.5" y2="21.5" x2="111.65625"></line><text x="5" y="31.5" fill="white" class="classText"></text><line x1="0" y1="26.5" y2="26.5" x2="111.65625"></line><text x="5" y="41.5" fill="white" class="classText"></text></g><path d="M355.90625,31L355.90625,35.166666666666664C355.90625,39.333333333333336,355.90625,47.666666666666664,355.90625,56C355.90625,64.33333333333333,355.90625,72.66666666666667,355.90625,76.83333333333333L355.90625,81" id="edge84" class="relation dashed-line" marker-start="url(#extensionStart)"></path><path d="M355.90625,112L355.90625,116.16666666666667C355.90625,120.33333333333333,355.90625,128.66666666666666,355.90625,137C355.90625,145.33333333333334,355.90625,153.66666666666666,355.90625,157.83333333333334L355.90625,162" id="edge85" class="relation" marker-start="url(#extensionStart)"></path><path d="M314.109375,182.88022721946768L268.2903645833333,188.7439393495564C222.47135416666666,194.6076514796451,130.83333333333334,206.33507573982254,85.01432291666667,216.36545453657797C39.1953125,226.39583333333334,39.1953125,234.72916666666666,39.1953125,238.89583333333334L39.1953125,243.0625" id="edge86" class="relation" marker-start="url(#extensionStart)"></path><path d="M314.109375,188.08574926989536L294.32421875,193.08187439157948C274.5390625,198.07799951326356,234.96875,208.0702497566318,215.18359375,217.23824987831588C195.3984375,226.40625,195.3984375,234.75,195.3984375,238.921875L195.3984375,243.09375" id="edge87" class="relation" marker-start="url(#extensionStart)"></path><path d="M355.90625,193.0625L355.90625,197.22916666666666C355.90625,201.39583333333334,355.90625,209.72916666666666,355.90625,218.06770833333334C355.90625,226.40625,355.90625,234.75,355.90625,238.921875L355.90625,243.09375" id="edge88" class="relation" marker-start="url(#extensionStart)"></path><path d="M397.703125,190.3781122252503L412.71484375,194.9921768543753C427.7265625,199.6062414835002,457.75,208.83437074175012,472.76171875,217.62031037087505C487.7734375,226.40625,487.7734375,234.75,487.7734375,238.921875L487.7734375,243.09375" id="edge89" class="relation" marker-start="url(#extensionStart)"></path><path d="M397.703125,183.66782990434683L436.7473958333333,189.40027492028904C475.7916666666667,195.1327199362312,553.8802083333334,206.59760996811562,592.9244791666666,216.50192998405782C631.96875,226.40625,631.96875,234.75,631.96875,238.921875L631.96875,243.09375" id="edge90" class="relation" marker-start="url(#extensionStart)"></path></svg>