<svg xmlns="http://www.w3.org/2000/svg" xmlns:xlink="http://www.w3.org/1999/xlink" width="1984.289" height="797.976" viewBox="0 0 1984.289 797.976">
  <defs>
    <linearGradient id="linear-gradient" x1="0.019" y1="0.522" x2="1.005" y2="0.446" gradientUnits="objectBoundingBox">
      <stop offset="0" stop-color="#94adf5"/>
      <stop offset="1" stop-color="#5876c8" stop-opacity="0.051"/>
    </linearGradient>
    <linearGradient id="linear-gradient-3" x1="0.019" y1="0.478" x2="1.005" y2="0.554" xlink:href="#linear-gradient"/>
    <linearGradient id="linear-gradient-7" x1="0.802" y1="1.007" x2="0.322" y2="-0.719" gradientUnits="objectBoundingBox">
      <stop offset="0" stop-color="#a1baff"/>
      <stop offset="1" stop-color="#3f51b5" stop-opacity="0.38"/>
    </linearGradient>
    <linearGradient id="linear-gradient-8" x1="0.019" y1="0.522" x2="1.005" y2="0.446" gradientUnits="objectBoundingBox">
      <stop offset="0" stop-color="#2ecc71"/>
      <stop offset="1" stop-color="#5876c8" stop-opacity="0.051"/>
    </linearGradient>
    <linearGradient id="linear-gradient-9" x1="0.019" y1="0.478" x2="1.005" y2="0.554" xlink:href="#linear-gradient-8"/>
    <linearGradient id="linear-gradient-10" y1="0.5" x2="1" y2="0.5" gradientUnits="objectBoundingBox">
      <stop offset="0" stop-color="#ffc107"/>
      <stop offset="1" stop-color="#ffc107" stop-opacity="0.012"/>
    </linearGradient>
  </defs>
  <g id="Group_3815" data-name="Group 3815" transform="translate(14419.75 15520.113)">
    <rect id="Rectangle_4250" data-name="Rectangle 4250" width="494" height="25" transform="translate(-14285.158 -14813.825) rotate(-30)" fill="#94adf5"/>
    <rect id="Rectangle_4248" data-name="Rectangle 4248" width="431" height="25" transform="translate(-14287.039 -15156.325) rotate(-30)" fill="#94adf5"/>
    <path id="Path_6390" data-name="Path 6390" d="M0,0,93.49,1.991,107,25H0Z" transform="translate(-13914.63 -15371.325) rotate(-30)" fill="url(#linear-gradient)"/>
    <rect id="Rectangle_4256" data-name="Rectangle 4256" width="107" height="25" transform="translate(-13683.466 -14804) rotate(150)" fill="url(#linear-gradient)"/>
    <path id="Path_6403" data-name="Path 6403" d="M0,0H107L93.7,24.135,0,25Z" transform="translate(-13470.966 -15288.8) rotate(-150)" fill="url(#linear-gradient-3)"/>
    <rect id="Rectangle_4257" data-name="Rectangle 4257" width="106.999" height="25" transform="translate(-14126.13 -14802.65) rotate(30)" fill="url(#linear-gradient-3)"/>
    <path id="Path_6414" data-name="Path 6414" d="M0,0H107L94.491,23.438,0,25Z" transform="translate(-12849.966 -15360.675) rotate(-150)" fill="url(#linear-gradient-3)"/>
    <g id="Group_3808" data-name="Group 3808" transform="translate(-14266 -15933)">
      <path id="Path_6343" data-name="Path 6343" d="M0,0,93.1,1.819,107,25H0Z" transform="translate(844.37 620.05) rotate(-30)" fill="url(#linear-gradient)"/>
      <rect id="Rectangle_4215" data-name="Rectangle 4215" width="291" height="25" transform="translate(593.013 765.175) rotate(-30)" fill="#94adf5"/>
    </g>
    <rect id="Rectangle_4253" data-name="Rectangle 4253" width="494" height="25" transform="translate(-13643.158 -14854.825) rotate(-30)" fill="#94adf5"/>
    <rect id="Rectangle_4258" data-name="Rectangle 4258" width="494" height="25" transform="translate(-13152.158 -15132.825) rotate(-30)" fill="#94adf5"/>
    <rect id="Rectangle_4254" data-name="Rectangle 4254" width="81" height="25" transform="translate(-13696.49 -14825.325) rotate(-30)" fill="#94adf5"/>
    <path id="Path_6387" data-name="Path 6387" d="M35.518-1.561l192.949-.569-47.45,82.564-192.362-.486Z" transform="translate(-14120.238 -15190.391) rotate(30)" fill="rgba(161,186,255,0.57)"/>
    <path id="Union_14" data-name="Union 14" d="M17981.24,24905.082l63.133-36.6-35.131-20.4,81.338-47.16,167.381,95.982-63.336,36.734,35.34,20.264-82.373,47.781Z" transform="translate(-31966.281 -39789.906)" fill="rgba(161,186,255,0.82)"/>
    <path id="Path_6388" data-name="Path 6388" d="M35.518-1.561,227.189.791,181.016,80.434l-192.362-.486Z" transform="translate(-13929.238 -15329.391) rotate(30)" fill="rgba(161,186,255,0.82)"/>
    <path id="Path_6391" data-name="Path 6391" d="M103.131,3.229,227.189.791,181.016,80.434l-122.8.136Z" transform="translate(-14238.238 -15105.391) rotate(30)" fill="rgba(161,186,255,0.82)"/>
    <path id="Path_6384" data-name="Path 6384" d="M103.131,3.229,227.189.791,181.016,80.434l-122.8.136Z" transform="translate(-14183.238 -15475.391) rotate(30)" fill="rgba(161,186,255,0.82)"/>
    <path id="Path_6385" data-name="Path 6385" d="M103.131,3.229,227.189.791,181.016,80.434l-122.8.136Z" transform="translate(-14349.238 -15380.391) rotate(30)" fill="rgba(161,186,255,0.82)"/>
    <path id="Path_6395" data-name="Path 6395" d="M103.131,3.229,227.189.791,181.016,80.434l-122.8.136Z" transform="translate(-14335.238 -15049.391) rotate(30)" fill="rgba(161,186,255,0.82)"/>
    <path id="Path_6389" data-name="Path 6389" d="M103.131,3.229,227.189.791,181.016,80.434l-122.8.136Z" transform="translate(-14379.238 -15187.391) rotate(30)" fill="rgba(161,186,255,0.82)"/>
    <path id="Path_6386" data-name="Path 6386" d="M198.976-.489,228.289-.53,180.373,81.938l-28.366-.111Z" transform="translate(-14299.238 -15295.391) rotate(30)" fill="rgba(161,186,255,0.82)"/>
    <path id="Path_6408" data-name="Path 6408" d="M198.976-.489,228.289-.53,180.373,81.938l-28.366-.111Z" transform="translate(-13477.238 -15091.391) rotate(30)" fill="rgba(161,186,255,0.82)"/>
    <path id="Path_6415" data-name="Path 6415" d="M198.976-.489,228.289-.53,180.373,81.938l-28.366-.111Z" transform="translate(-12952.238 -15397.391) rotate(30)" fill="rgba(161,186,255,0.82)"/>
    <path id="Path_6393" data-name="Path 6393" d="M198.976-.489,228.289-.53,180.373,81.938l-28.366-.111Z" transform="translate(-13889.238 -15303.391) rotate(30)" fill="rgba(161,186,255,0.82)"/>
    <path id="Path_6407" data-name="Path 6407" d="M198.976-.489,228.289-.53,180.373,81.938l-28.366-.111Z" transform="translate(-13486.238 -15191.391) rotate(30)" fill="rgba(161,186,255,0.82)"/>
    <path id="Path_6405" data-name="Path 6405" d="M46.969,82.427l29.313.041L28.366,0,0,.112Z" transform="translate(-13482.566 -15207.705) rotate(-30)" fill="rgba(161,186,255,0.82)"/>
    <path id="Path_6399" data-name="Path 6399" d="M46.969,82.427l29.313.041L28.366,0,0,.112Z" transform="translate(-13636.566 -15320.705) rotate(-30)" fill="rgba(161,186,255,0.82)"/>
    <path id="Path_6417" data-name="Path 6417" d="M46.969,82.427l29.313.041L28.366,0,0,.112Z" transform="translate(-12760.566 -15256.705) rotate(-30)" fill="rgba(161,186,255,0.82)"/>
    <path id="Path_6409" data-name="Path 6409" d="M46.969,82.427l29.313.041L28.366,0,0,.112Z" transform="translate(-13377.566 -15145.705) rotate(-30)" fill="rgba(161,186,255,0.82)"/>
    <path id="Path_6406" data-name="Path 6406" d="M46.969,82.427l29.313.041L28.366,0,0,.112Z" transform="translate(-13446.566 -15228.705) rotate(-30)" fill="rgba(161,186,255,0.82)"/>
    <path id="Path_6410" data-name="Path 6410" d="M46.969,82.427l29.313.041L28.366,0,0,.112Z" transform="translate(-13341.566 -15166.705) rotate(-30)" fill="rgba(161,186,255,0.82)"/>
    <path id="Path_6398" data-name="Path 6398" d="M46.969,82.427l29.313.041L28.366,0,0,.112Z" transform="translate(-13694.566 -15097.705) rotate(-30)" fill="rgba(161,186,255,0.82)"/>
    <path id="Path_6404" data-name="Path 6404" d="M46.969,82.427l29.313.041L28.366,0,0,.112Z" transform="translate(-13560.566 -15020.705) rotate(-30)" fill="rgba(161,186,255,0.82)"/>
    <path id="Path_6400" data-name="Path 6400" d="M21.27,37.564l28.568-.755L28.366,0,0,.112Z" transform="translate(-13605.566 -15045.705) rotate(-30)" fill="rgba(161,186,255,0.82)"/>
    <path id="Path_6394" data-name="Path 6394" d="M35.518-1.561,227.189.791,181.016,80.434l-192.362-.486Z" transform="translate(-13752.238 -15099.391) rotate(30)" fill="rgba(161,186,255,0.82)"/>
    <path id="Path_6402" data-name="Path 6402" d="M35.518-1.561,227.189.791,181.016,80.434l-192.362-.486Z" transform="translate(-13528.238 -15216.391) rotate(30)" fill="rgba(161,186,255,0.48)"/>
    <path id="Path_6411" data-name="Path 6411" d="M35.518-1.561,227.189.791,181.016,80.434l-192.362-.486Z" transform="translate(-13301.238 -15345.391) rotate(30)" fill="rgba(161,186,255,0.82)"/>
    <path id="Path_6412" data-name="Path 6412" d="M35.518-1.561,227.189.791,181.016,80.434l-192.362-.486Z" transform="translate(-13192.238 -15406.391) rotate(30)" fill="rgba(161,186,255,0.48)"/>
    <path id="Path_6413" data-name="Path 6413" d="M35.518-1.561,227.189.791,181.016,80.434l-192.362-.486Z" transform="translate(-13087.238 -15468.391) rotate(30)" fill="url(#linear-gradient-7)"/>
    <path id="Path_6392" data-name="Path 6392" d="M35.518-1.561,227.189.791,181.016,80.434l-192.362-.486Z" transform="translate(-13784.238 -15367.391) rotate(30)" fill="rgba(161,186,255,0.82)"/>
    <path id="Path_6401" data-name="Path 6401" d="M35.518-1.561,227.189.791,181.016,80.434l-192.362-.486Z" transform="translate(-14086.238 -14905.391) rotate(30)" fill="rgba(161,186,255,0.56)"/>
    <rect id="Rectangle_4251" data-name="Rectangle 4251" width="319" height="25" transform="translate(-14401.658 -14961.825) rotate(30)" fill="#94adf5"/>
    <rect id="Rectangle_4247" data-name="Rectangle 4247" width="494" height="25" transform="translate(-14268.658 -15397.825) rotate(30)" fill="#94adf5"/>
    <rect id="Rectangle_4255" data-name="Rectangle 4255" width="334" height="25" transform="translate(-13459.094 -15310.825) rotate(30)" fill="#94adf5"/>
    <rect id="Rectangle_4252" data-name="Rectangle 4252" width="334" height="25" transform="translate(-13655.094 -15169.825) rotate(30)" fill="#94adf5"/>
    <rect id="Rectangle_4259" data-name="Rectangle 4259" width="453" height="25" transform="translate(-12839.151 -15383.325) rotate(30)" fill="#94adf5"/>
    <path id="Path_6416" data-name="Path 6416" d="M0,189.75s9.4-.559,4.227-1.85S326.855,0,326.855,0" transform="translate(-12768.5 -15509.25)" fill="none" stroke="#ffc107" stroke-width="25"/>
    <rect id="Rectangle_4249" data-name="Rectangle 4249" width="107" height="25" transform="translate(-14145.467 -15209.069) rotate(150)" fill="url(#linear-gradient-8)"/>
    <rect id="Rectangle_4260" data-name="Rectangle 4260" width="106.999" height="25" transform="translate(-12660.131 -15279.829) rotate(30)" fill="url(#linear-gradient-9)"/>
    <line id="Line_2439" data-name="Line 2439" y1="550" x2="952" transform="translate(-14329.5 -15323.5)" fill="none" stroke="#fff" stroke-width="1" stroke-dasharray="15 15"/>
    <line id="Line_2440" data-name="Line 2440" y1="321" x2="558" transform="translate(-13731.5 -15111.5)" fill="none" stroke="#fff" stroke-width="1" stroke-dasharray="15 15"/>
    <line id="Line_2438" data-name="Line 2438" y1="329" x2="571" transform="translate(-14419.5 -15394.5)" fill="none" stroke="#fff" stroke-width="1" stroke-dasharray="15 15"/>
    <g id="Group_3805" data-name="Group 3805" transform="translate(-14270 -15767)">
      <line id="Line_2417" data-name="Line 2417" x2="271" y2="157" transform="translate(240.5 521.5)" fill="none" stroke="#2ecc71" stroke-width="25"/>
      <path id="Path_6337" data-name="Path 6337" d="M205.626,0,150.192,32.357" transform="translate(-33.126 515.5)" fill="none" stroke="#2ecc71" stroke-width="25"/>
      <path id="Path_6301" data-name="Path 6301" d="M-17738.771-24254.447l-4.387-2.494s-37.939-22.246-68.658-2.617" transform="translate(17981 24777)" fill="none" stroke="#2ecc71" stroke-width="25"/>
    </g>
    <g id="Group_3807" data-name="Group 3807" transform="translate(-14263 -15764)">
      <g id="Group_3741" data-name="Group 3741" transform="translate(13 -16)">
        <g id="Group_3740" data-name="Group 3740">
          <path id="Path_6302" data-name="Path 6302" d="M-2.5,3.229C-13.586-3.527,235.669,136,235.669,136" transform="translate(375.5 743.5)" fill="none" stroke="#ffc107" stroke-width="25"/>
          <path id="Path_6303" data-name="Path 6303" d="M0,189.75s9.4-.559,4.227-1.85S326.855,0,326.855,0" transform="translate(370.5 557.75)" fill="none" stroke="#ffc107" stroke-width="25"/>
        </g>
        <path id="Path_6304" data-name="Path 6304" d="M-17611.086-24027.437l-4.223,7.311,1.27.791,4.979-7.484Z" transform="translate(17981 24777)" fill="#ffc107"/>
      </g>
      <rect id="Rectangle_4210" data-name="Rectangle 4210" width="68" height="25" transform="translate(703.8 531.1) rotate(-30)" fill="url(#linear-gradient-10)"/>
    </g>
    <g id="Group_3809" data-name="Group 3809" transform="translate(-13710.724 -14978.734)">
      <path id="Union_2" data-name="Union 2" d="M0,0V57.846c0,31.947,53.618,57.846,119.759,57.846s119.759-25.9,119.759-57.846C239.518,25.97,186.146.117,120.211,0H0Z" transform="translate(239.518 179.937) rotate(180)" fill="#bbdffb"/>
      <path id="Union_1" data-name="Union 1" d="M0,0V42.021C0,65.229,38.95,84.042,87,84.042s87-18.814,87-42.021C173.994,18.866,135.223.085,87.325,0H0Z" transform="translate(219.164 164.046) rotate(180)" fill="#2196f3"/>
      <g id="Group_3614" data-name="Group 3614" transform="translate(6.253 0)">
        <path id="Path_5915" data-name="Path 5915" d="M252.992,543.241l141.364,81.151,42.006-24.154L299.369,518.205Z" transform="translate(-252.992 -468.926)" fill="#1d1d1b" opacity="0.1"/>
        <g id="Group_3597" data-name="Group 3597" transform="translate(75.925 100.248)">
          <g id="Group_3596" data-name="Group 3596" transform="translate(0)">
            <path id="Path_5916" data-name="Path 5916" d="M390.194,596.358a3.588,3.588,0,0,1,.389-.195c.024-.011.054-.018.076-.029.044-.017.088-.031.132-.047.068-.024.134-.055.2-.076s.15-.035.225-.054c.045-.009.091-.023.138-.033.024-.007.049-.014.075-.019a4.622,4.622,0,0,1,.471-.059c.009,0,.018,0,.03,0h.115c.123-.007.246-.012.372-.01.041,0,.086.011.128.013.076,0,.156.012.236.02s.144.009.221.02c.062.009.128.028.192.04.1.017.213.039.32.062.058.014.115.02.174.035.131.035.264.076.4.118l.041.01c.159.055.32.111.483.177.063.026.129.058.192.085s.124.055.188.083c.235.108.475.225.718.362s.5.3.748.464c.081.052.16.11.24.168.165.116.331.236.493.362.091.071.179.144.27.219.15.123.3.248.445.378.089.081.178.161.266.244.054.05.11.1.165.148s.112.12.169.177c.18.177.353.358.527.546.053.059.112.113.165.175s.089.106.134.157q.159.183.309.37c.064.079.133.154.2.235s.1.139.158.207c.076.1.147.2.221.294.05.063.1.128.149.2.082.116.162.238.244.355.051.073.105.146.154.222.02.031.042.061.062.09.142.217.28.435.41.655.01.016.018.032.027.049l.08.139c.09.156.182.311.268.466.041.076.079.151.118.226s.081.155.121.235.072.132.1.2c.092.184.178.367.263.556.013.031.031.059.043.091a.269.269,0,0,0,.013.027c.105.23.2.462.3.7.016.043.03.087.047.13.035.087.066.171.1.257.045.116.089.231.129.347.032.09.059.18.089.272.034.109.068.215.1.323.019.064.044.129.062.2.034.12.059.238.091.357s.072.266.1.4c.011.046.026.093.035.135.022.1.034.194.054.288.041.209.082.416.114.623.009.056.023.115.031.171.018.131.029.259.042.389.012.091.024.183.031.273.024.292.043.577.046.864.023,2.46-.825,4.2-2.215,5.031l-4.882,2.917c1.389-.831,2.238-2.572,2.213-5.031,0-.284-.019-.572-.044-.861-.009-.093-.021-.185-.03-.277-.021-.183-.045-.371-.076-.561s-.071-.414-.113-.619c-.03-.141-.056-.282-.089-.424s-.069-.267-.1-.4c-.049-.185-.1-.368-.154-.552-.031-.109-.068-.216-.1-.323-.067-.2-.139-.414-.214-.619-.034-.085-.064-.172-.1-.257q-.167-.429-.355-.854c-.014-.031-.031-.06-.044-.092-.117-.253-.241-.507-.369-.755-.038-.077-.079-.155-.12-.232-.125-.234-.254-.464-.388-.694-.025-.045-.053-.093-.08-.141q-.239-.4-.5-.791c-.051-.075-.1-.148-.156-.223q-.191-.279-.393-.552c-.072-.1-.145-.2-.221-.293-.116-.15-.236-.3-.358-.444-.1-.122-.2-.247-.305-.364s-.2-.223-.3-.335c-.17-.188-.347-.37-.523-.546-.112-.11-.223-.221-.337-.326-.087-.083-.177-.163-.266-.243-.146-.131-.295-.257-.446-.38-.089-.073-.179-.146-.268-.217-.163-.129-.331-.247-.5-.364-.079-.055-.158-.114-.238-.168-.248-.163-.5-.32-.749-.461s-.483-.255-.721-.364l-.185-.08a6.817,6.817,0,0,0-.678-.261l-.041-.015c-.192-.061-.382-.106-.57-.151-.11-.024-.214-.043-.321-.062-.139-.028-.276-.044-.414-.059q-.117-.014-.232-.022a4.531,4.531,0,0,0-.5,0c-.039,0-.077,0-.115,0a4.333,4.333,0,0,0-.575.078c-.047.011-.091.024-.137.033a4.321,4.321,0,0,0-.427.13c-.044.016-.089.031-.131.049a3.6,3.6,0,0,0-.508.248l4.885-2.919Z" transform="translate(-383.052 -595.832)" fill="#333"/>
            <g id="Group_3595" data-name="Group 3595" transform="translate(0 2.918)">
              <path id="Path_5917" data-name="Path 5917" d="M400.479,601.3a17.123,17.123,0,0,1,7.937,13.367c.047,4.953-3.43,6.989-7.769,4.557s-7.895-8.419-7.941-13.371S396.138,598.869,400.479,601.3Z" transform="translate(-392.705 -600.277)" fill="#474c52"/>
            </g>
          </g>
        </g>
        <g id="Group_3600" data-name="Group 3600" transform="translate(79.702 107.966)">
          <g id="Group_3599" data-name="Group 3599">
            <g id="Group_3598" data-name="Group 3598">
              <path id="Path_5918" data-name="Path 5918" d="M402.485,608.122a8.9,8.9,0,0,1,4.126,6.941c.024,2.574-1.784,3.628-4.039,2.366a8.894,8.894,0,0,1-4.125-6.944C398.425,607.92,400.228,606.855,402.485,608.122Z" transform="translate(-398.448 -607.588)" fill="#fff"/>
            </g>
          </g>
        </g>
        <g id="Group_3603" data-name="Group 3603" transform="translate(18.085 66.769)">
          <g id="Group_3602" data-name="Group 3602">
            <path id="Path_5919" data-name="Path 5919" d="M478.3,545.368a3.736,3.736,0,0,1,.389-.2c.025-.01.053-.019.077-.03.043-.018.086-.03.131-.047.068-.024.133-.052.2-.074s.15-.037.225-.057c.045-.008.091-.021.137-.033.024,0,.051-.013.075-.018.152-.027.311-.046.472-.058.009,0,.018,0,.028,0h.114c.123,0,.248-.01.375-.008.039,0,.084.009.128.012.075,0,.154.014.232.02s.146.01.221.019.129.029.194.04c.105.018.211.039.319.063.058.015.116.022.175.036.131.033.262.074.4.12a.279.279,0,0,1,.041.01c.16.051.32.109.484.176.062.025.129.057.192.085l.186.082c.237.11.476.227.718.361s.5.3.751.464c.08.053.157.112.238.169.166.117.331.236.5.36.09.073.177.146.269.221q.224.183.444.378c.089.079.181.16.266.241.055.052.112.1.166.152s.112.119.171.176c.177.177.351.359.525.547.055.059.112.112.167.175s.089.105.133.16q.159.18.309.366c.068.081.136.154.2.235s.1.141.156.209c.077.1.15.2.222.294.05.065.1.129.15.2.083.116.164.237.244.353.052.076.1.149.153.226.022.03.044.06.063.09q.212.324.412.655a.315.315,0,0,1,.026.047c.027.047.052.093.081.141.09.154.181.307.267.465.04.074.079.15.117.225s.083.156.123.236.071.133.1.2c.092.184.177.37.261.556.014.031.033.06.045.092a.094.094,0,0,0,.012.026c.1.231.2.465.3.7.017.044.031.089.049.131.033.084.064.171.1.257.044.114.089.23.129.344.031.093.057.183.087.278s.072.211.1.32c.021.066.045.131.062.2.037.118.06.238.094.354.033.134.07.267.1.4.01.045.023.092.036.136.02.1.031.191.051.286.043.208.083.415.115.622.009.057.024.114.031.172.02.129.029.259.043.387.009.093.022.186.031.275.025.291.041.577.044.862.022,2.461-.825,4.2-2.214,5.032l-4.882,2.917c1.389-.831,2.238-2.57,2.215-5.031,0-.283-.021-.571-.045-.86-.009-.091-.022-.185-.031-.276-.02-.186-.044-.372-.074-.56-.033-.207-.073-.413-.115-.62-.028-.141-.056-.284-.089-.424s-.068-.267-.1-.4c-.049-.186-.1-.368-.152-.553-.034-.107-.069-.214-.1-.322-.068-.207-.141-.414-.216-.62-.031-.085-.061-.171-.1-.257-.111-.286-.229-.571-.356-.852-.014-.03-.031-.06-.045-.093-.115-.253-.239-.506-.368-.756-.037-.077-.079-.154-.12-.23-.124-.234-.253-.465-.387-.7-.026-.044-.053-.093-.081-.138-.158-.269-.325-.532-.5-.794-.05-.075-.1-.146-.156-.222-.126-.185-.258-.371-.392-.553-.074-.1-.146-.2-.221-.292-.116-.152-.237-.3-.357-.444-.1-.124-.2-.247-.307-.367s-.2-.223-.3-.334c-.172-.186-.346-.369-.526-.544-.111-.11-.221-.222-.336-.326-.087-.083-.177-.164-.266-.244-.145-.129-.295-.255-.445-.378l-.269-.219c-.164-.126-.328-.244-.5-.362-.079-.056-.158-.115-.238-.169-.246-.162-.5-.32-.748-.462s-.483-.255-.721-.363c-.061-.029-.123-.056-.186-.081a7.216,7.216,0,0,0-.674-.261c-.015-.006-.028-.009-.043-.014-.193-.064-.382-.108-.569-.152-.108-.024-.215-.043-.321-.063-.139-.026-.276-.045-.414-.058-.078-.009-.157-.018-.234-.022-.171-.008-.337-.01-.5,0-.036,0-.076,0-.112,0a4.3,4.3,0,0,0-.575.079c-.047.01-.093.024-.137.033a4.208,4.208,0,0,0-.428.131,1.381,1.381,0,0,0-.131.048,3.72,3.72,0,0,0-.509.249l4.882-2.917A.381.381,0,0,1,478.3,545.368Z" transform="translate(-471.161 -544.842)" fill="#333"/>
            <g id="Group_3601" data-name="Group 3601" transform="translate(0 2.917)">
              <path id="Path_5920" data-name="Path 5920" d="M488.578,550.312c4.335,2.433,7.888,8.421,7.935,13.367s-3.431,6.989-7.767,4.557a17.128,17.128,0,0,1-7.936-13.367C480.764,549.919,484.24,547.877,488.578,550.312Z" transform="translate(-480.809 -549.285)" fill="#474c52"/>
            </g>
          </g>
        </g>
        <g id="Group_3606" data-name="Group 3606" transform="translate(21.862 74.486)">
          <g id="Group_3605" data-name="Group 3605">
            <g id="Group_3604" data-name="Group 3604">
              <path id="Path_5921" data-name="Path 5921" d="M490.589,557.13a8.9,8.9,0,0,1,4.121,6.941c.024,2.573-1.782,3.628-4.033,2.365a8.881,8.881,0,0,1-4.121-6.943C486.531,556.927,488.333,555.863,490.589,557.13Z" transform="translate(-486.556 -556.596)" fill="#fff"/>
            </g>
          </g>
        </g>
        <path id="Path_5922" data-name="Path 5922" d="M463.119,527.121l-.062,46.078-87.114-50.315V477.746Z" transform="translate(-360.477 -455.032)" fill="#054665"/>
        <path id="Path_5923" data-name="Path 5923" d="M404.738,492.526l-.022,45.67-87.157-49.907V443.151Z" transform="translate(-263.761 -443.151)" fill="#054665"/>
        <path id="Path_5924" data-name="Path 5924" d="M404.734,515.241l38.334-22.715L355.89,443.151l-38.331,22.714Z" transform="translate(-302.092 -443.151)" fill="#1d71b8"/>
        <path id="Path_5925" data-name="Path 5925" d="M317.525,587.04,355.9,563.916l-.022-45.566-38.334,22.715Z" transform="translate(-214.901 -468.976)" fill="#04354c"/>
        <g id="Group_3613" data-name="Group 3613" transform="translate(111.682 121.563)">
          <g id="Group_3609" data-name="Group 3609" transform="translate(0)">
            <g id="Group_3608" data-name="Group 3608">
              <path id="Path_5926" data-name="Path 5926" d="M335.738,628.822a3.483,3.483,0,0,1,.389-.2c.025-.012.053-.019.076-.028.043-.018.088-.034.131-.049.069-.024.134-.053.2-.072s.15-.038.225-.058l.138-.032c.026,0,.05-.015.074-.018a4.645,4.645,0,0,1,.472-.06h.03c.036,0,.077,0,.114,0,.123-.005.246-.013.374-.009.039,0,.085.012.127.013.076,0,.155.013.234.019s.144.009.221.021.128.029.194.039c.105.019.211.041.318.064.059.015.115.018.175.034.131.035.263.076.4.118.014,0,.028.009.042.012.158.052.321.11.483.177.063.024.129.058.192.085l.187.083c.236.107.477.224.718.362s.5.3.749.463c.08.052.16.112.238.167.167.118.332.236.5.363.089.07.178.143.269.217.15.125.3.25.444.38.091.079.18.159.267.242.054.053.112.1.166.15s.111.12.169.176c.179.178.353.36.526.547.054.059.112.112.166.174s.089.107.134.159c.105.122.208.244.309.369.066.079.135.154.2.234s.1.14.157.207c.076.1.149.2.222.295.05.064.1.128.149.2.083.116.163.237.244.353.051.075.1.148.154.223.02.031.041.06.062.091.141.215.278.434.412.653.008.018.018.032.025.049.029.046.054.093.081.138.09.155.182.31.268.466.04.076.079.151.118.227s.081.155.121.232.072.134.105.2c.093.186.178.37.263.556.013.031.031.062.043.094l.012.026c.1.23.2.462.3.7.016.044.031.087.047.131.035.085.066.171.1.259.042.114.087.23.128.343.032.093.057.185.087.274.034.109.07.215.1.322.02.067.044.132.063.2.034.118.059.238.092.356s.071.267.1.4c.011.045.025.091.035.136.02.1.032.192.053.285.042.211.083.416.115.623.009.057.024.114.031.172.019.13.028.257.043.389.01.092.023.183.03.273.026.291.043.578.047.864.022,2.458-.825,4.2-2.215,5.03l-4.882,2.919c1.389-.832,2.236-2.573,2.213-5.033,0-.283-.02-.571-.045-.861-.008-.092-.02-.185-.031-.275-.02-.187-.044-.374-.074-.561-.032-.206-.073-.414-.114-.62-.028-.142-.056-.284-.089-.425s-.069-.266-.1-.4c-.048-.185-.1-.368-.154-.552-.031-.107-.068-.214-.1-.323-.068-.206-.139-.412-.215-.618-.033-.085-.064-.172-.1-.258q-.166-.429-.355-.853c-.014-.031-.032-.06-.045-.093-.117-.253-.24-.507-.368-.755-.039-.077-.079-.156-.121-.232-.123-.234-.253-.465-.387-.693-.026-.045-.053-.093-.079-.139q-.24-.4-.5-.794c-.051-.075-.1-.149-.154-.224-.127-.185-.259-.37-.394-.552-.072-.1-.144-.2-.221-.293-.115-.149-.235-.3-.357-.445-.1-.12-.2-.245-.307-.364s-.2-.223-.3-.333c-.171-.189-.347-.371-.525-.546-.111-.111-.223-.222-.336-.326-.087-.083-.177-.164-.267-.245-.146-.129-.294-.255-.444-.379l-.269-.218c-.163-.127-.328-.247-.5-.36-.078-.058-.156-.116-.236-.17-.247-.163-.5-.32-.749-.463s-.482-.254-.721-.361c-.06-.03-.123-.057-.184-.082-.228-.1-.454-.19-.676-.262l-.043-.013c-.192-.062-.383-.107-.571-.152-.107-.025-.213-.045-.319-.064-.14-.024-.277-.045-.414-.057-.078-.009-.156-.018-.234-.022a4.723,4.723,0,0,0-.5,0c-.037,0-.077,0-.114,0a4.349,4.349,0,0,0-.575.079c-.047.01-.091.024-.136.035a4.325,4.325,0,0,0-.427.127c-.045.018-.089.031-.131.048a3.566,3.566,0,0,0-.51.251l4.883-2.92Z" transform="translate(-328.598 -628.296)" fill="#333"/>
              <g id="Group_3607" data-name="Group 3607" transform="translate(0 2.917)">
                <path id="Path_5927" data-name="Path 5927" d="M346.025,633.766a17.133,17.133,0,0,1,7.935,13.368c.047,4.951-3.431,6.989-7.767,4.558a17.137,17.137,0,0,1-7.94-13.371C338.208,633.375,341.686,631.331,346.025,633.766Z" transform="translate(-338.252 -632.739)" fill="#474c52"/>
              </g>
            </g>
          </g>
          <g id="Group_3612" data-name="Group 3612" transform="translate(3.779 7.718)">
            <g id="Group_3611" data-name="Group 3611">
              <g id="Group_3610" data-name="Group 3610">
                <path id="Path_5928" data-name="Path 5928" d="M348.032,640.585a8.9,8.9,0,0,1,4.121,6.943c.024,2.572-1.783,3.627-4.035,2.364A8.884,8.884,0,0,1,344,642.949C343.974,640.382,345.776,639.318,348.032,640.585Z" transform="translate(-343.997 -640.051)" fill="#fff"/>
              </g>
            </g>
          </g>
        </g>
        <path id="Path_5929" data-name="Path 5929" d="M308.491,532.527l26.582,14.751-38.334,22.714-28.03-15.556Z" transform="translate(-162.023 -473.845)" fill="#eae0d7"/>
        <path id="Path_5930" data-name="Path 5930" d="M252.992,647.671l38.337-22.715.143-14.078-38.48,22.885Z" transform="translate(-108.102 -500.751)" fill="#eae0d7"/>
        <path id="Path_5931" data-name="Path 5931" d="M263.165,614.571l38.48-22.885-4.327-6.787-5.993-29.9-38.334,22.714,5.827,29.905Z" transform="translate(-118.276 -481.56)" fill="#f1f2f2"/>
        <path id="Path_5932" data-name="Path 5932" d="M327.093,589.588" transform="translate(-192.377 -493.44)" fill="#1d71b8"/>
        <path id="Path_5933" data-name="Path 5933" d="M265.573,607.611,303.908,584.9l-5.828-29.906-38.5,22.715Z" transform="translate(-124.866 -481.559)" fill="#eae0d7"/>
        <path id="Path_5934" data-name="Path 5934" d="M303.19,583.085l-4.91-23.916-35.126,20.838,4.911,24.1Z" transform="translate(-126.493 -482.994)" fill="#36a9e1"/>
        <path id="Path_5935" data-name="Path 5935" d="M295.949,648.128l8.7-4.983v5.471l-8.7,4.984Z" transform="translate(-149.481 -511.832)" fill="#f9b233"/>
        <path id="Path_5936" data-name="Path 5936" d="M257.257,625.319l8.7-4.984v5.47l-8.7,4.984Z" transform="translate(-85.384 -503.999)" fill="#f9b233"/>
        <path id="Path_5937" data-name="Path 5937" d="M311.665,565.9l28.03,15.556,5.948,29.874,4.182,6.819v14.183l-38.16-21.255Z" transform="translate(-204.979 -485.304)" fill="#cbb19b"/>
        <path id="Path_5938" data-name="Path 5938" d="M340.094,587.707l-17.608-9.981,1.738,19.022,20.51,13.38Z" transform="translate(-206.992 -489.367)" fill="#36a9e1"/>
        <path id="Path_5939" data-name="Path 5939" d="M383.942,589.653a1.683,1.683,0,0,0,1.682,1.684h0a1.684,1.684,0,0,0,1.683-1.684V558.987a1.683,1.683,0,0,0-1.683-1.683h0a1.682,1.682,0,0,0-1.682,1.683Z" transform="translate(-289.917 -482.353)" fill="#fff" opacity="0.2"/>
        <path id="Path_5940" data-name="Path 5940" d="M399.887,582.342a1.684,1.684,0,0,0,1.686,1.683h0a1.684,1.684,0,0,0,1.683-1.683V551.676a1.684,1.684,0,0,0-1.683-1.684h0a1.685,1.685,0,0,0-1.686,1.684Z" transform="translate(-316.335 -479.842)" fill="#fff" opacity="0.2"/>
        <path id="Path_5941" data-name="Path 5941" d="M415.842,572.908a1.682,1.682,0,0,0,1.682,1.683h0a1.684,1.684,0,0,0,1.683-1.683V542.24a1.684,1.684,0,0,0-1.683-1.683h0a1.682,1.682,0,0,0-1.682,1.683Z" transform="translate(-342.761 -476.602)" fill="#fff" opacity="0.2"/>
        <path id="Path_5942" data-name="Path 5942" d="M431.787,563.481a1.682,1.682,0,0,0,1.681,1.684h0a1.684,1.684,0,0,0,1.683-1.684V532.814a1.682,1.682,0,0,0-1.683-1.682h0a1.681,1.681,0,0,0-1.681,1.682Z" transform="translate(-369.175 -473.365)" fill="#fff" opacity="0.2"/>
        <path id="Path_5943" data-name="Path 5943" d="M447.732,554.035a1.683,1.683,0,0,0,1.685,1.682h0a1.681,1.681,0,0,0,1.681-1.682V523.367a1.681,1.681,0,0,0-1.681-1.683h0a1.682,1.682,0,0,0-1.685,1.683Z" transform="translate(-395.591 -470.121)" fill="#fff" opacity="0.2"/>
        <path id="Path_5944" data-name="Path 5944" d="M463.678,544.306a1.684,1.684,0,0,0,1.682,1.683h0a1.683,1.683,0,0,0,1.683-1.683V513.638a1.684,1.684,0,0,0-1.683-1.683h0a1.684,1.684,0,0,0-1.682,1.683Z" transform="translate(-422.006 -466.78)" fill="#fff" opacity="0.2"/>
        <path id="Path_5945" data-name="Path 5945" d="M479.621,535.875a1.682,1.682,0,0,0,1.683,1.683h0a1.684,1.684,0,0,0,1.683-1.683V505.209a1.685,1.685,0,0,0-1.683-1.685h0a1.683,1.683,0,0,0-1.683,1.685Z" transform="translate(-448.418 -463.884)" fill="#fff" opacity="0.2"/>
        <path id="Path_5946" data-name="Path 5946" d="M495.568,527.176a1.684,1.684,0,0,0,1.685,1.683h0a1.683,1.683,0,0,0,1.682-1.683V496.508a1.682,1.682,0,0,0-1.682-1.682h0a1.683,1.683,0,0,0-1.685,1.682Z" transform="translate(-474.835 -460.897)" fill="#fff" opacity="0.2"/>
      </g>
    </g>
    <g id="Group_3806" data-name="Group 3806" transform="translate(-13960.487 -15206.129)">
      <path id="Union_11" data-name="Union 11" d="M0,0V57.846c0,31.947,53.618,57.846,119.759,57.846s119.759-25.9,119.759-57.846C239.519,25.97,186.147.117,120.212,0H0Z" transform="translate(239.519 134.001) rotate(180)" fill="#d0c2e9"/>
      <path id="Union_10" data-name="Union 10" d="M0,0V42.021C0,65.229,38.95,84.043,87,84.043s87-18.814,87-42.021C173.995,18.866,135.224.085,87.326,0H0Z" transform="translate(219.164 118.11) rotate(180)" fill="#673ab7"/>
      <g id="Group_3538" data-name="Group 3538" transform="translate(26.201 0)">
        <path id="Path_5824" data-name="Path 5824" d="M49.794,304.713l107.587,63.144L197.5,344.077,90.053,282.209Z" transform="translate(-49.794 -261.137)" fill="#1d1d1b" opacity="0.1"/>
        <g id="Group_3537" data-name="Group 3537" transform="translate(10.157 0)">
          <path id="Path_5825" data-name="Path 5825" d="M178.265,270.373v17.4l-36.2-20.82V250.116Z" transform="translate(-101.297 -250.116)" fill="#e64d3f"/>
          <path id="Path_5826" data-name="Path 5826" d="M197.2,286.706l40.768-16.84v-19.75L197.2,269.8Z" transform="translate(-197.199 -250.116)" fill="#ad3a2f"/>
          <g id="Group_3529" data-name="Group 3529" transform="translate(67.682 71.012)">
            <g id="Group_3525" data-name="Group 3525">
              <g id="Group_3524" data-name="Group 3524">
                <path id="Path_5827" data-name="Path 5827" d="M129.009,358.811a3.869,3.869,0,0,1,.4-.2c.025-.011.053-.019.078-.03.045-.016.09-.032.135-.049.07-.025.138-.054.209-.076s.154-.038.23-.057l.142-.034c.026-.005.052-.014.076-.019a4.435,4.435,0,0,1,.486-.06c.009,0,.02,0,.03,0,.039,0,.079,0,.117,0,.127,0,.253-.011.384-.009.041,0,.088.011.131.014.079,0,.16.012.24.02s.149.009.227.021.133.03.2.039c.108.019.217.041.328.066.059.014.118.02.178.036.135.035.272.077.409.121a.4.4,0,0,0,.044.012c.162.056.329.115.5.182.065.026.133.06.2.088s.128.055.192.085c.244.111.49.232.739.374s.517.3.773.475c.082.053.162.114.244.173.172.12.342.243.508.373.1.073.185.148.278.225.155.126.307.255.458.39.093.081.184.164.274.248.056.053.113.1.169.154s.116.123.174.183c.185.181.364.368.541.561.056.062.116.116.172.18s.091.11.138.163c.108.125.213.25.318.378.068.083.137.16.2.243s.107.143.162.213c.077.1.152.2.228.3.051.066.1.133.153.2.086.12.168.244.251.365.053.076.106.151.158.23l.065.093c.145.221.286.447.423.674.009.016.018.031.026.047.028.049.054.1.083.145.093.16.186.318.276.479.042.077.081.154.121.232s.084.159.124.24.074.139.108.206c.1.191.183.379.27.573.015.031.033.062.046.1a.192.192,0,0,0,.012.026c.106.238.208.476.3.717.018.043.033.089.051.134.034.088.067.175.1.265.044.119.091.237.133.355.032.1.058.188.09.283.035.11.072.22.105.33.021.068.045.136.064.2.036.124.062.245.095.366s.073.273.106.411c.012.048.026.1.037.141.022.1.033.2.055.295.043.215.085.427.118.639.009.058.024.117.032.177.018.133.03.265.045.4.01.1.022.189.03.282.026.3.045.595.048.888.023,2.531-.848,4.323-2.279,5.178l-5.024,3c1.429-.856,2.3-2.647,2.276-5.178,0-.292-.019-.588-.045-.887-.009-.094-.022-.19-.032-.284-.022-.19-.045-.381-.076-.574-.033-.213-.075-.426-.12-.639-.028-.146-.056-.29-.089-.437s-.07-.275-.107-.412c-.049-.191-.1-.378-.158-.567-.034-.112-.07-.222-.106-.334-.07-.212-.144-.425-.223-.636-.033-.088-.064-.178-.1-.265-.116-.294-.236-.588-.366-.877-.015-.032-.032-.063-.046-.1-.12-.261-.246-.521-.378-.778-.04-.079-.083-.159-.125-.238-.127-.242-.259-.478-.4-.713-.028-.047-.054-.1-.082-.144-.164-.275-.337-.546-.514-.815-.053-.077-.106-.152-.158-.23-.133-.19-.268-.38-.406-.567-.074-.1-.15-.2-.227-.3q-.181-.231-.367-.457c-.105-.126-.209-.253-.317-.376s-.207-.23-.311-.343c-.177-.192-.357-.38-.54-.561-.114-.113-.228-.228-.345-.336-.09-.085-.183-.167-.274-.249q-.226-.2-.458-.391-.137-.114-.276-.224c-.167-.131-.338-.253-.509-.373-.081-.058-.161-.118-.244-.175-.255-.167-.512-.329-.771-.474s-.5-.263-.743-.374c-.062-.03-.125-.058-.188-.084-.235-.1-.468-.2-.7-.269-.014-.005-.03-.009-.044-.013-.2-.064-.395-.111-.588-.157-.11-.026-.219-.045-.328-.065-.142-.026-.286-.046-.426-.06-.081-.008-.161-.018-.24-.022-.176-.009-.349-.012-.516,0-.039,0-.079,0-.118,0a4.548,4.548,0,0,0-.592.081c-.047.011-.094.025-.141.037a3.964,3.964,0,0,0-.44.132c-.045.018-.092.032-.136.049a3.742,3.742,0,0,0-.522.258l5.024-3C128.981,358.827,128.994,358.819,129.009,358.811Z" transform="translate(-121.662 -358.269)" fill="#333"/>
                <g id="Group_3523" data-name="Group 3523" transform="translate(0 3.002)">
                  <path id="Path_5828" data-name="Path 5828" d="M139.593,363.9c4.46,2.5,8.116,8.664,8.163,13.755s-3.53,7.192-7.991,4.689-8.121-8.662-8.169-13.757S135.126,361.394,139.593,363.9Z" transform="translate(-131.596 -362.842)" fill="#474c52"/>
                </g>
              </g>
            </g>
            <g id="Group_3528" data-name="Group 3528" transform="translate(3.887 7.942)">
              <g id="Group_3527" data-name="Group 3527">
                <g id="Group_3526" data-name="Group 3526">
                  <path id="Path_5829" data-name="Path 5829" d="M141.657,370.916a9.154,9.154,0,0,1,4.242,7.142c.025,2.649-1.835,3.733-4.15,2.434a9.144,9.144,0,0,1-4.242-7.144C137.482,370.707,139.336,369.611,141.657,370.916Z" transform="translate(-137.506 -370.366)" fill="#fff"/>
                </g>
              </g>
            </g>
          </g>
          <g id="Group_3536" data-name="Group 3536" transform="translate(6.258 37.537)">
            <g id="Group_3532" data-name="Group 3532">
              <g id="Group_3531" data-name="Group 3531">
                <path id="Path_5830" data-name="Path 5830" d="M222.559,307.826a3.661,3.661,0,0,1,.4-.2c.026-.011.054-.02.079-.03l.135-.049c.07-.024.137-.054.209-.076s.152-.039.23-.057c.047-.011.1-.024.142-.034.027-.005.051-.013.077-.02a4.769,4.769,0,0,1,.484-.06c.01,0,.021,0,.031,0,.039,0,.079,0,.117,0,.127-.005.254-.012.385-.008.041,0,.087.01.131.012.079.005.16.013.24.02s.149.009.227.022.134.029.2.04c.109.018.218.041.328.065.061.014.118.02.179.037.135.034.271.076.408.121l.045.012c.162.055.329.114.5.182.065.025.133.059.2.087s.128.056.191.086c.245.11.491.231.74.372s.517.3.771.476c.083.053.164.116.245.174.171.119.341.241.509.371.093.074.185.149.277.226.155.126.307.255.458.39.091.081.184.165.274.249.055.053.114.1.17.154s.114.123.173.182c.185.182.364.368.542.561.056.061.116.116.171.18s.091.11.139.164c.108.125.212.25.318.378.068.082.138.16.2.243s.108.143.162.214c.077.1.152.2.229.3.051.068.1.133.153.2.087.119.169.243.251.364.053.077.106.151.158.23.02.031.044.062.064.093q.219.333.424.674c.01.016.019.031.028.048l.082.144c.093.16.187.319.276.481.042.076.081.154.121.231s.084.16.124.24.075.137.108.206c.095.19.183.38.269.571.014.032.032.064.046.1l.013.028q.16.355.3.716c.017.044.032.089.05.135.034.088.066.175.1.265.043.118.091.237.133.355.032.095.058.188.089.282.035.111.072.219.106.33.02.068.045.135.064.2.035.122.061.244.094.366.036.137.074.274.106.412.01.048.026.095.037.14.021.1.033.2.054.295.043.215.085.427.118.64.009.058.025.118.032.177.019.133.03.265.044.4.01.095.023.189.032.282.026.3.043.595.047.888.023,2.531-.848,4.322-2.278,5.178l-5.024,3c1.43-.854,2.3-2.645,2.278-5.177,0-.292-.02-.588-.047-.886-.008-.1-.021-.19-.032-.284-.02-.191-.046-.383-.076-.576-.033-.212-.074-.425-.119-.639-.028-.144-.056-.291-.09-.436s-.071-.274-.107-.411c-.05-.19-.1-.379-.159-.569-.033-.11-.07-.221-.105-.331-.07-.213-.144-.425-.223-.638-.032-.087-.065-.177-.1-.265-.115-.293-.236-.587-.366-.877-.014-.031-.031-.062-.045-.1-.12-.261-.247-.521-.378-.778-.04-.079-.082-.159-.124-.238-.128-.242-.261-.479-.4-.713-.028-.048-.054-.1-.083-.144-.165-.275-.337-.548-.514-.815-.052-.077-.106-.153-.158-.23-.132-.19-.268-.381-.405-.568-.076-.1-.15-.2-.227-.3q-.18-.231-.368-.458c-.1-.126-.208-.253-.315-.376s-.207-.229-.313-.343q-.265-.29-.539-.561c-.116-.114-.23-.229-.346-.336-.089-.085-.182-.167-.274-.25-.151-.134-.3-.263-.458-.39-.091-.075-.183-.15-.277-.225-.167-.131-.337-.253-.508-.372-.081-.059-.161-.12-.244-.174-.255-.169-.511-.33-.771-.476s-.5-.262-.741-.373c-.063-.029-.127-.058-.19-.084-.234-.1-.467-.2-.7-.269l-.045-.013c-.2-.064-.393-.111-.586-.156-.11-.025-.219-.046-.329-.065-.143-.027-.286-.047-.425-.06-.081-.009-.161-.018-.241-.022a5.025,5.025,0,0,0-.515,0c-.039,0-.079,0-.118,0a4.522,4.522,0,0,0-.592.081c-.047.01-.094.024-.14.035a4.02,4.02,0,0,0-.441.133c-.045.016-.091.032-.135.051a3.655,3.655,0,0,0-.524.256l5.025-3Z" transform="translate(-215.211 -307.286)" fill="#333"/>
                <g id="Group_3530" data-name="Group 3530" transform="translate(0 3.002)">
                  <path id="Path_5831" data-name="Path 5831" d="M233.14,312.914c4.461,2.5,8.116,8.665,8.165,13.755s-3.53,7.192-7.991,4.689-8.121-8.663-8.17-13.758S228.674,310.409,233.14,312.914Z" transform="translate(-225.143 -311.857)" fill="#474c52"/>
                </g>
              </g>
            </g>
            <g id="Group_3535" data-name="Group 3535" transform="translate(3.889 7.942)">
              <g id="Group_3534" data-name="Group 3534">
                <g id="Group_3533" data-name="Group 3533">
                  <path id="Path_5832" data-name="Path 5832" d="M235.206,319.931a9.151,9.151,0,0,1,4.241,7.142c.026,2.648-1.834,3.733-4.15,2.434a9.14,9.14,0,0,1-4.241-7.144C231.031,319.722,232.886,318.628,235.206,319.931Z" transform="translate(-231.056 -319.382)" fill="#fff"/>
                </g>
              </g>
            </g>
          </g>
          <path id="Path_5833" data-name="Path 5833" d="M181.132,318.39l37.174-21.152-37.59-21.7-40.768,19.9Z" transform="translate(-139.948 -258.845)" fill="#732720"/>
          <path id="Path_5834" data-name="Path 5834" d="M146.012,302.9V286.809l22.305,12.029,12.466,24.855,25.674,19.692v11.749l-101.012-58.1V280.2Z" transform="translate(-105.445 -260.445)" fill="#e64d3f"/>
          <path id="Path_5835" data-name="Path 5835" d="M127.673,291.334l38.281-19.885L144.76,258.344l-39.528,20.941Z" transform="translate(-64.801 -252.941)" fill="#f0948c"/>
          <path id="Path_5836" data-name="Path 5836" d="M85,353.446,45.905,376.254V364.505L85,341.7Z" transform="translate(55.107 -281.565)" fill="#ad3a2f"/>
          <path id="Path_5837" data-name="Path 5837" d="M110.672,331.806l-39.093,22.81L45.905,334.924,84.731,312.9Z" transform="translate(29.433 -271.676)" fill="#f0948c"/>
          <path id="Path_5838" data-name="Path 5838" d="M98.055,323.15l38.7-21.917-12.968-22.871L85.568,298.209Z" transform="translate(-22.697 -259.816)" fill="#e64d3f"/>
          <path id="Path_5839" data-name="Path 5839" d="M135.648,302.375,124.41,282.554,89.227,300.6l10.893,21.842Z" transform="translate(-23.988 -261.256)" fill="#86cbed"/>
          <path id="Path_5840" data-name="Path 5840" d="M59.415,371.506l20.293-11.627V356.86L59.415,368.487Z" transform="translate(51.527 -286.773)" fill="#571d18"/>
          <path id="Path_5841" data-name="Path 5841" d="M47.06,352.288l8.948-5.127v5.628l-8.948,5.128Z" transform="translate(83.338 -283.442)" fill="#f9b233"/>
          <path id="Path_5842" data-name="Path 5842" d="M87.573,376.711l8.949-5.128v5.629l-8.949,5.127Z" transform="translate(16.224 -291.829)" fill="#f9b233"/>
          <path id="Path_5843" data-name="Path 5843" d="M169.551,307.507l-20.42-11.012v12.863l30.5,18.24Z" transform="translate(-107.3 -266.043)" fill="#86cbed"/>
          <path id="Path_5844" data-name="Path 5844" d="M186.342,322.358l5.843,3.578v-1.215l-5.843-3.578Z" transform="translate(-144.288 -274.507)" fill="#fff"/>
        </g>
      </g>
    </g>
    <line id="Line_2442" data-name="Line 2442" x2="181" y2="105" transform="translate(-14262.5 -14866.5)" fill="none" stroke="#fff" stroke-width="1" stroke-dasharray="15 15"/>
    <line id="Line_2441" data-name="Line 2441" x2="256" y2="148" transform="translate(-13644.5 -15149.5)" fill="none" stroke="#fff" stroke-width="1" stroke-dasharray="15 15"/>
    <line id="Line_2443" data-name="Line 2443" x2="313" y2="181" transform="translate(-13511.5 -15327.5)" fill="none" stroke="#fff" stroke-width="1" stroke-dasharray="15 15"/>
    <line id="Line_2444" data-name="Line 2444" x2="313" y2="181" transform="translate(-12890.5 -15398.5)" fill="none" stroke="#fff" stroke-width="1" stroke-dasharray="15 15"/>
    <g id="Group_3813" data-name="Group 3813" transform="translate(-13089.126 -15323.652)">
      <line id="Line_2417-2" data-name="Line 2417" x1="271" y2="157" transform="translate(0 12.152)" fill="none" stroke="#2ecc71" stroke-width="25"/>
      <path id="Path_6338" data-name="Path 6338" d="M0,0,84.312,48.82" transform="translate(338.999 6.152)" fill="none" stroke="#2ecc71" stroke-width="25"/>
      <path id="Path_6301-2" data-name="Path 6301" d="M-17811.816-24254.447l4.387-2.494s37.939-22.246,68.658-2.617" transform="translate(18081.088 24267.652)" fill="none" stroke="#2ecc71" stroke-width="25"/>
    </g>
    <g id="Group_3814" data-name="Group 3814" transform="translate(-12877.191 -15439.783)">
      <path id="Union_8" data-name="Union 8" d="M0,115.692V57.846C0,25.9,53.618,0,119.759,0S239.519,25.9,239.519,57.846c0,31.876-53.371,57.729-119.307,57.845H0Z" transform="translate(0 44.09)" fill="#bfefd3"/>
      <path id="Union_9" data-name="Union 9" d="M0,84.042V42.021C0,18.814,38.95,0,87,0s87,18.814,87,42.021c0,23.156-38.771,41.936-86.669,42.021H0Z" transform="translate(20.354 59.848)" fill="#2ecc71"/>
      <g id="Group_3577" data-name="Group 3577" transform="translate(57.794 0)">
        <path id="Path_5868" data-name="Path 5868" d="M430.57,302.327,314.7,366.865l-43.208-24.3,115.723-63.236Z" transform="translate(-271.491 -230.426)" fill="#1d1d1b" opacity="0.1"/>
        <g id="Group_3576" data-name="Group 3576" transform="translate(0.155)">
          <path id="Path_5869" data-name="Path 5869" d="M282.444,255.655l-5.673,31.634-4.751,6.568V308L372.15,251.3V204.85Z" transform="translate(-271.828 -204.85)" fill="#054665"/>
          <g id="Group_3568" data-name="Group 3568" transform="translate(53.382 100.329)">
            <g id="Group_3564" data-name="Group 3564" transform="translate(0)">
              <g id="Group_3563" data-name="Group 3563">
                <path id="Path_5870" data-name="Path 5870" d="M366.87,358.2a3.922,3.922,0,0,0-.4-.2c-.026-.012-.054-.019-.079-.03-.044-.018-.091-.033-.135-.049-.07-.025-.137-.055-.209-.076s-.153-.039-.23-.057c-.047-.012-.1-.024-.142-.035-.026,0-.051-.013-.077-.019a4.374,4.374,0,0,0-.485-.06c-.009,0-.02,0-.031,0-.039,0-.079,0-.117,0-.127,0-.253-.013-.384-.009-.042,0-.087.011-.131.013-.079,0-.16.013-.24.02s-.149.009-.227.021-.132.03-.2.039c-.108.02-.217.041-.329.066-.06.014-.117.02-.178.037-.134.034-.27.076-.408.121l-.045.011c-.162.055-.33.114-.5.181-.064.026-.133.06-.2.088s-.127.055-.191.085c-.244.111-.491.232-.739.373s-.517.3-.771.476c-.084.055-.165.116-.247.173-.171.121-.339.242-.508.373-.093.074-.183.148-.276.225q-.232.189-.459.389c-.091.083-.184.165-.274.249-.054.053-.114.1-.169.154s-.116.122-.174.183c-.185.181-.364.367-.542.56-.056.061-.116.117-.171.18s-.092.11-.137.163c-.108.125-.215.251-.319.379-.068.081-.138.16-.2.242s-.108.144-.161.214c-.078.1-.153.2-.229.3-.051.068-.1.133-.154.2-.085.119-.168.243-.251.364-.052.077-.106.152-.158.23-.02.032-.045.062-.064.093-.144.221-.287.446-.422.674a.429.429,0,0,0-.028.048c-.028.048-.054.1-.083.143-.092.161-.187.319-.276.481-.042.077-.079.155-.122.232s-.083.159-.123.24-.074.138-.108.2c-.095.19-.183.381-.27.573-.014.032-.033.062-.046.1,0,.009-.009.018-.011.027-.108.237-.208.476-.3.716-.017.044-.032.089-.049.134-.035.088-.066.175-.1.265-.045.118-.091.236-.133.355-.032.095-.059.188-.089.282-.036.111-.072.22-.106.331-.02.068-.045.135-.064.2-.036.123-.062.245-.095.366-.036.137-.074.274-.107.412-.011.047-.026.095-.036.14-.021.1-.033.2-.054.295-.043.215-.085.427-.117.64-.01.059-.026.118-.033.177-.019.133-.03.266-.045.4-.01.095-.023.189-.032.282-.026.3-.043.595-.047.887-.022,2.532.85,4.322,2.279,5.178l5.024,3c-1.43-.856-2.3-2.645-2.278-5.178,0-.292.02-.588.047-.884.007-.1.02-.192.031-.286.02-.191.045-.383.076-.576.032-.211.074-.425.117-.638.029-.145.057-.291.091-.436s.072-.274.108-.413c.049-.188.1-.377.158-.567.033-.111.07-.221.105-.331.07-.212.144-.426.224-.638.032-.088.062-.177.1-.265.116-.293.234-.586.365-.877.014-.032.031-.062.046-.1.12-.262.246-.521.378-.778.039-.08.082-.16.125-.238.127-.241.259-.478.4-.713.028-.047.054-.1.084-.143.164-.277.336-.548.513-.817.052-.076.106-.151.158-.23.133-.19.267-.381.406-.567.075-.1.15-.2.227-.3.119-.154.243-.307.367-.457.106-.126.209-.253.316-.376s.207-.229.311-.343c.178-.192.358-.381.542-.562.113-.112.227-.227.343-.336.09-.086.184-.169.274-.25.15-.133.3-.263.458-.39q.138-.113.277-.225c.167-.131.337-.253.509-.372.081-.058.161-.12.244-.175.254-.167.512-.329.77-.475s.5-.262.743-.373c.063-.03.127-.059.189-.085a7.359,7.359,0,0,1,.7-.268.309.309,0,0,1,.044-.014c.2-.065.395-.111.587-.156.11-.026.22-.046.329-.066.143-.026.286-.045.425-.06.081-.008.162-.018.241-.022a5.038,5.038,0,0,1,.517,0h.118a4.57,4.57,0,0,1,.59.081c.049.009.1.024.141.035a3.878,3.878,0,0,1,.44.134c.045.016.091.031.136.049a3.742,3.742,0,0,1,.523.256l-5.023-3Z" transform="translate(-353.03 -357.655)" fill="#333"/>
                <g id="Group_3562" data-name="Group 3562" transform="translate(5.025 3.002)">
                  <path id="Path_5871" data-name="Path 5871" d="M368.848,363.285c-4.46,2.5-8.115,8.664-8.163,13.755s3.53,7.191,7.991,4.689,8.122-8.662,8.17-13.758S373.315,360.779,368.848,363.285Z" transform="translate(-360.684 -362.228)" fill="#474c52"/>
                </g>
              </g>
            </g>
            <g id="Group_3567" data-name="Group 3567" transform="translate(8.907 7.942)">
              <g id="Group_3566" data-name="Group 3566">
                <g id="Group_3565" data-name="Group 3565">
                  <path id="Path_5872" data-name="Path 5872" d="M370.837,370.3a9.158,9.158,0,0,0-4.242,7.143c-.026,2.647,1.834,3.733,4.15,2.433a9.137,9.137,0,0,0,4.242-7.144C375.012,370.092,373.158,369,370.837,370.3Z" transform="translate(-366.596 -369.752)" fill="#fff"/>
                </g>
              </g>
            </g>
          </g>
          <g id="Group_3575" data-name="Group 3575" transform="translate(109.295 69.678)">
            <g id="Group_3571" data-name="Group 3571" transform="translate(0)">
              <g id="Group_3570" data-name="Group 3570">
                <path id="Path_5873" data-name="Path 5873" d="M452.026,311.514a4.066,4.066,0,0,0-.4-.2c-.028-.011-.055-.019-.079-.03l-.136-.049c-.07-.024-.137-.054-.208-.076s-.154-.039-.23-.058c-.047-.01-.1-.024-.142-.033-.027-.006-.052-.014-.078-.02a4.391,4.391,0,0,0-.484-.06c-.01,0-.021,0-.032,0-.037,0-.078,0-.116,0-.126-.005-.252-.012-.384-.009-.041,0-.087.01-.132.012-.077,0-.158.012-.239.02s-.15.01-.229.02c-.063.01-.131.03-.2.041-.11.018-.218.04-.33.065-.06.015-.117.02-.177.036-.137.034-.272.077-.41.121l-.043.012c-.164.054-.329.114-.5.181-.064.026-.132.06-.2.089s-.127.055-.193.085c-.242.112-.489.232-.737.373s-.518.3-.773.477c-.081.053-.162.115-.245.173-.172.119-.34.242-.508.372-.093.072-.185.148-.276.225-.156.126-.308.256-.459.39-.092.081-.185.164-.273.249-.055.054-.116.1-.171.155s-.116.123-.175.181q-.275.273-.54.561c-.056.062-.116.117-.173.18s-.091.11-.136.163c-.109.125-.214.251-.32.378-.067.083-.138.16-.2.244-.056.068-.108.142-.16.213-.078.1-.155.2-.23.3-.05.067-.1.132-.152.2-.086.12-.167.244-.251.364-.052.077-.106.152-.159.231-.019.03-.042.062-.064.093q-.218.333-.422.674c-.009.016-.019.032-.027.048-.029.049-.053.1-.083.144-.093.16-.186.318-.276.48l-.122.232c-.041.081-.083.159-.123.24s-.074.137-.109.2c-.094.19-.182.38-.269.572-.014.032-.034.063-.047.1,0,.009-.008.018-.011.027-.108.238-.208.476-.3.716-.018.044-.032.089-.05.134-.034.088-.065.175-.1.265-.045.118-.091.237-.133.356-.033.093-.06.187-.091.282-.035.112-.072.22-.106.331-.019.068-.045.135-.064.2-.036.121-.061.243-.1.364-.035.137-.072.275-.106.412-.011.047-.026.1-.037.141-.02.1-.033.2-.054.295-.041.214-.084.427-.117.64-.009.058-.024.117-.033.177-.017.134-.028.265-.043.4-.01.094-.022.189-.031.281-.026.3-.044.595-.047.888-.022,2.53.849,4.322,2.28,5.178l5.023,3c-1.429-.856-2.3-2.646-2.277-5.177,0-.292.018-.588.046-.886.008-.095.02-.19.032-.284q.03-.286.075-.576c.033-.211.075-.425.119-.639.028-.144.057-.29.089-.435s.072-.274.11-.412c.047-.19.1-.378.158-.568.032-.111.068-.221.1-.332.07-.212.143-.426.222-.638.033-.087.064-.177.1-.265.117-.293.237-.587.365-.877a.919.919,0,0,0,.047-.1c.121-.261.247-.521.378-.777.04-.08.083-.16.125-.238.127-.242.259-.479.4-.714.028-.048.055-.1.083-.144q.246-.414.514-.815c.052-.077.106-.152.158-.23.132-.19.268-.381.406-.567.075-.1.15-.2.226-.3.12-.155.244-.307.369-.458.1-.126.208-.252.315-.376s.208-.229.313-.343q.265-.29.539-.561c.114-.113.227-.229.346-.336.09-.085.182-.169.274-.251.148-.133.3-.263.457-.389.092-.077.184-.151.275-.225.169-.131.339-.253.51-.372.081-.058.162-.12.246-.175.253-.167.51-.329.769-.475s.5-.262.744-.373c.062-.029.126-.058.188-.083.235-.1.468-.2.7-.269.014-.006.03-.009.044-.014.2-.064.395-.111.587-.156.112-.025.219-.045.329-.065.142-.027.286-.046.426-.059.081-.01.16-.018.24-.023.176-.009.348-.012.517,0,.037,0,.078,0,.117,0a4.271,4.271,0,0,1,.592.082c.047.009.093.024.141.034a4.124,4.124,0,0,1,.438.133c.046.017.092.031.135.05a3.721,3.721,0,0,1,.524.255l-5.025-3C452.055,311.53,452.042,311.521,452.026,311.514Z" transform="translate(-438.187 -310.972)" fill="#333"/>
                <g id="Group_3569" data-name="Group 3569" transform="translate(5.025 3.002)">
                  <path id="Path_5874" data-name="Path 5874" d="M454,316.6c-4.461,2.5-8.115,8.665-8.163,13.756s3.531,7.192,7.991,4.689,8.119-8.662,8.169-13.758S458.472,314.1,454,316.6Z" transform="translate(-445.841 -315.544)" fill="#474c52"/>
                </g>
              </g>
            </g>
            <g id="Group_3574" data-name="Group 3574" transform="translate(8.905 7.942)">
              <g id="Group_3573" data-name="Group 3573">
                <g id="Group_3572" data-name="Group 3572">
                  <path id="Path_5875" data-name="Path 5875" d="M455.992,323.618a9.163,9.163,0,0,0-4.242,7.142c-.024,2.648,1.834,3.733,4.152,2.433a9.135,9.135,0,0,0,4.242-7.144C460.168,323.408,458.313,322.314,455.992,323.618Z" transform="translate(-451.751 -323.068)" fill="#fff"/>
                </g>
              </g>
            </g>
          </g>
          <path id="Path_5876" data-name="Path 5876" d="M326.954,279.028l-39.446-23.373,89.706-50.805,39.445,23.374Z" transform="translate(-277.147 -204.85)" fill="#1d71b8"/>
          <path id="Path_5877" data-name="Path 5877" d="M271.727,340.64V354.6L311.065,377.9V363.592Z" transform="translate(-271.727 -251.482)" fill="#16558a"/>
          <path id="Path_5878" data-name="Path 5878" d="M282.089,282.229l-5.719,31.666-4.643,6.686,39.338,22.953,4.473-7.159,6-30.772Z" transform="translate(-271.727 -231.423)" fill="#9bb5c1"/>
          <path id="Path_5879" data-name="Path 5879" d="M347.586,317.827" transform="translate(-297.778 -243.648)" fill="#1d71b8"/>
          <path id="Path_5880" data-name="Path 5880" d="M317.8,336.373l-39-22.479,5.719-31.666L323.963,305.6Z" transform="translate(-274.156 -231.423)" fill="#1d71b8"/>
          <path id="Path_5881" data-name="Path 5881" d="M282.223,314.329l4.962-26.187,35.325,20.1-4.995,26.277Z" transform="translate(-275.332 -233.454)" fill="#36a9e1"/>
          <path id="Path_5882" data-name="Path 5882" d="M284.355,353.888l-8.949-5.127v5.629l8.949,5.127Z" transform="translate(-272.991 -254.271)" fill="#f9b233"/>
          <path id="Path_5883" data-name="Path 5883" d="M324.486,378.063l-8.947-5.127v5.628l8.947,5.128Z" transform="translate(-286.773 -262.574)" fill="#f9b233"/>
          <path id="Path_5884" data-name="Path 5884" d="M342.11,291.254l-6.122,30.739-4.347,7.192V343.5l100.175-56.6V240.449Z" transform="translate(-292.303 -217.075)" fill="#0f395c"/>
          <path id="Path_5885" data-name="Path 5885" d="M331.641,359.544v5.3l100.175-56.6v-5.626Z" transform="translate(-292.303 -238.425)" fill="#fff"/>
          <path id="Path_5886" data-name="Path 5886" d="M347.625,312.77l27.5-14.93v19.948l-32.285,18.948Z" transform="translate(-296.15 -236.784)" fill="#36a9e1"/>
          <path id="Path_5887" data-name="Path 5887" d="M388.516,332.531l-6.689,4.025v-1.333l6.689-4.025Z" transform="translate(-309.537 -248.24)" fill="#36a9e1"/>
          <line id="Line_2413" data-name="Line 2413" y2="34.497" transform="translate(81.28 59.993)" fill="none" stroke="#fff" stroke-linecap="round" stroke-linejoin="round" stroke-width="1"/>
          <line id="Line_2414" data-name="Line 2414" y2="34.498" transform="translate(82.545 58.727)" fill="none" stroke="#fff" stroke-linecap="round" stroke-linejoin="round" stroke-width="1"/>
        </g>
      </g>
    </g>
    <g id="Group_3810" data-name="Group 3810" transform="translate(-13234.717 -15261.771)">
      <path id="Union_6" data-name="Union 6" d="M0,115.692V57.846C0,25.9,53.618,0,119.759,0S239.519,25.9,239.519,57.846c0,31.876-53.371,57.729-119.307,57.846H0Z" transform="translate(0 68.771)" fill="#fbc5c1"/>
      <path id="Union_7" data-name="Union 7" d="M0,84.043V42.021C0,18.814,38.95,0,87,0s87,18.814,87,42.021c0,23.156-38.771,41.936-86.669,42.021H0Z" transform="translate(20.354 84.529)" fill="#f44336"/>
      <g id="Group_3732" data-name="Group 3732" transform="translate(57.96 0)">
        <path id="Path_6287" data-name="Path 6287" d="M211.475,606.263,106.061,663.872,64.12,640.948l105.273-56.38Z" transform="translate(-58.969 -505.692)" fill="#1d1d1b" opacity="0.1"/>
        <g id="Group_3671" data-name="Group 3671" transform="translate(0 0)">
          <g id="Group_3649" data-name="Group 3649" transform="translate(1.682 79.956)">
            <path id="Path_6067" data-name="Path 6067" d="M262.954,322.787l1.1-.636.155-.066.165-.039.175-.012.185.016.192.044.2.074.2.1,2.46,1.42.2.133.2.156a4.714,4.714,0,0,1,.873,1.062l.143.257.13.265.116.273.1.279.085.283.068.285.049.286.031.282.01.279v6.633l-.01.267-.031.247-.049.228-.068.207-.085.185-.1.163-.116.14-.13.115-.143.091-1.1.636.143-.091-5-13.633Z" transform="translate(-262.221 -322.035)" fill="#fff" fill-rule="evenodd"/>
            <path id="Path_6068" data-name="Path 6068" d="M263.847,323.243l2.46,1.421a4.829,4.829,0,0,1,2.009,3.84v6.633c0,1.473-.9,2.157-2.009,1.519l-2.46-1.421a4.831,4.831,0,0,1-2.01-3.84v-6.633C261.837,323.289,262.742,322.606,263.847,323.243Z" transform="translate(-261.837 -322.368)" fill="#e8e5e0" fill-rule="evenodd"/>
          </g>
          <g id="Group_3650" data-name="Group 3650" transform="translate(113.459 60.638)">
            <path id="Path_6069" data-name="Path 6069" d="M432.078,294.3l41.569,24v4.125l-41.569-24Z" transform="translate(-432.078 -293.192)" fill="#2e3235" fill-rule="evenodd"/>
            <path id="Path_6070" data-name="Path 6070" d="M497.3,329.167l-1.913,1.1V334.4l1.913-1.1Z" transform="translate(-453.82 -305.167)" fill="#474c52" fill-rule="evenodd"/>
            <path id="Path_6071" data-name="Path 6071" d="M475.559,316.614l-1.913,1.1-41.569-24,1.912-1.1Z" transform="translate(-432.078 -292.614)" fill="#5a5f63" fill-rule="evenodd"/>
          </g>
          <path id="Path_6072" data-name="Path 6072" d="M437.591,332.157l-17.539-1.444v1.37l-62.441,19.8v-1.371l1.516,27.112v6.911l78.464-45.47Z" transform="translate(-293.046 -245.059)" fill="#b2b1af" fill-rule="evenodd"/>
          <g id="Group_3651" data-name="Group 3651" transform="translate(114.058 89.301)">
            <path id="Path_6073" data-name="Path 6073" d="M451.226,338.886l-3.552-2.051-.611-.289-.662-.189-.709-.088-.752.016-.791.122-.824.231-.854.343-.879.456-.443.268-.437.291-.43.312-.424.332-.416.351-.408.37-.4.387-.391.4-.381.419-.371.434-.36.447-.349.46-.337.471-.325.483-.312.492-.3.5-.285.509-.27.517-.255.523-.24.528-.223.532-.207.535-.19.538-.173.539-.154.54-.135.54-.116.538-.1.536-.076.533-.055.528-.033.524-.011.518.045.99.13.911.212.829.289.746.363.659.431.57.5.479.555.385,1.465.846,0,0,4.348,2.51,12.164-21.069Z" transform="translate(-432.99 -336.269)" fill="#2e3235" fill-rule="evenodd"/>
            <path id="Path_6074" data-name="Path 6074" d="M450.449,342.547c-4.751,2.743-8.6,9.412-8.6,14.9s3.85,7.708,8.6,4.966,8.6-9.413,8.6-14.9S455.2,339.8,450.449,342.547Z" transform="translate(-436.032 -338.021)" fill="#474c52" fill-rule="evenodd"/>
            <path id="Path_6075" data-name="Path 6075" d="M453.083,351.761c1.97-1.137,3.566-.215,3.566,2.059A7.881,7.881,0,0,1,453.083,360c-1.97,1.137-3.567.215-3.567-2.059A7.883,7.883,0,0,1,453.083,351.761Z" transform="translate(-438.665 -341.422)" fill="#fff" fill-rule="evenodd"/>
            <path id="Path_6076" data-name="Path 6076" d="M453.422,352.951c1.611-.93,2.917-.177,2.917,1.684a6.449,6.449,0,0,1-2.917,5.052c-1.611.93-2.917.176-2.917-1.684A6.446,6.446,0,0,1,453.422,352.951Z" transform="translate(-439.005 -341.861)" fill="#e8e5e0" fill-rule="evenodd"/>
            <path id="Path_6077" data-name="Path 6077" d="M454.036,355.1c.962-.555,1.742-.106,1.742,1.006a3.852,3.852,0,0,1-1.742,3.018c-.963.556-1.743.106-1.743-1.006A3.851,3.851,0,0,1,454.036,355.1Z" transform="translate(-439.619 -342.654)" fill="#2e3235" fill-rule="evenodd"/>
          </g>
          <path id="Path_6078" data-name="Path 6078" d="M362.467,291.447l-41.569-24V320.23l41.569,24Z" transform="translate(-280.438 -223.332)" fill="#ffcd40" fill-rule="evenodd"/>
          <path id="Path_6079" data-name="Path 6079" d="M384.209,280.926l76.116-44.114v56.523l-76.116,44.114Z" transform="translate(-302.18 -212.812)" fill="#f9a01b" fill-rule="evenodd"/>
          <g id="Group_3653" data-name="Group 3653" transform="translate(82.029 76.784)">
            <g id="Group_3652" data-name="Group 3652">
              <path id="Path_6080" data-name="Path 6080" d="M462.791,318.627l-76.116,44.114v3.739l76.116-44.114Z" transform="translate(-385.056 -317.693)" fill="#e8e5e0" fill-rule="evenodd"/>
              <path id="Path_6081" data-name="Path 6081" d="M461.944,318.139l-76.116,44.114-1.619-.935L460.325,317.2Z" transform="translate(-384.209 -317.204)" fill="#fff" fill-rule="evenodd"/>
            </g>
            <path id="Path_6082" data-name="Path 6082" d="M385.828,389.064v-3.739l-1.619-.935v3.739Z" transform="translate(-384.209 -340.277)" fill="#e8e5e0" fill-rule="evenodd"/>
          </g>
          <path id="Path_6083" data-name="Path 6083" d="M438.583,224.259l-76.116,44.114-41.568-24,76.116-44.114Z" transform="translate(-280.438 -200.26)" fill="#ffde4d" fill-rule="evenodd"/>
          <g id="Group_3654" data-name="Group 3654" transform="translate(32.249 95.083)">
            <path id="Path_6084" data-name="Path 6084" d="M308.392,345.075l4.993,7.02,39.334,22.859-4.993-7.02Z" transform="translate(-308.392 -345.075)" fill="#1c1d1e"/>
          </g>
          <g id="Group_3655" data-name="Group 3655" transform="translate(52.243 120.623)">
            <path id="Path_6085" data-name="Path 6085" d="M357.08,386.589l-3.552-2.051-.611-.289-.662-.189-.709-.088-.752.016-.791.122-.824.231-.854.343-.879.456-.443.268-.437.291-.43.312-.424.332-.416.351-.408.37-.4.387-.391.4-.381.419-.371.434-.36.447-.349.46-.337.471-.325.483-.312.492-.3.5-.285.509-.27.517-.255.523-.24.528-.223.532-.207.535-.19.538-.173.539-.154.54-.135.54-.116.538-.1.536-.076.533-.055.528-.033.524-.011.518.045.99.13.911.212.829.289.746.363.659.431.57.5.479.555.385,1.465.846,0,0,4.348,2.51L359.343,387.9Z" transform="translate(-338.844 -383.972)" fill="#2e3235" fill-rule="evenodd"/>
            <path id="Path_6086" data-name="Path 6086" d="M356.3,390.251c-4.751,2.743-8.6,9.413-8.6,14.9s3.85,7.709,8.6,4.966,8.6-9.413,8.6-14.9S361.054,387.508,356.3,390.251Z" transform="translate(-341.886 -385.725)" fill="#474c52" fill-rule="evenodd"/>
            <path id="Path_6087" data-name="Path 6087" d="M358.937,399.465c1.97-1.137,3.566-.215,3.566,2.059a7.882,7.882,0,0,1-3.566,6.177c-1.97,1.137-3.567.215-3.567-2.059A7.883,7.883,0,0,1,358.937,399.465Z" transform="translate(-344.519 -389.125)" fill="#fff" fill-rule="evenodd"/>
            <path id="Path_6088" data-name="Path 6088" d="M359.276,400.654c1.611-.93,2.917-.176,2.917,1.684a6.447,6.447,0,0,1-2.917,5.052c-1.611.93-2.917.177-2.917-1.684A6.448,6.448,0,0,1,359.276,400.654Z" transform="translate(-344.859 -389.564)" fill="#e8e5e0" fill-rule="evenodd"/>
            <path id="Path_6089" data-name="Path 6089" d="M359.89,402.8c.962-.555,1.742-.105,1.742,1.007a3.852,3.852,0,0,1-1.742,3.018c-.963.555-1.743.105-1.743-1.006A3.851,3.851,0,0,1,359.89,402.8Z" transform="translate(-345.473 -390.357)" fill="#2e3235" fill-rule="evenodd"/>
          </g>
          <g id="Group_3656" data-name="Group 3656" transform="translate(3.002 93.612)">
            <path id="Path_6090" data-name="Path 6090" d="M263.848,342.834l.08,28.213,39.334,22.859-.08-28.214Z" transform="translate(-263.848 -342.834)" fill="#0071b5"/>
          </g>
          <g id="Group_3657" data-name="Group 3657" transform="translate(3.002 66.256)">
            <path id="Path_6091" data-name="Path 6091" d="M263.848,328.526l39.334,22.859,14.356-27.356L278.2,301.17Z" transform="translate(-263.848 -301.17)" fill="#0071b5"/>
          </g>
          <g id="Group_3658" data-name="Group 3658" transform="translate(4.979 68.324)">
            <path id="Path_6092" data-name="Path 6092" d="M315.233,323.883l-33.025-19.192a2.738,2.738,0,0,0-3.8,1.095L267.173,327.2a2.737,2.737,0,0,0,1.049,3.639l33.024,19.192a2.737,2.737,0,0,0,3.8-1.1l11.236-21.411A2.738,2.738,0,0,0,315.233,323.883Z" transform="translate(-266.859 -304.32)" fill="#474c52"/>
          </g>
          <g id="Group_3659" data-name="Group 3659" transform="translate(17.358 52.855)">
            <path id="Path_6093" data-name="Path 6093" d="M285.712,294.161l39.334,22.859,23.107-13.4-39.334-22.859Z" transform="translate(-285.712 -280.759)" fill="#0283c4"/>
          </g>
          <g id="Group_3660" data-name="Group 3660" transform="translate(42.336 75.713)">
            <path id="Path_6094" data-name="Path 6094" d="M338.111,328.975l-14.356,27.356.08,28.214,11.2-6.468,4.937-12.753L353,357.8l4.993,7.02,3.357-2-.134-47.25Z" transform="translate(-323.755 -315.573)" fill="#005f8e"/>
          </g>
          <path id="Path_6095" data-name="Path 6095" d="M348.646,329.554l-8.421,4.555a.63.63,0,0,0-.259.261l-12.61,23.744a.636.636,0,0,0,.884.846l21.03-12.373a.637.637,0,0,0,.313-.548V330.114A.636.636,0,0,0,348.646,329.554Z" transform="translate(-282.629 -244.635)" fill="#0283c4"/>
          <path id="Path_6096" data-name="Path 6096" d="M327.357,358.275l20.854-12.27a.637.637,0,0,0,.313-.548v-15.74l-8.272,4.475a.63.63,0,0,0-.259.261L327.383,358.2A.606.606,0,0,0,327.357,358.275Z" transform="translate(-282.656 -244.717)" fill="#474c52"/>
          <g id="Group_3661" data-name="Group 3661" transform="translate(84.195 106.009)">
            <path id="Path_6097" data-name="Path 6097" d="M398.384,384.978l26.093-15.233v-8.03l-26.093,15.233Z" transform="translate(-391.242 -361.715)" fill="#474c52"/>
            <path id="Path_6098" data-name="Path 6098" d="M394.649,392.946v-8.03l-7.142,4.123Z" transform="translate(-387.507 -369.682)" fill="#2e3235"/>
          </g>
          <g id="Group_3665" data-name="Group 3665" transform="translate(24.709 50.404)">
            <g id="Group_3664" data-name="Group 3664">
              <g id="Group_3662" data-name="Group 3662">
                <path id="Path_6099" data-name="Path 6099" d="M296.909,295.56,323.132,310.8l18.511-18.534L315.42,277.026Z" transform="translate(-296.909 -277.026)" fill="#0297d1"/>
              </g>
              <g id="Group_3663" data-name="Group 3663" transform="translate(26.223 15.239)">
                <path id="Path_6100" data-name="Path 6100" d="M336.847,318.77l18.533-10.7-.022-7.834Z" transform="translate(-336.847 -300.236)" fill="#005f8e"/>
              </g>
            </g>
          </g>
          <g id="Group_3666" data-name="Group 3666" transform="translate(46.83 106.012)">
            <path id="Path_6101" data-name="Path 6101" d="M331.717,362.471l1.1-.637.155-.065.165-.039.176-.012.184.016.192.045.2.074.2.1,2.46,1.421.2.132.2.156a4.7,4.7,0,0,1,.872,1.062l.144.256.129.265.116.274.1.279.085.283.068.285.05.286.031.282.011.28v6.633l-.011.267-.031.248-.05.228-.068.207-.085.185-.1.163-.116.139-.129.116-.144.091-1.1.636.143-.091-5-13.633Z" transform="translate(-330.984 -361.719)" fill="#fff" fill-rule="evenodd"/>
            <path id="Path_6102" data-name="Path 6102" d="M332.61,362.927l2.46,1.421a4.831,4.831,0,0,1,2.01,3.839v6.633c0,1.473-.9,2.157-2.01,1.519l-2.46-1.421a4.831,4.831,0,0,1-2.01-3.84v-6.633C330.6,362.973,331.5,362.29,332.61,362.927Z" transform="translate(-330.6 -362.052)" fill="#e8e5e0" fill-rule="evenodd"/>
          </g>
          <g id="Group_3667" data-name="Group 3667" transform="translate(29.491 124.821)">
            <path id="Path_6103" data-name="Path 6103" d="M308.165,392.131c-2.195-1.267-3.974-.24-3.974,2.294a8.781,8.781,0,0,0,3.974,6.882c2.194,1.267,3.973.24,3.973-2.294A8.783,8.783,0,0,0,308.165,392.131Z" transform="translate(-304.191 -390.786)" fill="#2e3235" fill-rule="evenodd"/>
            <path id="Path_6104" data-name="Path 6104" d="M311.583,401.166l1.394-.805.257-.178.229-.221.2-.263.167-.3.134-.345.1-.383.06-.421.021-.457-.021-.481-.06-.49-.1-.5-.134-.5-.167-.5-.2-.493-.229-.485-.257-.474-.282-.459-.306-.44-.328-.419-.347-.394-.365-.365-.381-.333-.394-.3-.406-.258-.406-.211-.394-.158-.381-.107-.365-.057-.347-.007-.328.041-.306.087-.282.134-1.395.8.283-.133.306-.087.328-.041.347.008.365.056.38.107.395.158.406.211.407.258.394.3.38.333.365.365.347.394.328.419.306.441.282.459.256.474.229.486.2.493.167.5.134.5.1.5.06.49.021.481-.021.457-.06.421-.1.383-.134.345-.167.3-.2.263-.229.221Z" transform="translate(-304.8 -390.366)" fill="#474c52" fill-rule="evenodd"/>
            <path id="Path_6105" data-name="Path 6105" d="M308.7,394.019c-1.626-.938-2.943-.178-2.943,1.7a6.5,6.5,0,0,0,2.943,5.1c1.624.938,2.942.178,2.942-1.7A6.5,6.5,0,0,0,308.7,394.019Z" transform="translate(-304.73 -391.483)" fill="#fff" fill-rule="evenodd"/>
          </g>
          <g id="Group_3668" data-name="Group 3668" transform="translate(5.483 110.651)">
            <path id="Path_6106" data-name="Path 6106" d="M271.6,370.55c-2.194-1.267-3.974-.24-3.974,2.294a8.783,8.783,0,0,0,3.974,6.882c2.195,1.267,3.974.24,3.974-2.294A8.78,8.78,0,0,0,271.6,370.55Z" transform="translate(-267.627 -369.205)" fill="#2e3235" fill-rule="evenodd"/>
            <path id="Path_6107" data-name="Path 6107" d="M275.019,379.585l1.394-.8.257-.178.229-.221.2-.263.167-.3.134-.345.1-.383.06-.421.021-.457-.021-.481-.06-.49-.1-.5-.134-.5-.167-.5-.2-.493-.229-.485-.257-.474-.282-.459-.306-.441-.328-.419-.347-.394-.365-.365-.381-.333-.395-.3-.406-.258-.407-.211-.394-.158-.381-.107-.365-.057-.347-.007-.328.041-.306.087-.282.134-1.395.805.283-.133.306-.087.328-.041.347.008.365.056.38.107.395.158.406.211.407.258.394.3.38.333.365.365.347.394.328.419.306.441.282.459.257.474.229.486.2.493.167.5.134.5.1.5.06.49.021.481-.021.457-.06.421-.1.383-.134.345-.167.3-.2.264-.229.221Z" transform="translate(-268.236 -368.785)" fill="#474c52" fill-rule="evenodd"/>
            <path id="Path_6108" data-name="Path 6108" d="M272.14,372.438c-1.625-.938-2.942-.178-2.942,1.7a6.5,6.5,0,0,0,2.942,5.1c1.625.938,2.942.178,2.942-1.7A6.5,6.5,0,0,0,272.14,372.438Z" transform="translate(-268.167 -369.901)" fill="#fff" fill-rule="evenodd"/>
          </g>
          <path id="Path_6109" data-name="Path 6109" d="M284.844,382.786h0c0-1.011.827-1.36,1.839-.777l7.207,4.108a3.825,3.825,0,0,1,1.838,2.9h0c0,1.011-.827,1.36-1.838.777l-7.208-4.108A3.826,3.826,0,0,1,284.844,382.786Z" transform="translate(-268.056 -262.578)" fill="#474c52" fill-rule="evenodd"/>
          <g id="Group_3670" data-name="Group 3670" transform="translate(0 118.063)">
            <g id="Group_3669" data-name="Group 3669" transform="translate(0.008 2.559)">
              <path id="Path_6110" data-name="Path 6110" d="M263.147,386.816,298.454,407.2h.007l1.278.739.247.13.26.115.272.1.281.083.288.068.292.052.295.037.295.02.293,0,.289-.013.282-.028.274-.045.263-.061.249-.078.234-.095.217-.112,2.9-1.675.357-.261.24-.3.127-.321.014-.336v4.785l-.014.336-.127.321-.24.3-.357.261-2.9,1.675-.217.112-.234.094-.249.078-.263.061-.274.045-.282.029-.289.012-.293,0-.295-.02-.295-.036-.292-.053-.288-.068-.281-.083-.272-.1-.26-.115-.247-.131-1.278-.739h-.007l-36.14-20.8v0l-1.978-1.142-.425-.293-.317-.319-.208-.334-.1-.341v-4.786l.1.341.208.335.317.319.425.292,1.978,1.142v0l.006,0v-2.286Zm-.833,4.37v0Z" transform="translate(-259.288 -383.972)" fill="#2e3235" fill-rule="evenodd"/>
            </g>
            <path id="Path_6111" data-name="Path 6111" d="M306.656,402.606l-4.943,2.854-39.4-22.684.039-.023h0v-2.679l-2.334,1.347c-1.1.638-.964,1.764.311,2.5l1.978,1.142v0l36.14,20.8h.007l1.278.739a4.833,4.833,0,0,0,4.33.179l2.9-1.675C308.071,404.467,307.931,403.343,306.656,402.606Z" transform="translate(-259.276 -380.074)" fill="#474c52" fill-rule="evenodd"/>
          </g>
        </g>
      </g>
    </g>
  </g>
</svg>