<svg xmlns="http://www.w3.org/2000/svg" viewBox="0 0 1162.14 421.934"><title>kb</title><path d="M1147.37,56.385v-21.1l-20.216-20.216h-20.7L1091.624.238,1063.057,0l-14.773,14.769h-21.1L1006.97,34.985v20.7l-14.832,14.83-.075,9.01L967.289,68.363,937.728,79.684l-9.818,21.723a141.805,141.805,0,0,0-14.169-.712q-2.571,0-5.145.1l-8.451-22.408-28.928-13L827.722,81.853l-12.983,28.9,8.45,22.407c-2.169,1.775-21.852,19.859-21.852,19.859H515.214v-2.05L501,114.68l3.1-2.869V74.675L485.492,58.169H0V334.219l800.768-.1,15.7,14.34-9.832,21.756,11.134,29.621,42.472,19.136,29.56-11.32,9.818-21.723a141.845,141.845,0,0,0,14.171.712q2.57,0,5.145-.095l8.451,22.407,28.888,12.979,43.818-16.411,13-28.938-8.446-22.4a142.187,142.187,0,0,0,14.079-13.264l21.8,9.855,29.585-11.329,19.108-42.407-11.322-29.56-21.714-9.816a140.81,140.81,0,0,0,.616-19.32l22.4-8.449,13-28.926-11.668-30.82,10.454.087,14.771-14.77h21.1l20.216-20.216v-20.7l14.83-14.832.24-28.568Z" transform="translate(0 0)" style="fill:#181626"/><path d="M55.3,281.319H78.8v-23.5H55.3ZM20,314.219v-141.2H90.6l23.5,23.5v35.3l-11.8,11.8,11.8,11.8v35.3l-23.5,23.5Zm35.3-84.7H78.8v-23.5H55.3Zm71.8,84.7,30.1-141.2h49.9l30.1,141.2h-36l-4.7-23.5H167.6l-4.7,23.5Zm55-94.1-8.7,42.3h17.2Zm168,41.2v29.4l-23.5,23.5H273.7l-23.5-23.5v-94.1l23.5-23.5h52.9l23.5,23.5v29.4H314.8v-17.6H285.4v70.6h29.4v-17.6h35.3Zm83.5,52.9-23.5-42.3v42.3H374.8v-141.2h35.3v42.3l23.5-42.3h40.9l-39.5,70.6,39.5,70.6Zm148-35.3v35.3H493.4v-141.2h88.2v35.3H528.7v17.6h29.4v35.3H528.7v17.6h52.9Zm89.4-105.8h35.3v141.2H676.2l-34.6-62.1v62.1H606.3v-141.2h29.9l34.8,61.9v-61.9Zm63.5,141.1v-141.2H811l23.5,23.5v94.1l-23.5,23.5H734.5Zm35.3-35.3h29.4v-70.6H769.8Z" transform="translate(0 0)" style="fill:#fff"/><path d="M51.1,78.169l-13,26.4,13,26.4H40.2l-10.5-21.5v21.5H20v-52.8h9.7v21.5l10.5-21.5Zm54,52.8H94.7l-8.3-21.5H83.5v21.5H73.7v-52.8H97.1l6.2,5.5v19.4l-6.7,6.2Zm-21.6-31.3H93.6v-11.8H83.5Zm69.2,31.3-2.4-11.8H140.1l-2.4,11.8h-9.9l10.5-52.8H152l10.5,52.8Zm-4.3-21.5-3.2-15.8-3.2,15.8Zm66.2,16-6.2,5.5H191.6l-6.3-5.5v-8.5H195v4.3h9.8v-11.8H191.5l-6.3-5.5v-20.2l6.3-5.5h16.8l6.2,5.5v8.2h-9.7v-4H195v11.8h13.4l6.2,5.5v20.2Zm43,5.5-10.6-27.7v27.7h-9.7v-52.8h10.4l10.7,27.7v-27.7h9.7v52.8Zm63.8-5.5-6.3,5.5H297l-6.2-5.5v-41.7l6.2-5.5h18.1l6.3,5.5Zm-9.8-4.2v-33.3H300.5v33.3Zm56.4-43.1,6.3,5.6v41.7l-6.3,5.5H344v-52.8Zm-3.4,43.1v-33.3H353.8v33.3Zm57.3,9.7-2.4-11.8H409.3l-2.4,11.8H397l10.5-52.8h13.7l10.5,52.8Zm-4.3-21.5-3.2-15.8-3.2,15.8Zm68.3,21.5H475.5l-8.3-21.5h-2.9v21.5h-9.8v-52.8h23.4l6.2,5.5v19.4l-6.7,6.2Zm-21.7-31.3h10.1v-11.8H464.2Z" transform="translate(0 0)" style="fill:#58b056"/><path d="M1137.77,75.069l-12.4-.1a48.169,48.169,0,0,0-6.8-16.6l8.8-8.7v-6.1l-8.5-8.5h-6.1l-8.8,8.7a49.043,49.043,0,0,0-16.5-6.9l.1-12.4-4.3-4.3-12-.1-4.3,4.3-.1,12.4a52.434,52.434,0,0,0-9.5,3,53.3,53.3,0,0,0-7.1,3.8l-8.7-8.8h-6.1l-8.5,8.5v6.1l8.7,8.8a49.043,49.043,0,0,0-6.9,16.5l-12.4-.1-4.3,4.3-.1,12,3.1,3.7,13.6.7a48.169,48.169,0,0,0,6.8,16.6l-8.8,8.7v6.1l8.5,8.5h6.1l8.8-8.7a49.043,49.043,0,0,0,16.5,6.9l-.1,12.4,4.3,4.3,12,.1,4.3-4.3.1-12.4a48.149,48.149,0,0,0,16.6-6.8l8.7,8.8h6.1l8.5-8.5v-6.1l-8.7-8.8a49.043,49.043,0,0,0,6.9-16.5l12.4.1,4.3-4.3.1-12Zm-40.4,30.7a29.062,29.062,0,1,1,.2-41.1A29.061,29.061,0,0,1,1097.37,105.769Z" transform="translate(0 0)" style="fill:#58b056"/><circle cx="1077.17" cy="85.469" r="12.2" style="fill:#58b056"/><path d="M1034.065,269.619a121.7,121.7,0,0,0,1.4-44.6l28.9-10.9,6.2-13.8-10.6-28-13.8-6.2-28.9,10.9a122.924,122.924,0,0,0-30.6-32.5l12.7-28.1-5.4-14.1-27.3-12.3-14.1,5.4-12.7,28.1a121.7,121.7,0,0,0-44.6-1.4l-10.9-28.9-13.8-6.2-28,10.6-6.2,13.8,10.9,28.9a125.426,125.426,0,0,0-16.8,13l26,26a86.422,86.422,0,1,1,.3,129.3l-25.9,25.9c3.2,2.9,6.6,5.7,10.1,8.3l-12.7,28.1,5.3,14.1,27.3,12.3,14.1-5.4,12.7-28.1a121.7,121.7,0,0,0,44.6,1.4l10.9,28.9,13.8,6.2,28.3-10.6,6.2-13.8-10.9-28.9a122.924,122.924,0,0,0,32.5-30.6l28.1,12.7,14.1-5.4,12.3-27.3-5.4-14.1Z" transform="translate(0 0)" style="fill:#58b056"/><path d="M912.965,300.519a56.5,56.5,0,1,0-56.5-56.5A56.505,56.505,0,0,0,912.965,300.519Zm0-82a25.5,25.5,0,1,1-25.5,25.5A25.543,25.543,0,0,1,912.965,218.519Z" transform="translate(0 0)" style="fill:#58b056"/></svg>