<svg xmlns="http://www.w3.org/2000/svg" viewBox="0 0 466.186 214.514"><title>kf</title><path d="M447.738,46.11H325.9L330.019,0h-195.1l4.119,46.11H0v77.982l126.937.015V154.98h21.826l3.272,36.625,80.434,22.909L312.9,191.605l3.273-36.625H338V124.092l109.737.015,18.448-18.447v-41.1ZM280.182,164.533l-47.713,13.59-47.713-13.59-.85-9.512,97.131-.061ZM290.76,46.11H174.177L173.184,35H291.753Z" style="fill:#1b1b1b"/><path d="M144.838,137.224s.01-.007.014-.012l4.576-7.943h-2.053s-4.058,7.09-4.081,7.147h-4.122v-7.147h-1.709v15.91h1.709v-7.146h4.122c.023.057,4.081,7.146,4.081,7.146h2.053l-4.576-7.943S144.841,137.229,144.838,137.224Z" style="fill:#fff"/><path d="M284.578,132.208h0l-2.933-2.937H271.566v15.91l10.077-.02,2.933-2.937h0Zm-1.709,9.308-2.026,2.026h-7.585V130.886h7.585l2.026,2.026Z" style="fill:#fff"/><path d="M261.2,132.208h0l-2.933-2.937H250.68l-2.933,2.937h0V142.22h0l2.933,2.937h7.582l2.933-2.937h0Zm-1.709,9.308-2.026,2.026H251.48l-2.027-2.026v-8.6l2.027-2.026h5.982l2.026,2.026Z" style="fill:#fff"/><path d="M191.7,132.208h0l-2.934-2.937h-5.934l-2.933,2.937h0v12.945l1.709.015v-4.4h8.387v4.4l1.709-.016Zm-10.1,6.941v-6.237l2.027-2.026h4.334l2.027,2.026v6.237Z" style="fill:#fff"/><path d="M306.724,132.208h0l-2.933-2.937h-5.935l-2.933,2.937h0v12.945l1.709.015v-4.4h8.387v4.4l1.709-.016Zm-10.1,6.941v-6.237l2.026-2.026h4.334l2.027,2.026v6.237Z" style="fill:#fff"/><polygon points="205.773 130.886 211.434 130.886 212.908 132.359 212.973 132.294 212.973 132.294 214.116 131.151 214.116 131.151 214.116 131.151 212.447 129.482 212.445 129.483 212.231 129.269 212.229 129.27 212.229 129.269 204.973 129.269 202.04 132.206 202.039 132.206 202.039 132.207 202.038 132.208 202.039 135.024 202.041 135.024 202.038 135.025 204.977 137.962 204.981 137.954 204.981 137.962 210.38 137.962 212.414 139.996 212.414 141.389 210.38 143.422 204.72 143.422 203.246 141.949 203.181 142.014 203.181 142.014 202.038 143.157 202.038 143.157 202.038 143.157 203.922 145.039 203.924 145.038 203.924 145.039 211.18 145.039 211.18 145.038 214.114 142.102 214.115 142.102 214.115 142.101 214.116 142.1 214.115 142.099 214.115 139.284 214.113 139.284 214.116 139.283 211.177 136.346 211.173 136.354 211.173 136.346 205.773 136.346 203.746 134.319 203.746 132.912 205.773 130.886" style="fill:#fff"/><path d="M166.725,138.712l2.824-2.827h0v-3.675h0l-2.933-2.937h-7.892v15.91h1.708v-6.357h4.514l3.553,6.357h1.931Zm-6.293-1.507v-6.319h5.383l2.027,2.026v2.266l-2.027,2.027Z" style="fill:#fff"/><path d="M325.066,138.712l2.824-2.827h0v-3.675h0l-2.934-2.937h-7.891v15.91h1.708v-6.357h4.514l3.553,6.357h1.93Zm-6.293-1.507v-6.319h5.383l2.027,2.026v2.266l-2.027,2.027Z" style="fill:#fff"/><path d="M237.4,129.269v15.91h-1.476l-9.764-12.837v12.837h-1.708v-15.91h1.475l9.775,12.848V129.269Z" style="fill:#fff"/><polygon points="10 114.291 32.033 114.291 32.033 98.553 51.499 98.553 51.499 80.33 32.033 80.33 32.033 75.36 53.9 75.36 53.9 56.309 10 56.309 10 114.291" style="fill:#fff"/><polygon points="237.298 75.36 252.208 75.36 252.208 114.291 274.241 114.291 274.241 75.36 289.15 75.36 289.15 56.309 237.298 56.309 237.298 75.36" style="fill:#fff"/><polygon points="292.634 114.291 338.191 114.291 338.191 97.559 314.667 97.559 314.667 92.589 334.877 92.589 334.877 77.845 314.667 77.845 314.667 72.875 338.191 72.875 338.191 56.309 292.634 56.309 292.634 114.291" style="fill:#fff"/><path d="M375.8,78.077,359.151,56.309H341.674v57.982h22.033V101.866c0-4.031.017-9.325.017-9.325l16.632,21.75h17.477V56.309H375.8Z" style="fill:#fff"/><polygon points="211.779 78.077 195.133 56.309 177.656 56.309 177.656 114.291 199.689 114.291 199.706 92.541 216.338 114.291 233.815 114.291 233.815 56.309 211.783 56.309 211.779 78.077" style="fill:#fff"/><path d="M111.647,85.9v-17l-12.59-12.59H57.383l.085,57.982H79.5V98.485h5.928l10.226,15.806H115.13v-4.64L104.463,93.078ZM79.5,73.716h8.1l1.95,1.942v5.063l-1.943,1.942H79.5Z" style="fill:#fff"/><path d="M127.72,56.309,115.13,68.9v32.817l12.59,12.59h33.863l12.59-12.59V68.9l-12.59-12.59Zm25.351,36.026L150.505,94.9H138.778l-2.546-2.566V78.28l2.546-2.566H150.5l2.574,2.566Z" style="fill:#fff"/><path d="M443.6,56.309h-42.28v58H443.6l12.59-12.59V68.9Zm-9.458,37.183-2.566,2.565h-8.207V74.531h8.2l2.574,2.565Z" style="fill:#fff"/><polygon points="290.154 172.466 233.093 188.719 233.093 204.315 304.178 184.069 306.489 158.198 291.429 158.198 290.154 172.466" style="fill:#b20000"/><polygon points="233.093 10.199 233.093 25.199 303.311 25.199 301.792 42.198 316.852 42.198 319.71 10.199 233.093 10.199" style="fill:#b20000"/><polygon points="176.031 172.466 174.757 158.198 159.697 158.198 162.008 184.069 233.093 204.315 233.093 188.719 176.031 172.466" style="fill:#e20000"/><polygon points="146.475 10.199 149.334 42.198 164.393 42.198 162.875 25.199 233.093 25.199 233.093 10.199 146.475 10.199" style="fill:#e20000"/></svg>