<svg xmlns="http://www.w3.org/2000/svg" xmlns:xlink="http://www.w3.org/1999/xlink" width="1920" height="1080" viewBox="0 0 1920 1080">
  <defs>
    <clipPath id="clip-Web_1920_1">
      <rect width="1920" height="1080"/>
    </clipPath>
  </defs>
  <g id="Web_1920_1" data-name="Web 1920 – 1" clip-path="url(#clip-Web_1920_1)">
    <g id="Group_3452" data-name="Group 3452" transform="translate(22 247)">
      <path fill="white" id="Path_2340" data-name="Path 2340" d="M76.384,477.045c-19.1,0-31.827-12.854-36.07-34.27L2.122,288.555C0,284.27,0,277.844,0,273.56c0-6.426,2.122-12.851,8.487-17.135Q14.852,250,27.583,250c14.852,0,23.34,6.425,25.461,21.419l29.7,141.367,38.192-141.367c4.244-14.994,14.852-21.419,29.7-21.419,16.974,0,27.583,6.425,29.7,21.419l40.314,141.367L248.248,275.7c4.244-17.134,12.731-25.7,27.583-25.7q12.731,0,19.1,6.425c4.244,4.284,8.487,10.71,8.487,17.135,0,4.284-2.122,10.71-2.122,14.994l-42.435,154.22c-2.122,12.851-6.365,19.276-10.609,25.7a46.941,46.941,0,0,1-27.583,8.568c-16.974,0-29.7-10.711-36.07-27.846L150.646,320.683,116.7,444.915C110.332,466.334,97.6,477.045,76.384,477.045ZM477.4,250c19.1,0,31.827,8.568,38.192,27.845l61.531,160.645c2.122,6.426,4.244,10.71,4.244,14.995,0,6.425-4.244,12.85-8.487,17.134q-9.548,6.426-19.1,6.427c-12.731,0-23.34-8.568-29.7-23.561l-8.487-27.847H432.842l-10.609,27.847c-4.243,14.992-12.731,23.561-25.461,23.561q-12.731,0-19.1-6.427c-4.243-4.284-6.365-10.709-6.365-17.134s0-10.71,2.122-14.995l61.531-156.362C443.451,260.709,458.3,250,477.4,250Zm-2.122,53.548L447.694,382.8h53.044l-25.461-79.252Zm199.447-17.135c0-23.561,8.487-36.413,27.583-36.413,16.974,0,25.461,12.852,25.461,36.413V427.78h46.679c25.461,0,38.192,6.426,38.192,23.561,0,14.994-12.731,21.419-38.192,21.419H710.794c-12.731,0-23.34-2.142-27.583-6.426-6.365-4.284-8.487-12.85-8.487-23.56Zm282.2,154.218c0,23.56-8.487,36.414-27.583,36.414-16.974,0-25.461-12.854-25.461-36.414V286.413c0-23.561,8.487-36.413,25.461-36.413,19.1,0,27.583,12.852,27.583,36.413Zm106.089-77.109c0-32.129,10.609-59.974,29.7-81.395Q1124.54,250,1175.462,250c36.07,0,63.653,10.71,84.871,32.128s29.705,47.124,29.705,81.395c0,32.129-8.487,59.974-29.705,81.393s-48.8,32.13-84.871,32.13q-50.922,0-82.749-32.13C1073.618,423.5,1063.009,395.651,1063.009,363.522Zm57.287,0q0,28.917,12.731,44.981c10.609,14.993,25.461,21.418,42.435,21.418,19.1,0,33.948-6.425,44.557-21.418q12.731-16.066,12.731-44.981t-12.731-44.981c-10.609-14.993-25.462-21.419-44.557-21.419s-31.826,6.426-42.435,21.419Q1120.3,334.606,1120.3,363.522Zm305.536-64.259c-19.1,0-31.827,0-36.07-2.141-14.852-2.142-23.339-8.568-23.339-21.421,0-14.992,12.73-23.56,38.192-23.56h95.479c25.462,0,38.192,8.568,38.192,23.56,0,12.853-8.487,19.279-21.218,21.421-6.365,2.141-16.974,2.141-38.192,2.141V440.631c0,23.56-8.487,36.414-25.461,36.414-19.1,0-27.583-12.854-27.583-36.414Z" transform="translate(0 109.931)"/>
      <path fill="white" id="Path_5041" data-name="Path 5041" d="M30.581,198.44a36.733,36.733,0,1,1,36.672,36.685H30.581Zm104.047.322a67.777,67.777,0,0,0-67.476-67.469,66.657,66.657,0,0,0-31.526,7.938,69.828,69.828,0,0,1,14.8-21.667,69.236,69.236,0,0,1,118.089,48.913V235.66l-44.847-.215A66.89,66.89,0,0,0,134.628,198.761Zm63.928,36.9V166.475A99.136,99.136,0,0,0,41.522,85.812,104.852,104.852,0,0,1,60.279,60.283,102.819,102.819,0,0,1,235.667,132.9l.1,120.136a107.875,107.875,0,0,0,.857,13.086A99.529,99.529,0,0,0,335.1,352.257,98.689,98.689,0,0,0,392.8,333.7a106.412,106.412,0,0,1-18.65,25.529,102.863,102.863,0,0,1-175.482-72.618Zm67.361-51.809,44.84.107a67.3,67.3,0,0,0,87.953,96.324,72,72,0,0,1-14.69,21.667,69.186,69.186,0,0,1-118.1-48.913ZM265.7,153.71V132.9A132.851,132.851,0,0,0,0,132.9V239.629C0,260.117,11.581,265.8,28.43,265.8h140.2v20.809a132.851,132.851,0,0,0,265.7,0V221.18l.094-.215V180.741c0-12.872-7.5-27.031-28.1-27.031H265.7ZM367.07,257.864a36.738,36.738,0,1,1,0-73.476h36.679v36.684A36.749,36.749,0,0,1,367.07,257.864Z" transform="translate(1442.025 0)" fill-rule="evenodd"/>
    </g>
  </g>
</svg>
